<svg width="265" height="170" viewBox="0 0 265 170" fill="none" xmlns="http://www.w3.org/2000/svg">
<rect x="178.869" y="77.159" width="67.7372" height="23.3815" rx="4" fill="#1C1C1C"/>
<path d="M235.493 89.9127L237.551 87.6807L238.139 88.3183L235.493 91.1879L232.847 88.3183L233.435 87.6807L235.493 89.9127Z" fill="#74767C"/>
<path d="M153.996 89.9127L156.054 87.6807L156.642 88.3183L153.996 91.1879L151.35 88.3183L151.938 87.6807L153.996 89.9127Z" fill="#74767C"/>
<rect width="265" height="182" rx="16" fill="black"/>
<path d="M27.696 32.0433L26.928 29.8713H23.088L22.32 32.0433H21.204L24.288 23.5233H25.74L28.836 32.0433H27.696ZM23.424 28.9353H26.592L26.196 27.8193C25.66 26.3873 25.26 25.2313 24.996 24.3513C24.796 25.0313 24.448 26.0633 23.952 27.4473L23.82 27.8313L23.424 28.9353ZM34.0202 23.5233H35.0522V32.0433H34.0802V31.1313C33.6402 31.8433 32.9682 32.1993 32.0642 32.1993C31.3042 32.1993 30.6802 31.9113 30.1922 31.3353C29.7042 30.7593 29.4602 30.0113 29.4602 29.0913C29.4602 28.1713 29.7082 27.4233 30.2042 26.8473C30.7002 26.2713 31.3282 25.9833 32.0882 25.9833C32.9442 25.9833 33.5882 26.2993 34.0202 26.9313V23.5233ZM33.5522 30.7233C33.8882 30.3153 34.0562 29.7713 34.0562 29.0913C34.0562 28.4113 33.8882 27.8713 33.5522 27.4713C33.2162 27.0713 32.7722 26.8713 32.2202 26.8713C31.7082 26.8713 31.2962 27.0753 30.9842 27.4833C30.6722 27.8913 30.5162 28.4273 30.5162 29.0913C30.5162 29.7633 30.6682 30.3033 30.9722 30.7113C31.2842 31.1193 31.7002 31.3233 32.2202 31.3233C32.7722 31.3233 33.2162 31.1233 33.5522 30.7233ZM44.8114 27.9273V32.0433H43.7794V28.2153C43.7794 27.3033 43.3874 26.8473 42.6034 26.8473C42.1954 26.8473 41.8674 26.9873 41.6194 27.2673C41.3714 27.5393 41.2474 27.8953 41.2474 28.3353V32.0433H40.2154V28.2153C40.2154 27.3033 39.8234 26.8473 39.0394 26.8473C38.6474 26.8473 38.3234 26.9833 38.0674 27.2553C37.8194 27.5273 37.6954 27.8873 37.6954 28.3353V32.0433H36.6634V26.1393H37.6354V26.8473C37.9954 26.2633 38.5594 25.9713 39.3274 25.9713C40.1354 25.9713 40.7034 26.2913 41.0314 26.9313C41.4394 26.2913 42.0434 25.9713 42.8434 25.9713C43.4754 25.9713 43.9594 26.1513 44.2954 26.5113C44.6394 26.8633 44.8114 27.3353 44.8114 27.9273ZM47.4337 26.1393V32.0433H46.4017V26.1393H47.4337ZM47.4337 23.7393V24.9753H46.4017V23.7393H47.4337ZM53.9824 27.9993V32.0433H52.9504V28.3233C52.9504 27.8433 52.8344 27.4793 52.6024 27.2313C52.3704 26.9753 52.0344 26.8473 51.5944 26.8473C51.1704 26.8473 50.8104 26.9953 50.5144 27.2913C50.2184 27.5793 50.0704 27.9433 50.0704 28.3833V32.0433H49.0384V26.1393H50.0104V26.8953C50.3944 26.2793 51.0144 25.9713 51.8704 25.9713C52.5424 25.9713 53.0624 26.1593 53.4304 26.5353C53.7984 26.9113 53.9824 27.3993 53.9824 27.9993ZM64.4162 24.6993C65.0882 25.4753 65.4242 26.5033 65.4242 27.7833C65.4242 29.0633 65.0882 30.0953 64.4162 30.8793C63.7522 31.6553 62.8322 32.0433 61.6562 32.0433H58.4762V23.5233H61.6562C62.8322 23.5233 63.7522 23.9153 64.4162 24.6993ZM61.4762 24.4473H59.5802V31.1193H61.4762C62.3722 31.1193 63.0642 30.8273 63.5522 30.2433C64.0482 29.6513 64.2962 28.8313 64.2962 27.7833C64.2962 26.7433 64.0482 25.9273 63.5522 25.3353C63.0562 24.7433 62.3642 24.4473 61.4762 24.4473ZM71.5217 27.9393V32.0433H70.5857V31.3113C70.1697 31.9273 69.5017 32.2353 68.5817 32.2353C67.9337 32.2353 67.4177 32.0953 67.0337 31.8153C66.6577 31.5353 66.4697 31.1233 66.4697 30.5793C66.4697 29.9473 66.7057 29.4873 67.1777 29.1993C67.6657 28.9033 68.3457 28.6793 69.2177 28.5273L70.5377 28.2873V27.9873C70.5377 27.6273 70.4097 27.3433 70.1537 27.1353C69.9057 26.9273 69.5737 26.8233 69.1577 26.8233C68.7977 26.8233 68.4737 26.8993 68.1857 27.0513C67.9057 27.1953 67.5817 27.4513 67.2137 27.8193L66.5537 27.2313C67.2657 26.3913 68.1217 25.9713 69.1217 25.9713C69.8737 25.9713 70.4617 26.1513 70.8857 26.5113C71.3097 26.8633 71.5217 27.3393 71.5217 27.9393ZM70.5377 29.8353V29.0553L69.4577 29.2713C68.7217 29.4233 68.2137 29.5793 67.9337 29.7393C67.6617 29.8993 67.5097 30.1673 67.4777 30.5433C67.4777 30.8153 67.5817 31.0233 67.7897 31.1673C68.0057 31.3113 68.3057 31.3833 68.6897 31.3833C69.2257 31.3833 69.6657 31.2433 70.0097 30.9633C70.3617 30.6753 70.5377 30.2993 70.5377 29.8353ZM77.5604 26.8353L76.9964 27.5313C76.6364 27.2513 76.3204 27.0633 76.0484 26.9673C75.7844 26.8633 75.4804 26.8113 75.1364 26.8113C74.7444 26.8113 74.4284 26.8953 74.1884 27.0633C73.9564 27.2233 73.8404 27.4313 73.8404 27.6873C73.8724 27.9353 73.9764 28.1073 74.1524 28.2033C74.3284 28.2913 74.7524 28.4113 75.4244 28.5633C76.2404 28.7553 76.8164 28.9833 77.1524 29.2473C77.4884 29.5033 77.6564 29.8793 77.6564 30.3753C77.6564 30.9273 77.4404 31.3713 77.0084 31.7073C76.5764 32.0433 76.0044 32.2113 75.2924 32.2113C74.7564 32.2113 74.2804 32.1313 73.8644 31.9713C73.4564 31.8033 73.0244 31.5153 72.5684 31.1073L73.1804 30.4353C73.6124 30.7953 73.9804 31.0393 74.2844 31.1673C74.5884 31.2953 74.9284 31.3593 75.3044 31.3593C75.6964 31.3593 76.0164 31.2753 76.2644 31.1073C76.5204 30.9393 76.6484 30.7113 76.6484 30.4233C76.6484 30.1433 76.5284 29.9353 76.2884 29.7993C76.0484 29.6633 75.6164 29.5273 74.9924 29.3913C74.1524 29.1993 73.5884 28.9993 73.3004 28.7913C73.0124 28.5753 72.8604 28.2193 72.8444 27.7233C72.8444 27.2033 73.0564 26.7833 73.4804 26.4633C73.9044 26.1353 74.4564 25.9713 75.1364 25.9713C75.6244 25.9713 76.0524 26.0393 76.4204 26.1753C76.7884 26.3033 77.1684 26.5233 77.5604 26.8353ZM83.8066 27.9993V32.0433H82.7746V28.3233C82.7746 27.8433 82.6586 27.4793 82.4266 27.2313C82.1946 26.9753 81.8586 26.8473 81.4186 26.8473C80.9946 26.8473 80.6346 26.9953 80.3386 27.2913C80.0426 27.5793 79.8946 27.9433 79.8946 28.3833V32.0433H78.8626V23.5233H79.8946V26.8113C80.3026 26.2513 80.9026 25.9713 81.6946 25.9713C82.3586 25.9713 82.8746 26.1593 83.2426 26.5353C83.6186 26.9113 83.8066 27.3993 83.8066 27.9993ZM90.2617 26.8473C90.7497 27.4233 90.9937 28.1713 90.9937 29.0913C90.9937 30.0113 90.7457 30.7593 90.2497 31.3353C89.7617 31.9113 89.1417 32.1993 88.3897 32.1993C87.4617 32.1993 86.7897 31.8513 86.3737 31.1553V32.0433H85.4017V23.5233H86.4337V26.9673C86.8657 26.3113 87.5177 25.9833 88.3897 25.9833C89.1577 25.9833 89.7817 26.2713 90.2617 26.8473ZM89.9377 29.0913C89.9377 28.4193 89.7817 27.8793 89.4697 27.4713C89.1577 27.0633 88.7457 26.8593 88.2337 26.8593C87.6817 26.8593 87.2377 27.0633 86.9017 27.4713C86.5657 27.8713 86.3977 28.4113 86.3977 29.0913C86.3977 29.7713 86.5657 30.3113 86.9017 30.7113C87.2377 31.1113 87.6817 31.3113 88.2337 31.3113C88.7457 31.3113 89.1577 31.1073 89.4697 30.6993C89.7817 30.2913 89.9377 29.7553 89.9377 29.0913ZM97.0072 26.8473C97.5512 27.4233 97.8232 28.1713 97.8232 29.0913C97.8232 30.0113 97.5512 30.7633 97.0072 31.3473C96.4632 31.9233 95.7632 32.2113 94.9072 32.2113C94.0512 32.2113 93.3472 31.9233 92.7952 31.3473C92.2512 30.7633 91.9792 30.0113 91.9792 29.0913C91.9792 28.1713 92.2512 27.4233 92.7952 26.8473C93.3472 26.2633 94.0512 25.9713 94.9072 25.9713C95.7632 25.9713 96.4632 26.2633 97.0072 26.8473ZM93.5392 27.4593C93.2032 27.8753 93.0352 28.4193 93.0352 29.0913C93.0352 29.7633 93.2032 30.3073 93.5392 30.7233C93.8832 31.1393 94.3392 31.3473 94.9072 31.3473C95.4752 31.3473 95.9272 31.1433 96.2632 30.7353C96.5992 30.3193 96.7672 29.7713 96.7672 29.0913C96.7672 28.4113 96.5992 27.8673 96.2632 27.4593C95.9272 27.0433 95.4752 26.8353 94.9072 26.8353C94.3392 26.8353 93.8832 27.0433 93.5392 27.4593ZM103.854 27.9393V32.0433H102.918V31.3113C102.502 31.9273 101.834 32.2353 100.914 32.2353C100.266 32.2353 99.7497 32.0953 99.3657 31.8153C98.9897 31.5353 98.8017 31.1233 98.8017 30.5793C98.8017 29.9473 99.0377 29.4873 99.5097 29.1993C99.9977 28.9033 100.678 28.6793 101.55 28.5273L102.87 28.2873V27.9873C102.87 27.6273 102.742 27.3433 102.486 27.1353C102.238 26.9273 101.906 26.8233 101.49 26.8233C101.13 26.8233 100.806 26.8993 100.518 27.0513C100.238 27.1953 99.9137 27.4513 99.5457 27.8193L98.8857 27.2313C99.5977 26.3913 100.454 25.9713 101.454 25.9713C102.206 25.9713 102.794 26.1513 103.218 26.5113C103.642 26.8633 103.854 27.3393 103.854 27.9393ZM102.87 29.8353V29.0553L101.79 29.2713C101.054 29.4233 100.546 29.5793 100.266 29.7393C99.9937 29.8993 99.8417 30.1673 99.8097 30.5433C99.8097 30.8153 99.9137 31.0233 100.122 31.1673C100.338 31.3113 100.638 31.3833 101.022 31.3833C101.558 31.3833 101.998 31.2433 102.342 30.9633C102.694 30.6753 102.87 30.2993 102.87 29.8353ZM108.824 26.2473L108.632 27.1113C108.36 27.0313 108.104 26.9913 107.864 26.9913C107.448 26.9913 107.112 27.1633 106.856 27.5073C106.608 27.8433 106.484 28.2993 106.484 28.8753V32.0433H105.452V26.1393H106.424V27.0273C106.736 26.3873 107.224 26.0673 107.888 26.0673C108.192 26.0673 108.504 26.1273 108.824 26.2473ZM113.649 23.5233H114.681V32.0433H113.709V31.1313C113.269 31.8433 112.597 32.1993 111.693 32.1993C110.933 32.1993 110.309 31.9113 109.821 31.3353C109.333 30.7593 109.089 30.0113 109.089 29.0913C109.089 28.1713 109.337 27.4233 109.833 26.8473C110.329 26.2713 110.957 25.9833 111.717 25.9833C112.573 25.9833 113.217 26.2993 113.649 26.9313V23.5233ZM113.181 30.7233C113.517 30.3153 113.685 29.7713 113.685 29.0913C113.685 28.4113 113.517 27.8713 113.181 27.4713C112.845 27.0713 112.401 26.8713 111.849 26.8713C111.337 26.8713 110.925 27.0753 110.613 27.4833C110.301 27.8913 110.145 28.4273 110.145 29.0913C110.145 29.7633 110.297 30.3033 110.601 30.7113C110.913 31.1193 111.329 31.3233 111.849 31.3233C112.401 31.3233 112.845 31.1233 113.181 30.7233Z" fill="white"/>
<path d="M27.12 83.7353V88.5753C27.12 89.362 26.8933 89.962 26.44 90.3753C25.9867 90.782 25.32 90.9853 24.44 90.9853C23.5667 90.9853 22.9033 90.782 22.45 90.3753C21.9967 89.962 21.77 89.362 21.77 88.5753V83.7353H22.69V88.5253C22.69 89.0653 22.8367 89.4753 23.13 89.7553C23.43 90.0353 23.8667 90.1753 24.44 90.1753C25.0133 90.1753 25.4467 90.0353 25.74 89.7553C26.04 89.4753 26.19 89.0653 26.19 88.5253V83.7353H27.12ZM32.2548 86.4953L31.7848 87.0753C31.4848 86.842 31.2214 86.6853 30.9948 86.6053C30.7748 86.5187 30.5214 86.4753 30.2348 86.4753C29.9081 86.4753 29.6448 86.5453 29.4448 86.6853C29.2514 86.8187 29.1548 86.992 29.1548 87.2053C29.1814 87.412 29.2681 87.5553 29.4148 87.6353C29.5614 87.7087 29.9148 87.8087 30.4748 87.9353C31.1548 88.0953 31.6348 88.2853 31.9148 88.5053C32.1948 88.7187 32.3348 89.032 32.3348 89.4453C32.3348 89.9053 32.1548 90.2753 31.7948 90.5553C31.4348 90.8353 30.9581 90.9753 30.3648 90.9753C29.9181 90.9753 29.5214 90.9087 29.1748 90.7753C28.8348 90.6353 28.4748 90.3953 28.0948 90.0553L28.6048 89.4953C28.9648 89.7953 29.2714 89.9987 29.5248 90.1053C29.7781 90.212 30.0614 90.2653 30.3748 90.2653C30.7014 90.2653 30.9681 90.1953 31.1748 90.0553C31.3881 89.9153 31.4948 89.7253 31.4948 89.4853C31.4948 89.252 31.3948 89.0787 31.1948 88.9653C30.9948 88.852 30.6348 88.7387 30.1148 88.6253C29.4148 88.4653 28.9448 88.2987 28.7048 88.1253C28.4648 87.9453 28.3381 87.6487 28.3248 87.2353C28.3248 86.802 28.5014 86.452 28.8548 86.1853C29.2081 85.912 29.6681 85.7753 30.2348 85.7753C30.6414 85.7753 30.9981 85.832 31.3048 85.9453C31.6114 86.052 31.9281 86.2353 32.2548 86.4953ZM37.1295 89.4353L37.6395 89.9553C37.2861 90.3287 36.9461 90.592 36.6195 90.7453C36.2928 90.8987 35.9195 90.9753 35.4995 90.9753C34.7595 90.9753 34.1661 90.742 33.7195 90.2753C33.2795 89.802 33.0595 89.1787 33.0595 88.4053C33.0595 87.632 33.2728 87.002 33.6995 86.5153C34.1328 86.022 34.7028 85.7753 35.4095 85.7753C36.1095 85.7753 36.6528 85.9853 37.0395 86.4053C37.4328 86.8253 37.6295 87.4053 37.6295 88.1453C37.6295 88.2387 37.6228 88.3653 37.6095 88.5253H33.9195C33.9461 89.0453 34.0961 89.4653 34.3695 89.7853C34.6428 90.0987 35.0228 90.2553 35.5095 90.2553C35.8161 90.2553 36.0795 90.1953 36.2995 90.0753C36.5195 89.962 36.7961 89.7487 37.1295 89.4353ZM33.9395 87.8853H36.7795C36.7595 87.4453 36.6261 87.0987 36.3795 86.8453C36.1395 86.592 35.8128 86.4653 35.3995 86.4653C34.9995 86.4653 34.6728 86.5887 34.4195 86.8353C34.1661 87.082 34.0061 87.432 33.9395 87.8853ZM41.5113 86.0053L41.3513 86.7253C41.1246 86.6587 40.9113 86.6253 40.7113 86.6253C40.3646 86.6253 40.0846 86.7687 39.8713 87.0553C39.6646 87.3353 39.5613 87.7153 39.5613 88.1953V90.8353H38.7013V85.9153H39.5113V86.6553C39.7713 86.122 40.1779 85.8553 40.7313 85.8553C40.9846 85.8553 41.2446 85.9053 41.5113 86.0053ZM46.3109 84.0353H46.9809V90.8353H46.1009V85.1553L44.6609 86.1753L44.2209 85.5653L46.3109 84.0353Z" fill="#8B8B8B"/>
<path d="M27.12 123.484V128.324C27.12 129.111 26.8933 129.711 26.44 130.124C25.9867 130.531 25.32 130.734 24.44 130.734C23.5667 130.734 22.9033 130.531 22.45 130.124C21.9967 129.711 21.77 129.111 21.77 128.324V123.484H22.69V128.274C22.69 128.814 22.8367 129.224 23.13 129.504C23.43 129.784 23.8667 129.924 24.44 129.924C25.0133 129.924 25.4467 129.784 25.74 129.504C26.04 129.224 26.19 128.814 26.19 128.274V123.484H27.12ZM32.2548 126.244L31.7848 126.824C31.4848 126.591 31.2214 126.434 30.9948 126.354C30.7748 126.267 30.5214 126.224 30.2348 126.224C29.9081 126.224 29.6448 126.294 29.4448 126.434C29.2514 126.567 29.1548 126.741 29.1548 126.954C29.1814 127.161 29.2681 127.304 29.4148 127.384C29.5614 127.457 29.9148 127.557 30.4748 127.684C31.1548 127.844 31.6348 128.034 31.9148 128.254C32.1948 128.467 32.3348 128.781 32.3348 129.194C32.3348 129.654 32.1548 130.024 31.7948 130.304C31.4348 130.584 30.9581 130.724 30.3648 130.724C29.9181 130.724 29.5214 130.657 29.1748 130.524C28.8348 130.384 28.4748 130.144 28.0948 129.804L28.6048 129.244C28.9648 129.544 29.2714 129.747 29.5248 129.854C29.7781 129.961 30.0614 130.014 30.3748 130.014C30.7014 130.014 30.9681 129.944 31.1748 129.804C31.3881 129.664 31.4948 129.474 31.4948 129.234C31.4948 129.001 31.3948 128.827 31.1948 128.714C30.9948 128.601 30.6348 128.487 30.1148 128.374C29.4148 128.214 28.9448 128.047 28.7048 127.874C28.4648 127.694 28.3381 127.397 28.3248 126.984C28.3248 126.551 28.5014 126.201 28.8548 125.934C29.2081 125.661 29.6681 125.524 30.2348 125.524C30.6414 125.524 30.9981 125.581 31.3048 125.694C31.6114 125.801 31.9281 125.984 32.2548 126.244ZM37.1295 129.184L37.6395 129.704C37.2861 130.077 36.9461 130.341 36.6195 130.494C36.2928 130.647 35.9195 130.724 35.4995 130.724C34.7595 130.724 34.1661 130.491 33.7195 130.024C33.2795 129.551 33.0595 128.927 33.0595 128.154C33.0595 127.381 33.2728 126.751 33.6995 126.264C34.1328 125.771 34.7028 125.524 35.4095 125.524C36.1095 125.524 36.6528 125.734 37.0395 126.154C37.4328 126.574 37.6295 127.154 37.6295 127.894C37.6295 127.987 37.6228 128.114 37.6095 128.274H33.9195C33.9461 128.794 34.0961 129.214 34.3695 129.534C34.6428 129.847 35.0228 130.004 35.5095 130.004C35.8161 130.004 36.0795 129.944 36.2995 129.824C36.5195 129.711 36.7961 129.497 37.1295 129.184ZM33.9395 127.634H36.7795C36.7595 127.194 36.6261 126.847 36.3795 126.594C36.1395 126.341 35.8128 126.214 35.3995 126.214C34.9995 126.214 34.6728 126.337 34.4195 126.584C34.1661 126.831 34.0061 127.181 33.9395 127.634ZM41.5113 125.754L41.3513 126.474C41.1246 126.407 40.9113 126.374 40.7113 126.374C40.3646 126.374 40.0846 126.517 39.8713 126.804C39.6646 127.084 39.5613 127.464 39.5613 127.944V130.584H38.7013V125.664H39.5113V126.404C39.7713 125.871 40.1779 125.604 40.7313 125.604C40.9846 125.604 41.2446 125.654 41.5113 125.754ZM45.1909 129.834H49.1509V130.584H44.2909V130.254C44.2909 129.794 44.3775 129.397 44.5509 129.064C44.7309 128.731 44.9509 128.461 45.2109 128.254C45.5309 128.007 45.9042 127.754 46.3309 127.494L46.8309 127.204C47.1775 127.004 47.4342 126.847 47.6009 126.734C48.0275 126.421 48.2409 126.034 48.2409 125.574C48.2409 125.201 48.1175 124.911 47.8709 124.704C47.6242 124.491 47.3075 124.384 46.9209 124.384C46.5342 124.384 46.1975 124.477 45.9109 124.664C45.6175 124.857 45.2975 125.171 44.9509 125.604L44.3009 125.144C45.0009 124.131 45.8675 123.624 46.9009 123.624C47.5675 123.624 48.1042 123.807 48.5109 124.174C48.9242 124.534 49.1309 124.991 49.1309 125.544C49.1309 125.931 49.0509 126.261 48.8909 126.534C48.7375 126.801 48.5375 127.024 48.2909 127.204C48.0775 127.371 47.7542 127.581 47.3209 127.834L46.8509 128.114L46.6609 128.224C46.3409 128.417 46.0842 128.584 45.8909 128.724C45.4842 129.024 45.2509 129.394 45.1909 129.834Z" fill="#8B8B8B"/>
<rect x="179.119" y="117.158" width="67.2372" height="22.8815" rx="3.75" fill="#0F0F11" stroke="#7764FF" stroke-width="0.5"/>
<rect x="97.3723" y="77.159" width="67.7372" height="23.3815" rx="4" fill="#18181A"/>
<rect x="97.3723" y="116.908" width="67.7372" height="23.3815" rx="4" fill="#18181A"/>
<path d="M235.493 128.704L233.435 130.936L232.847 130.299L235.493 127.429L238.139 130.299L237.551 130.936L235.493 128.704Z" fill="#74767C"/>
<path d="M153.996 129.661L156.054 127.429L156.642 128.067L153.996 130.937L151.35 128.067L151.938 127.429L153.996 129.661Z" fill="#74767C"/>
<path d="M193.621 124.194H194.44L192.901 130.584H191.884L191.101 127.65C190.837 126.654 190.639 125.859 190.507 125.265C190.387 125.847 190.192 126.645 189.922 127.659L189.13 130.584H188.104L186.556 124.194H187.402L188.131 127.272C188.287 127.956 188.461 128.775 188.653 129.729C188.905 128.691 189.112 127.872 189.274 127.272L190.111 124.194H190.948L191.767 127.272C192.019 128.256 192.22 129.075 192.37 129.729C192.532 128.901 192.709 128.082 192.901 127.272L193.621 124.194ZM199.043 127.551V130.584H198.269V127.794C198.269 127.434 198.182 127.161 198.008 126.975C197.834 126.783 197.582 126.687 197.252 126.687C196.934 126.687 196.664 126.798 196.442 127.02C196.22 127.236 196.109 127.509 196.109 127.839V130.584H195.335V124.194H196.109V126.66C196.415 126.24 196.865 126.03 197.459 126.03C197.957 126.03 198.344 126.171 198.62 126.453C198.902 126.735 199.043 127.101 199.043 127.551ZM201.014 126.156V130.584H200.24V126.156H201.014ZM201.014 124.356V125.283H200.24V124.356H201.014ZM204.539 129.9L204.656 130.512C204.368 130.614 204.065 130.665 203.747 130.665C203.345 130.665 203.054 130.575 202.874 130.395C202.694 130.209 202.604 129.93 202.604 129.558V126.741H201.776V126.156H202.604V124.671H203.378V126.156H204.575V126.741H203.378V129.468C203.378 129.666 203.417 129.807 203.495 129.891C203.579 129.969 203.714 130.008 203.9 130.008C204.068 130.008 204.281 129.972 204.539 129.9ZM208.678 129.324L209.137 129.792C208.819 130.128 208.513 130.365 208.219 130.503C207.925 130.641 207.589 130.71 207.211 130.71C206.545 130.71 206.011 130.5 205.609 130.08C205.213 129.654 205.015 129.093 205.015 128.397C205.015 127.701 205.207 127.134 205.591 126.696C205.981 126.252 206.494 126.03 207.13 126.03C207.76 126.03 208.249 126.219 208.597 126.597C208.951 126.975 209.128 127.497 209.128 128.163C209.128 128.247 209.122 128.361 209.11 128.505H205.789C205.813 128.973 205.948 129.351 206.194 129.639C206.44 129.921 206.782 130.062 207.22 130.062C207.496 130.062 207.733 130.008 207.931 129.9C208.129 129.798 208.378 129.606 208.678 129.324ZM205.807 127.929H208.363C208.345 127.533 208.225 127.221 208.003 126.993C207.787 126.765 207.493 126.651 207.121 126.651C206.761 126.651 206.467 126.762 206.239 126.984C206.011 127.206 205.867 127.521 205.807 127.929ZM210.893 124.194V130.584H210.119V124.194H210.893ZM212.897 126.156V130.584H212.123V126.156H212.897ZM212.897 124.356V125.283H212.123V124.356H212.897ZM217.43 126.678L217.007 127.2C216.737 126.99 216.5 126.849 216.296 126.777C216.098 126.699 215.87 126.66 215.612 126.66C215.318 126.66 215.081 126.723 214.901 126.849C214.727 126.969 214.64 127.125 214.64 127.317C214.664 127.503 214.742 127.632 214.874 127.704C215.006 127.77 215.324 127.86 215.828 127.974C216.44 128.118 216.872 128.289 217.124 128.487C217.376 128.679 217.502 128.961 217.502 129.333C217.502 129.747 217.34 130.08 217.016 130.332C216.692 130.584 216.263 130.71 215.729 130.71C215.327 130.71 214.97 130.65 214.658 130.53C214.352 130.404 214.028 130.188 213.686 129.882L214.145 129.378C214.469 129.648 214.745 129.831 214.973 129.927C215.201 130.023 215.456 130.071 215.738 130.071C216.032 130.071 216.272 130.008 216.458 129.882C216.65 129.756 216.746 129.585 216.746 129.369C216.746 129.159 216.656 129.003 216.476 128.901C216.296 128.799 215.972 128.697 215.504 128.595C214.874 128.451 214.451 128.301 214.235 128.145C214.019 127.983 213.905 127.716 213.893 127.344C213.893 126.954 214.052 126.639 214.37 126.399C214.688 126.153 215.102 126.03 215.612 126.03C215.978 126.03 216.299 126.081 216.575 126.183C216.851 126.279 217.136 126.444 217.43 126.678ZM220.694 129.9L220.811 130.512C220.523 130.614 220.22 130.665 219.902 130.665C219.5 130.665 219.209 130.575 219.029 130.395C218.849 130.209 218.759 129.93 218.759 129.558V126.741H217.931V126.156H218.759V124.671H219.533V126.156H220.73V126.741H219.533V129.468C219.533 129.666 219.572 129.807 219.65 129.891C219.734 129.969 219.869 130.008 220.055 130.008C220.223 130.008 220.436 129.972 220.694 129.9Z" fill="#7764FF"/>
<rect x="138.9" y="39.9986" width="107.456" height="68.4755" rx="3.75" fill="#0F0F11" stroke="#7764FF" stroke-width="0.5"/>
<rect x="142.883" y="81.8353" width="99.4891" height="22.2124" rx="2" fill="#7764FF"/>
<path d="M151.433 51.948V51.246H154.25V54.594H153.602L153.539 53.784C153.143 54.414 152.48 54.729 151.55 54.729C150.62 54.729 149.888 54.423 149.354 53.811C148.82 53.199 148.553 52.395 148.553 51.399C148.553 50.415 148.832 49.614 149.39 48.996C149.948 48.378 150.701 48.069 151.649 48.069C152.159 48.069 152.621 48.168 153.035 48.366C153.449 48.558 153.857 48.864 154.259 49.284L153.728 49.824C153.35 49.446 153.008 49.182 152.702 49.032C152.39 48.876 152.033 48.798 151.631 48.798C150.965 48.798 150.425 49.038 150.011 49.518C149.597 49.998 149.39 50.625 149.39 51.399C149.39 52.191 149.588 52.824 149.984 53.298C150.386 53.772 150.923 54.009 151.595 54.009C152.159 54.009 152.615 53.847 152.963 53.523C153.311 53.199 153.485 52.758 153.485 52.2V51.948H151.433ZM158.302 50.166H159.076V54.594H158.356V54.045C158.086 54.495 157.639 54.72 157.015 54.72C156.493 54.72 156.1 54.591 155.836 54.333C155.572 54.075 155.44 53.721 155.44 53.271V50.166H156.214V53.082C156.214 53.73 156.523 54.054 157.141 54.054C157.489 54.054 157.768 53.949 157.978 53.739C158.194 53.529 158.302 53.238 158.302 52.866V50.166ZM163.874 51.516V54.594H163.172V54.045C162.86 54.507 162.359 54.738 161.669 54.738C161.183 54.738 160.796 54.633 160.508 54.423C160.226 54.213 160.085 53.904 160.085 53.496C160.085 53.022 160.262 52.677 160.616 52.461C160.982 52.239 161.492 52.071 162.146 51.957L163.136 51.777V51.552C163.136 51.282 163.04 51.069 162.848 50.913C162.662 50.757 162.413 50.679 162.101 50.679C161.831 50.679 161.588 50.736 161.372 50.85C161.162 50.958 160.919 51.15 160.643 51.426L160.148 50.985C160.682 50.355 161.324 50.04 162.074 50.04C162.638 50.04 163.079 50.175 163.397 50.445C163.715 50.709 163.874 51.066 163.874 51.516ZM163.136 52.938V52.353L162.326 52.515C161.774 52.629 161.393 52.746 161.183 52.866C160.979 52.986 160.865 53.187 160.841 53.469C160.841 53.673 160.919 53.829 161.075 53.937C161.237 54.045 161.462 54.099 161.75 54.099C162.152 54.099 162.482 53.994 162.74 53.784C163.004 53.568 163.136 53.286 163.136 52.938ZM167.602 50.247L167.458 50.895C167.254 50.835 167.062 50.805 166.882 50.805C166.57 50.805 166.318 50.934 166.126 51.192C165.94 51.444 165.847 51.786 165.847 52.218V54.594H165.073V50.166H165.802V50.832C166.036 50.352 166.402 50.112 166.9 50.112C167.128 50.112 167.362 50.157 167.602 50.247ZM171.784 51.516V54.594H171.082V54.045C170.77 54.507 170.269 54.738 169.579 54.738C169.093 54.738 168.706 54.633 168.418 54.423C168.136 54.213 167.995 53.904 167.995 53.496C167.995 53.022 168.172 52.677 168.526 52.461C168.892 52.239 169.402 52.071 170.056 51.957L171.046 51.777V51.552C171.046 51.282 170.95 51.069 170.758 50.913C170.572 50.757 170.323 50.679 170.011 50.679C169.741 50.679 169.498 50.736 169.282 50.85C169.072 50.958 168.829 51.15 168.553 51.426L168.058 50.985C168.592 50.355 169.234 50.04 169.984 50.04C170.548 50.04 170.989 50.175 171.307 50.445C171.625 50.709 171.784 51.066 171.784 51.516ZM171.046 52.938V52.353L170.236 52.515C169.684 52.629 169.303 52.746 169.093 52.866C168.889 52.986 168.775 53.187 168.751 53.469C168.751 53.673 168.829 53.829 168.985 53.937C169.147 54.045 169.372 54.099 169.66 54.099C170.062 54.099 170.392 53.994 170.65 53.784C170.914 53.568 171.046 53.286 171.046 52.938ZM176.691 51.561V54.594H175.917V51.804C175.917 51.444 175.83 51.171 175.656 50.985C175.482 50.793 175.23 50.697 174.9 50.697C174.582 50.697 174.312 50.808 174.09 51.03C173.868 51.246 173.757 51.519 173.757 51.849V54.594H172.983V50.166H173.712V50.733C174 50.271 174.465 50.04 175.107 50.04C175.611 50.04 176.001 50.181 176.277 50.463C176.553 50.745 176.691 51.111 176.691 51.561ZM180.104 53.91L180.221 54.522C179.933 54.624 179.63 54.675 179.312 54.675C178.91 54.675 178.619 54.585 178.439 54.405C178.259 54.219 178.169 53.94 178.169 53.568V50.751H177.341V50.166H178.169V48.681H178.943V50.166H180.14V50.751H178.943V53.478C178.943 53.676 178.982 53.817 179.06 53.901C179.144 53.979 179.279 54.018 179.465 54.018C179.633 54.018 179.846 53.982 180.104 53.91ZM184.243 53.334L184.702 53.802C184.384 54.138 184.078 54.375 183.784 54.513C183.49 54.651 183.154 54.72 182.776 54.72C182.11 54.72 181.576 54.51 181.174 54.09C180.778 53.664 180.58 53.103 180.58 52.407C180.58 51.711 180.772 51.144 181.156 50.706C181.546 50.262 182.059 50.04 182.695 50.04C183.325 50.04 183.814 50.229 184.162 50.607C184.516 50.985 184.693 51.507 184.693 52.173C184.693 52.257 184.687 52.371 184.675 52.515H181.354C181.378 52.983 181.513 53.361 181.759 53.649C182.005 53.931 182.347 54.072 182.785 54.072C183.061 54.072 183.298 54.018 183.496 53.91C183.694 53.808 183.943 53.616 184.243 53.334ZM181.372 51.939H183.928C183.91 51.543 183.79 51.231 183.568 51.003C183.352 50.775 183.058 50.661 182.686 50.661C182.326 50.661 182.032 50.772 181.804 50.994C181.576 51.216 181.432 51.531 181.372 51.939ZM189.05 53.334L189.509 53.802C189.191 54.138 188.885 54.375 188.591 54.513C188.297 54.651 187.961 54.72 187.583 54.72C186.917 54.72 186.383 54.51 185.981 54.09C185.585 53.664 185.387 53.103 185.387 52.407C185.387 51.711 185.579 51.144 185.963 50.706C186.353 50.262 186.866 50.04 187.502 50.04C188.132 50.04 188.621 50.229 188.969 50.607C189.323 50.985 189.5 51.507 189.5 52.173C189.5 52.257 189.494 52.371 189.482 52.515H186.161C186.185 52.983 186.32 53.361 186.566 53.649C186.812 53.931 187.154 54.072 187.592 54.072C187.868 54.072 188.105 54.018 188.303 53.91C188.501 53.808 188.75 53.616 189.05 53.334ZM186.179 51.939H188.735C188.717 51.543 188.597 51.231 188.375 51.003C188.159 50.775 187.865 50.661 187.493 50.661C187.133 50.661 186.839 50.772 186.611 50.994C186.383 51.216 186.239 51.531 186.179 51.939ZM193.633 48.204H194.407V54.594H193.678V53.91C193.348 54.444 192.844 54.711 192.166 54.711C191.596 54.711 191.128 54.495 190.762 54.063C190.396 53.631 190.213 53.07 190.213 52.38C190.213 51.69 190.399 51.129 190.771 50.697C191.143 50.265 191.614 50.049 192.184 50.049C192.826 50.049 193.309 50.286 193.633 50.76V48.204ZM193.282 53.604C193.534 53.298 193.66 52.89 193.66 52.38C193.66 51.87 193.534 51.465 193.282 51.165C193.03 50.865 192.697 50.715 192.283 50.715C191.899 50.715 191.59 50.868 191.356 51.174C191.122 51.48 191.005 51.882 191.005 52.38C191.005 52.884 191.119 53.289 191.347 53.595C191.581 53.901 191.893 54.054 192.283 54.054C192.697 54.054 193.03 53.904 193.282 53.604Z" fill="white"/>
<path d="M153.827 70.3391C153.827 70.8911 153.647 71.3291 153.287 71.6531C152.933 71.9711 152.459 72.1301 151.865 72.1301H148.913V65.7401H151.73C152.3 65.7401 152.753 65.8841 153.089 66.1721C153.431 66.4541 153.602 66.8501 153.602 67.3601C153.602 67.7021 153.512 67.9931 153.332 68.2331C153.158 68.4731 152.915 68.6471 152.603 68.7551C152.987 68.8691 153.287 69.0611 153.503 69.3311C153.719 69.6011 153.827 69.9371 153.827 70.3391ZM149.741 66.4061V68.4491H151.559C151.949 68.4491 152.252 68.3591 152.468 68.1791C152.684 67.9931 152.792 67.7351 152.792 67.4051C152.792 67.0811 152.684 66.8351 152.468 66.6671C152.258 66.4931 151.958 66.4061 151.568 66.4061H149.741ZM152.999 70.2941C152.999 69.9341 152.873 69.6491 152.621 69.4391C152.375 69.2231 152.036 69.1151 151.604 69.1151H149.741V71.4641H151.604C152.048 71.4641 152.39 71.3621 152.63 71.1581C152.876 70.9481 152.999 70.6601 152.999 70.2941ZM158.407 69.0521V72.1301H157.705V71.5811C157.393 72.0431 156.892 72.2741 156.202 72.2741C155.716 72.2741 155.329 72.1691 155.041 71.9591C154.759 71.7491 154.618 71.4401 154.618 71.0321C154.618 70.5581 154.795 70.2131 155.149 69.9971C155.515 69.7751 156.025 69.6071 156.679 69.4931L157.669 69.3131V69.0881C157.669 68.8181 157.573 68.6051 157.381 68.4491C157.195 68.2931 156.946 68.2151 156.634 68.2151C156.364 68.2151 156.121 68.2721 155.905 68.3861C155.695 68.4941 155.452 68.6861 155.176 68.9621L154.681 68.5211C155.215 67.8911 155.857 67.5761 156.607 67.5761C157.171 67.5761 157.612 67.7111 157.93 67.9811C158.248 68.2451 158.407 68.6021 158.407 69.0521ZM157.669 70.4741V69.8891L156.859 70.0511C156.307 70.1651 155.926 70.2821 155.716 70.4021C155.512 70.5221 155.398 70.7231 155.374 71.0051C155.374 71.2091 155.452 71.3651 155.608 71.4731C155.77 71.5811 155.995 71.6351 156.283 71.6351C156.685 71.6351 157.015 71.5301 157.273 71.3201C157.537 71.1041 157.669 70.8221 157.669 70.4741ZM163.314 69.0971V72.1301H162.54V69.3401C162.54 68.9801 162.453 68.7071 162.279 68.5211C162.105 68.3291 161.853 68.2331 161.523 68.2331C161.205 68.2331 160.935 68.3441 160.713 68.5661C160.491 68.7821 160.38 69.0551 160.38 69.3851V72.1301H159.606V67.7021H160.335V68.2691C160.623 67.8071 161.088 67.5761 161.73 67.5761C162.234 67.5761 162.624 67.7171 162.9 67.9991C163.176 68.2811 163.314 68.6471 163.314 69.0971Z" fill="white"/>
<path d="M155.519 89.1216H156.338L154.799 95.5116H153.782L152.999 92.5776C152.735 91.5816 152.537 90.7866 152.405 90.1926C152.285 90.7746 152.09 91.5726 151.82 92.5866L151.028 95.5116H150.002L148.454 89.1216H149.3L150.029 92.1996C150.185 92.8836 150.359 93.7026 150.551 94.6566C150.803 93.6186 151.01 92.7996 151.172 92.1996L152.009 89.1216H152.846L153.665 92.1996C153.917 93.1836 154.118 94.0026 154.268 94.6566C154.43 93.8286 154.607 93.0096 154.799 92.1996L155.519 89.1216ZM160.941 92.4786V95.5116H160.167V92.7216C160.167 92.3616 160.08 92.0886 159.906 91.9026C159.732 91.7106 159.48 91.6146 159.15 91.6146C158.832 91.6146 158.562 91.7256 158.34 91.9476C158.118 92.1636 158.007 92.4366 158.007 92.7666V95.5116H157.233V89.1216H158.007V91.5876C158.313 91.1676 158.763 90.9576 159.357 90.9576C159.855 90.9576 160.242 91.0986 160.518 91.3806C160.8 91.6626 160.941 92.0286 160.941 92.4786ZM162.912 91.0836V95.5116H162.138V91.0836H162.912ZM162.912 89.2836V90.2106H162.138V89.2836H162.912ZM166.437 94.8276L166.554 95.4396C166.266 95.5416 165.963 95.5926 165.645 95.5926C165.243 95.5926 164.952 95.5026 164.772 95.3226C164.592 95.1366 164.502 94.8576 164.502 94.4856V91.6686H163.674V91.0836H164.502V89.5986H165.276V91.0836H166.473V91.6686H165.276V94.3956C165.276 94.5936 165.315 94.7346 165.393 94.8186C165.477 94.8966 165.612 94.9356 165.798 94.9356C165.966 94.9356 166.179 94.8996 166.437 94.8276ZM170.576 94.2516L171.035 94.7196C170.717 95.0556 170.411 95.2926 170.117 95.4306C169.823 95.5686 169.487 95.6376 169.109 95.6376C168.443 95.6376 167.909 95.4276 167.507 95.0076C167.111 94.5816 166.913 94.0206 166.913 93.3246C166.913 92.6286 167.105 92.0616 167.489 91.6236C167.879 91.1796 168.392 90.9576 169.028 90.9576C169.658 90.9576 170.147 91.1466 170.495 91.5246C170.849 91.9026 171.026 92.4246 171.026 93.0906C171.026 93.1746 171.02 93.2886 171.008 93.4326H167.687C167.711 93.9006 167.846 94.2786 168.092 94.5666C168.338 94.8486 168.68 94.9896 169.118 94.9896C169.394 94.9896 169.631 94.9356 169.829 94.8276C170.027 94.7256 170.276 94.5336 170.576 94.2516ZM167.705 92.8566H170.261C170.243 92.4606 170.123 92.1486 169.901 91.9206C169.685 91.6926 169.391 91.5786 169.019 91.5786C168.659 91.5786 168.365 91.6896 168.137 91.9116C167.909 92.1336 167.765 92.4486 167.705 92.8566ZM172.791 89.1216V95.5116H172.017V89.1216H172.791ZM174.794 91.0836V95.5116H174.02V91.0836H174.794ZM174.794 89.2836V90.2106H174.02V89.2836H174.794ZM179.328 91.6056L178.905 92.1276C178.635 91.9176 178.398 91.7766 178.194 91.7046C177.996 91.6266 177.768 91.5876 177.51 91.5876C177.216 91.5876 176.979 91.6506 176.799 91.7766C176.625 91.8966 176.538 92.0526 176.538 92.2446C176.562 92.4306 176.64 92.5596 176.772 92.6316C176.904 92.6976 177.222 92.7876 177.726 92.9016C178.338 93.0456 178.77 93.2166 179.022 93.4146C179.274 93.6066 179.4 93.8886 179.4 94.2606C179.4 94.6746 179.238 95.0076 178.914 95.2596C178.59 95.5116 178.161 95.6376 177.627 95.6376C177.225 95.6376 176.868 95.5776 176.556 95.4576C176.25 95.3316 175.926 95.1156 175.584 94.8096L176.043 94.3056C176.367 94.5756 176.643 94.7586 176.871 94.8546C177.099 94.9506 177.354 94.9986 177.636 94.9986C177.93 94.9986 178.17 94.9356 178.356 94.8096C178.548 94.6836 178.644 94.5126 178.644 94.2966C178.644 94.0866 178.554 93.9306 178.374 93.8286C178.194 93.7266 177.87 93.6246 177.402 93.5226C176.772 93.3786 176.349 93.2286 176.133 93.0726C175.917 92.9106 175.803 92.6436 175.791 92.2716C175.791 91.8816 175.95 91.5666 176.268 91.3266C176.586 91.0806 177 90.9576 177.51 90.9576C177.876 90.9576 178.197 91.0086 178.473 91.1106C178.749 91.2066 179.034 91.3716 179.328 91.6056ZM182.592 94.8276L182.709 95.4396C182.421 95.5416 182.118 95.5926 181.8 95.5926C181.398 95.5926 181.107 95.5026 180.927 95.3226C180.747 95.1366 180.657 94.8576 180.657 94.4856V91.6686H179.829V91.0836H180.657V89.5986H181.431V91.0836H182.628V91.6686H181.431V94.3956C181.431 94.5936 181.47 94.7346 181.548 94.8186C181.632 94.8966 181.767 94.9356 181.953 94.9356C182.121 94.9356 182.334 94.8996 182.592 94.8276Z" fill="white"/>
<path d="M212.863 93.9138C212.554 93.0555 213.328 92.2076 214.103 92.5557L241.518 104.877C242.37 105.26 242.28 106.623 241.387 106.866L229.461 110.112C229.122 110.204 228.856 110.495 228.769 110.869L225.64 124.307C225.411 125.29 224.178 125.376 223.839 124.433L212.863 93.9138Z" fill="black" stroke="white"/>
</svg>
