<svg width="318" height="166" viewBox="0 0 318 166" fill="none" xmlns="http://www.w3.org/2000/svg">
<rect width="318" height="166" rx="16" fill="black"/>
<rect x="13.532" y="68" width="290.936" height="40.5957" rx="8" fill="#5039F7"/>
<path d="M144.026 94L143.162 91.444H137.6L136.718 94H134.18L138.752 81.22H142.064L146.636 94H144.026ZM138.32 89.356H142.442L141.938 87.88L141.632 86.98C141.056 85.348 140.636 84.076 140.372 83.164C140.144 83.944 139.682 85.348 138.986 87.376L138.806 87.916L138.32 89.356ZM155.868 85.882C156.636 86.77 157.02 87.94 157.02 89.392C157.02 90.844 156.636 92.02 155.868 92.92C155.1 93.808 154.122 94.252 152.934 94.252C151.722 94.252 150.804 93.85 150.18 93.046V97.24H147.84V84.802H150.018V86.008C150.678 85.024 151.656 84.532 152.952 84.532C154.14 84.532 155.112 84.982 155.868 85.882ZM154.032 91.462C154.44 90.946 154.644 90.256 154.644 89.392C154.644 88.528 154.44 87.838 154.032 87.322C153.636 86.806 153.096 86.548 152.412 86.548C151.728 86.548 151.17 86.812 150.738 87.34C150.306 87.856 150.09 88.54 150.09 89.392C150.09 90.256 150.3 90.946 150.72 91.462C151.152 91.966 151.71 92.218 152.394 92.218C153.078 92.218 153.624 91.966 154.032 91.462ZM166.644 85.882C167.412 86.77 167.796 87.94 167.796 89.392C167.796 90.844 167.412 92.02 166.644 92.92C165.876 93.808 164.898 94.252 163.71 94.252C162.498 94.252 161.58 93.85 160.956 93.046V97.24H158.616V84.802H160.794V86.008C161.454 85.024 162.432 84.532 163.728 84.532C164.916 84.532 165.888 84.982 166.644 85.882ZM164.808 91.462C165.216 90.946 165.42 90.256 165.42 89.392C165.42 88.528 165.216 87.838 164.808 87.322C164.412 86.806 163.872 86.548 163.188 86.548C162.504 86.548 161.946 86.812 161.514 87.34C161.082 87.856 160.866 88.54 160.866 89.392C160.866 90.256 161.076 90.946 161.496 91.462C161.928 91.966 162.486 92.218 163.17 92.218C163.854 92.218 164.4 91.966 164.808 91.462ZM171.767 81.22V94H169.427V81.22H171.767ZM179.652 84.802H182.028L178.482 95.026C178.17 95.914 177.768 96.55 177.276 96.934C176.796 97.318 176.136 97.51 175.296 97.51C174.624 97.51 174.036 97.432 173.532 97.276L173.928 95.53C174.3 95.602 174.66 95.638 175.008 95.638C175.728 95.638 176.214 95.254 176.466 94.486L173.01 84.802H175.458L176.268 87.214C176.928 89.182 177.366 90.562 177.582 91.354C178.302 89.002 178.728 87.616 178.86 87.196L179.652 84.802Z" fill="white"/>
<path d="M103.67 123.48V132H102.566V123.48H103.67ZM110.48 127.956V132H109.448V128.28C109.448 127.8 109.332 127.436 109.1 127.188C108.868 126.932 108.532 126.804 108.092 126.804C107.668 126.804 107.308 126.952 107.012 127.248C106.716 127.536 106.568 127.9 106.568 128.34V132H105.536V126.096H106.508V126.852C106.892 126.236 107.512 125.928 108.368 125.928C109.04 125.928 109.56 126.116 109.928 126.492C110.296 126.868 110.48 127.356 110.48 127.956ZM115.643 126.096H116.699L114.647 132H113.339L111.299 126.096H112.379L113.111 128.268C113.535 129.58 113.835 130.548 114.011 131.172C114.187 130.548 114.487 129.58 114.911 128.268L115.643 126.096ZM118.721 126.096V132H117.689V126.096H118.721ZM118.721 123.696V124.932H117.689V123.696H118.721ZM123.421 131.088L123.577 131.904C123.193 132.04 122.789 132.108 122.365 132.108C121.829 132.108 121.441 131.988 121.201 131.748C120.961 131.5 120.841 131.128 120.841 130.632V126.876H119.737V126.096H120.841V124.116H121.873V126.096H123.469V126.876H121.873V130.512C121.873 130.776 121.925 130.964 122.029 131.076C122.141 131.18 122.321 131.232 122.569 131.232C122.793 131.232 123.077 131.184 123.421 131.088ZM128.939 130.32L129.551 130.944C129.127 131.392 128.719 131.708 128.327 131.892C127.935 132.076 127.487 132.168 126.983 132.168C126.095 132.168 125.383 131.888 124.847 131.328C124.319 130.76 124.055 130.012 124.055 129.084C124.055 128.156 124.311 127.4 124.823 126.816C125.343 126.224 126.027 125.928 126.875 125.928C127.715 125.928 128.367 126.18 128.831 126.684C129.303 127.188 129.539 127.884 129.539 128.772C129.539 128.884 129.531 129.036 129.515 129.228H125.087C125.119 129.852 125.299 130.356 125.627 130.74C125.955 131.116 126.411 131.304 126.995 131.304C127.363 131.304 127.679 131.232 127.943 131.088C128.207 130.952 128.539 130.696 128.939 130.32ZM125.111 128.46H128.519C128.495 127.932 128.335 127.516 128.039 127.212C127.751 126.908 127.359 126.756 126.863 126.756C126.383 126.756 125.991 126.904 125.687 127.2C125.383 127.496 125.191 127.916 125.111 128.46ZM136.04 126.792C135.48 126.792 135.04 127.012 134.72 127.452C134.4 127.884 134.24 128.416 134.24 129.048C134.24 129.672 134.396 130.204 134.708 130.644C135.028 131.076 135.476 131.292 136.052 131.292C136.372 131.292 136.66 131.224 136.916 131.088C137.18 130.944 137.48 130.684 137.816 130.308L138.5 130.884C138.124 131.356 137.748 131.688 137.372 131.88C136.996 132.072 136.556 132.168 136.052 132.168C135.188 132.168 134.492 131.884 133.964 131.316C133.444 130.748 133.184 129.992 133.184 129.048C133.184 128.112 133.448 127.36 133.976 126.792C134.512 126.216 135.204 125.928 136.052 125.928C136.54 125.928 136.964 126.012 137.324 126.18C137.692 126.348 138.056 126.636 138.416 127.044L137.744 127.68C137.44 127.352 137.156 127.124 136.892 126.996C136.636 126.86 136.352 126.792 136.04 126.792ZM144.095 126.804C144.639 127.38 144.911 128.128 144.911 129.048C144.911 129.968 144.639 130.72 144.095 131.304C143.551 131.88 142.851 132.168 141.995 132.168C141.139 132.168 140.435 131.88 139.883 131.304C139.339 130.72 139.067 129.968 139.067 129.048C139.067 128.128 139.339 127.38 139.883 126.804C140.435 126.22 141.139 125.928 141.995 125.928C142.851 125.928 143.551 126.22 144.095 126.804ZM140.627 127.416C140.291 127.832 140.123 128.376 140.123 129.048C140.123 129.72 140.291 130.264 140.627 130.68C140.971 131.096 141.427 131.304 141.995 131.304C142.563 131.304 143.015 131.1 143.351 130.692C143.687 130.276 143.855 129.728 143.855 129.048C143.855 128.368 143.687 127.824 143.351 127.416C143.015 127 142.563 126.792 141.995 126.792C141.427 126.792 140.971 127 140.627 127.416ZM150.448 123.48H151.48V132H150.508V131.088C150.068 131.8 149.396 132.156 148.492 132.156C147.732 132.156 147.108 131.868 146.62 131.292C146.132 130.716 145.888 129.968 145.888 129.048C145.888 128.128 146.136 127.38 146.632 126.804C147.128 126.228 147.756 125.94 148.516 125.94C149.372 125.94 150.016 126.256 150.448 126.888V123.48ZM149.98 130.68C150.316 130.272 150.484 129.728 150.484 129.048C150.484 128.368 150.316 127.828 149.98 127.428C149.644 127.028 149.2 126.828 148.648 126.828C148.136 126.828 147.724 127.032 147.412 127.44C147.1 127.848 146.944 128.384 146.944 129.048C146.944 129.72 147.096 130.26 147.4 130.668C147.712 131.076 148.128 131.28 148.648 131.28C149.2 131.28 149.644 131.08 149.98 130.68ZM157.615 130.32L158.227 130.944C157.803 131.392 157.395 131.708 157.003 131.892C156.611 132.076 156.163 132.168 155.659 132.168C154.771 132.168 154.059 131.888 153.523 131.328C152.995 130.76 152.731 130.012 152.731 129.084C152.731 128.156 152.987 127.4 153.499 126.816C154.019 126.224 154.703 125.928 155.551 125.928C156.391 125.928 157.043 126.18 157.507 126.684C157.979 127.188 158.215 127.884 158.215 128.772C158.215 128.884 158.207 129.036 158.191 129.228H153.763C153.795 129.852 153.975 130.356 154.303 130.74C154.631 131.116 155.087 131.304 155.671 131.304C156.039 131.304 156.355 131.232 156.619 131.088C156.883 130.952 157.215 130.696 157.615 130.32ZM153.787 128.46H157.195C157.171 127.932 157.011 127.516 156.715 127.212C156.427 126.908 156.035 126.756 155.539 126.756C155.059 126.756 154.667 126.904 154.363 127.2C154.059 127.496 153.867 127.916 153.787 128.46ZM163.976 126.792L163.412 127.488C163.052 127.208 162.736 127.02 162.464 126.924C162.2 126.82 161.896 126.768 161.552 126.768C161.16 126.768 160.844 126.852 160.604 127.02C160.372 127.18 160.256 127.388 160.256 127.644C160.288 127.892 160.392 128.064 160.568 128.16C160.744 128.248 161.168 128.368 161.84 128.52C162.656 128.712 163.232 128.94 163.568 129.204C163.904 129.46 164.072 129.836 164.072 130.332C164.072 130.884 163.856 131.328 163.424 131.664C162.992 132 162.42 132.168 161.708 132.168C161.172 132.168 160.696 132.088 160.28 131.928C159.872 131.76 159.44 131.472 158.984 131.064L159.596 130.392C160.028 130.752 160.396 130.996 160.7 131.124C161.004 131.252 161.344 131.316 161.72 131.316C162.112 131.316 162.432 131.232 162.68 131.064C162.936 130.896 163.064 130.668 163.064 130.38C163.064 130.1 162.944 129.892 162.704 129.756C162.464 129.62 162.032 129.484 161.408 129.348C160.568 129.156 160.004 128.956 159.716 128.748C159.428 128.532 159.276 128.176 159.26 127.68C159.26 127.16 159.472 126.74 159.896 126.42C160.32 126.092 160.872 125.928 161.552 125.928C162.04 125.928 162.468 125.996 162.836 126.132C163.204 126.26 163.584 126.48 163.976 126.792ZM172.785 127.896V132H171.849V131.268C171.433 131.884 170.765 132.192 169.845 132.192C169.197 132.192 168.681 132.052 168.297 131.772C167.921 131.492 167.733 131.08 167.733 130.536C167.733 129.904 167.969 129.444 168.441 129.156C168.929 128.86 169.609 128.636 170.481 128.484L171.801 128.244V127.944C171.801 127.584 171.673 127.3 171.417 127.092C171.169 126.884 170.837 126.78 170.421 126.78C170.061 126.78 169.737 126.856 169.449 127.008C169.169 127.152 168.845 127.408 168.477 127.776L167.817 127.188C168.529 126.348 169.385 125.928 170.385 125.928C171.137 125.928 171.725 126.108 172.149 126.468C172.573 126.82 172.785 127.296 172.785 127.896ZM171.801 129.792V129.012L170.721 129.228C169.985 129.38 169.477 129.536 169.197 129.696C168.925 129.856 168.773 130.124 168.741 130.5C168.741 130.772 168.845 130.98 169.053 131.124C169.269 131.268 169.569 131.34 169.953 131.34C170.489 131.34 170.929 131.2 171.273 130.92C171.625 130.632 171.801 130.256 171.801 129.792ZM177.756 126.204L177.564 127.068C177.292 126.988 177.036 126.948 176.796 126.948C176.38 126.948 176.044 127.12 175.788 127.464C175.54 127.8 175.416 128.256 175.416 128.832V132H174.384V126.096H175.356V126.984C175.668 126.344 176.156 126.024 176.82 126.024C177.124 126.024 177.436 126.084 177.756 126.204ZM182.881 130.32L183.493 130.944C183.069 131.392 182.661 131.708 182.269 131.892C181.877 132.076 181.429 132.168 180.925 132.168C180.037 132.168 179.325 131.888 178.789 131.328C178.261 130.76 177.997 130.012 177.997 129.084C177.997 128.156 178.253 127.4 178.765 126.816C179.285 126.224 179.969 125.928 180.817 125.928C181.657 125.928 182.309 126.18 182.773 126.684C183.245 127.188 183.481 127.884 183.481 128.772C183.481 128.884 183.473 129.036 183.457 129.228H179.029C179.061 129.852 179.241 130.356 179.569 130.74C179.897 131.116 180.353 131.304 180.937 131.304C181.305 131.304 181.621 131.232 181.885 131.088C182.149 130.952 182.481 130.696 182.881 130.32ZM179.053 128.46H182.461C182.437 127.932 182.277 127.516 181.981 127.212C181.693 126.908 181.301 126.756 180.805 126.756C180.325 126.756 179.933 126.904 179.629 127.2C179.325 127.496 179.133 127.916 179.053 128.46ZM191.926 126.792L191.362 127.488C191.002 127.208 190.686 127.02 190.414 126.924C190.15 126.82 189.846 126.768 189.502 126.768C189.11 126.768 188.794 126.852 188.554 127.02C188.322 127.18 188.206 127.388 188.206 127.644C188.238 127.892 188.342 128.064 188.518 128.16C188.694 128.248 189.118 128.368 189.79 128.52C190.606 128.712 191.182 128.94 191.518 129.204C191.854 129.46 192.022 129.836 192.022 130.332C192.022 130.884 191.806 131.328 191.374 131.664C190.942 132 190.37 132.168 189.658 132.168C189.122 132.168 188.646 132.088 188.23 131.928C187.822 131.76 187.39 131.472 186.934 131.064L187.546 130.392C187.978 130.752 188.346 130.996 188.65 131.124C188.954 131.252 189.294 131.316 189.67 131.316C190.062 131.316 190.382 131.232 190.63 131.064C190.886 130.896 191.014 130.668 191.014 130.38C191.014 130.1 190.894 129.892 190.654 129.756C190.414 129.62 189.982 129.484 189.358 129.348C188.518 129.156 187.954 128.956 187.666 128.748C187.378 128.532 187.226 128.176 187.21 127.68C187.21 127.16 187.422 126.74 187.846 126.42C188.27 126.092 188.822 125.928 189.502 125.928C189.99 125.928 190.418 125.996 190.786 126.132C191.154 126.26 191.534 126.48 191.926 126.792ZM194.26 126.096V132H193.228V126.096H194.26ZM194.26 123.696V124.932H193.228V123.696H194.26ZM200.809 127.956V132H199.777V128.28C199.777 127.8 199.661 127.436 199.429 127.188C199.197 126.932 198.861 126.804 198.421 126.804C197.997 126.804 197.637 126.952 197.341 127.248C197.045 127.536 196.897 127.9 196.897 128.34V132H195.865V126.096H196.837V126.852C197.221 126.236 197.841 125.928 198.697 125.928C199.369 125.928 199.889 126.116 200.257 126.492C200.625 126.868 200.809 127.356 200.809 127.956ZM206.616 126.096H207.576V131.868C207.576 132.628 207.336 133.224 206.856 133.656C206.376 134.096 205.724 134.316 204.9 134.316C203.94 134.316 203.048 134.024 202.224 133.44L202.74 132.684C203.172 132.956 203.548 133.148 203.868 133.26C204.188 133.38 204.528 133.44 204.888 133.44C205.408 133.44 205.816 133.3 206.112 133.02C206.408 132.748 206.556 132.336 206.556 131.784V130.98C206.14 131.612 205.512 131.928 204.672 131.928C203.92 131.928 203.3 131.648 202.812 131.088C202.324 130.52 202.08 129.8 202.08 128.928C202.08 128.056 202.324 127.34 202.812 126.78C203.3 126.212 203.92 125.928 204.672 125.928C205.552 125.928 206.2 126.276 206.616 126.972V126.096ZM206.1 130.464C206.42 130.064 206.58 129.552 206.58 128.928C206.58 128.304 206.42 127.796 206.1 127.404C205.78 127.004 205.36 126.804 204.84 126.804C204.32 126.804 203.904 127 203.592 127.392C203.288 127.776 203.136 128.288 203.136 128.928C203.136 129.568 203.288 130.084 203.592 130.476C203.904 130.86 204.32 131.052 204.84 131.052C205.36 131.052 205.78 130.856 206.1 130.464ZM210.257 123.48V132H209.225V123.48H210.257ZM216.42 130.32L217.032 130.944C216.608 131.392 216.2 131.708 215.808 131.892C215.416 132.076 214.968 132.168 214.464 132.168C213.576 132.168 212.864 131.888 212.328 131.328C211.8 130.76 211.536 130.012 211.536 129.084C211.536 128.156 211.792 127.4 212.304 126.816C212.824 126.224 213.508 125.928 214.356 125.928C215.196 125.928 215.848 126.18 216.312 126.684C216.784 127.188 217.02 127.884 217.02 128.772C217.02 128.884 217.012 129.036 216.996 129.228H212.568C212.6 129.852 212.78 130.356 213.108 130.74C213.436 131.116 213.892 131.304 214.476 131.304C214.844 131.304 215.16 131.232 215.424 131.088C215.688 130.952 216.02 130.696 216.42 130.32ZM212.592 128.46H216C215.976 127.932 215.816 127.516 215.52 127.212C215.232 126.908 214.84 126.756 214.344 126.756C213.864 126.756 213.472 126.904 213.168 127.2C212.864 127.496 212.672 127.916 212.592 128.46ZM139.657 140.096H140.689V146H139.729V145.268C139.369 145.868 138.773 146.168 137.941 146.168C137.245 146.168 136.721 145.996 136.369 145.652C136.017 145.308 135.841 144.836 135.841 144.236V140.096H136.873V143.984C136.873 144.848 137.285 145.28 138.109 145.28C138.573 145.28 138.945 145.14 139.225 144.86C139.513 144.58 139.657 144.192 139.657 143.696V140.096ZM146.738 140.792L146.174 141.488C145.814 141.208 145.498 141.02 145.226 140.924C144.962 140.82 144.658 140.768 144.314 140.768C143.922 140.768 143.606 140.852 143.366 141.02C143.134 141.18 143.018 141.388 143.018 141.644C143.05 141.892 143.154 142.064 143.33 142.16C143.506 142.248 143.93 142.368 144.602 142.52C145.418 142.712 145.994 142.94 146.33 143.204C146.666 143.46 146.834 143.836 146.834 144.332C146.834 144.884 146.618 145.328 146.186 145.664C145.754 146 145.182 146.168 144.47 146.168C143.934 146.168 143.458 146.088 143.042 145.928C142.634 145.76 142.202 145.472 141.746 145.064L142.358 144.392C142.79 144.752 143.158 144.996 143.462 145.124C143.766 145.252 144.106 145.316 144.482 145.316C144.874 145.316 145.194 145.232 145.442 145.064C145.698 144.896 145.826 144.668 145.826 144.38C145.826 144.1 145.706 143.892 145.466 143.756C145.226 143.62 144.794 143.484 144.17 143.348C143.33 143.156 142.766 142.956 142.478 142.748C142.19 142.532 142.038 142.176 142.022 141.68C142.022 141.16 142.234 140.74 142.658 140.42C143.082 140.092 143.634 139.928 144.314 139.928C144.802 139.928 145.23 139.996 145.598 140.132C145.966 140.26 146.346 140.48 146.738 140.792ZM152.588 144.32L153.2 144.944C152.776 145.392 152.368 145.708 151.976 145.892C151.584 146.076 151.136 146.168 150.632 146.168C149.744 146.168 149.032 145.888 148.496 145.328C147.968 144.76 147.704 144.012 147.704 143.084C147.704 142.156 147.96 141.4 148.472 140.816C148.992 140.224 149.676 139.928 150.524 139.928C151.364 139.928 152.016 140.18 152.48 140.684C152.952 141.188 153.188 141.884 153.188 142.772C153.188 142.884 153.18 143.036 153.164 143.228H148.736C148.768 143.852 148.948 144.356 149.276 144.74C149.604 145.116 150.06 145.304 150.644 145.304C151.012 145.304 151.328 145.232 151.592 145.088C151.856 144.952 152.188 144.696 152.588 144.32ZM148.76 142.46H152.168C152.144 141.932 151.984 141.516 151.688 141.212C151.4 140.908 151.008 140.756 150.512 140.756C150.032 140.756 149.64 140.904 149.336 141.2C149.032 141.496 148.84 141.916 148.76 142.46ZM158.949 140.792L158.385 141.488C158.025 141.208 157.709 141.02 157.437 140.924C157.173 140.82 156.869 140.768 156.525 140.768C156.133 140.768 155.817 140.852 155.577 141.02C155.345 141.18 155.229 141.388 155.229 141.644C155.261 141.892 155.365 142.064 155.541 142.16C155.717 142.248 156.141 142.368 156.813 142.52C157.629 142.712 158.205 142.94 158.541 143.204C158.877 143.46 159.045 143.836 159.045 144.332C159.045 144.884 158.829 145.328 158.397 145.664C157.965 146 157.393 146.168 156.681 146.168C156.145 146.168 155.669 146.088 155.253 145.928C154.845 145.76 154.413 145.472 153.957 145.064L154.569 144.392C155.001 144.752 155.369 144.996 155.673 145.124C155.977 145.252 156.317 145.316 156.693 145.316C157.085 145.316 157.405 145.232 157.653 145.064C157.909 144.896 158.037 144.668 158.037 144.38C158.037 144.1 157.917 143.892 157.677 143.756C157.437 143.62 157.005 143.484 156.381 143.348C155.541 143.156 154.977 142.956 154.689 142.748C154.401 142.532 154.249 142.176 154.233 141.68C154.233 141.16 154.445 140.74 154.869 140.42C155.293 140.092 155.845 139.928 156.525 139.928C157.013 139.928 157.441 139.996 157.809 140.132C158.177 140.26 158.557 140.48 158.949 140.792ZM167.638 140.804C168.182 141.38 168.454 142.128 168.454 143.048C168.454 143.968 168.182 144.72 167.638 145.304C167.094 145.88 166.394 146.168 165.538 146.168C164.682 146.168 163.978 145.88 163.426 145.304C162.882 144.72 162.61 143.968 162.61 143.048C162.61 142.128 162.882 141.38 163.426 140.804C163.978 140.22 164.682 139.928 165.538 139.928C166.394 139.928 167.094 140.22 167.638 140.804ZM164.17 141.416C163.834 141.832 163.666 142.376 163.666 143.048C163.666 143.72 163.834 144.264 164.17 144.68C164.514 145.096 164.97 145.304 165.538 145.304C166.106 145.304 166.558 145.1 166.894 144.692C167.23 144.276 167.398 143.728 167.398 143.048C167.398 142.368 167.23 141.824 166.894 141.416C166.558 141 166.106 140.792 165.538 140.792C164.97 140.792 164.514 141 164.17 141.416ZM174.641 141.956V146H173.609V142.28C173.609 141.8 173.493 141.436 173.261 141.188C173.029 140.932 172.693 140.804 172.253 140.804C171.829 140.804 171.469 140.952 171.173 141.248C170.877 141.536 170.729 141.9 170.729 142.34V146H169.697V140.096H170.669V140.852C171.053 140.236 171.673 139.928 172.529 139.928C173.201 139.928 173.721 140.116 174.089 140.492C174.457 140.868 174.641 141.356 174.641 141.956ZM177.304 137.48V146H176.272V137.48H177.304ZM182.687 140.096H183.731L181.367 146.816C181.167 147.376 180.943 147.764 180.695 147.98C180.447 148.204 180.079 148.316 179.591 148.316C179.247 148.316 178.943 148.276 178.679 148.196L178.859 147.404C179.075 147.452 179.287 147.476 179.495 147.476C179.743 147.476 179.939 147.408 180.083 147.272C180.235 147.136 180.371 146.892 180.491 146.54L180.563 146.312L178.343 140.096H179.435L180.095 142.052C180.271 142.564 180.563 143.436 180.971 144.668L181.067 144.968L181.427 143.876L182.027 142.028L182.687 140.096Z" fill="#5A5A5A"/>
<rect x="14.032" y="16.1755" width="289.936" height="39.5957" rx="7.5" fill="#101010" stroke="#5039F7"/>
<path d="M38.4718 38.186C38.4718 39.156 38.1318 39.996 37.4518 40.706C36.7718 41.406 35.9018 41.756 34.8418 41.756C34.1218 41.756 33.4768 41.656 32.9068 41.456C32.4068 41.276 31.7668 40.926 30.9868 40.406L31.6468 39.431C32.3568 39.901 32.9068 40.211 33.2968 40.361C33.7468 40.531 34.2218 40.616 34.7218 40.616C35.4318 40.616 36.0118 40.391 36.4618 39.941C36.9118 39.481 37.1368 38.916 37.1368 38.246C37.1368 37.576 36.9318 37.041 36.5218 36.641C36.1218 36.241 35.5668 36.041 34.8568 36.041C34.0168 36.041 33.3218 36.311 32.7718 36.851L31.6168 36.731L32.0668 31.316H37.9918V32.441H33.1918L32.9368 35.606C33.5068 35.156 34.2268 34.931 35.0968 34.931C36.0968 34.931 36.9068 35.236 37.5268 35.846C38.1568 36.456 38.4718 37.236 38.4718 38.186ZM39.5372 31.316H46.8572V32.276C45.8672 33.506 44.9822 34.946 44.2022 36.596C43.4222 38.256 42.9222 39.896 42.7022 41.516H41.2622C41.4722 39.976 41.9572 38.406 42.7172 36.806C43.4772 35.186 44.3472 33.726 45.3272 32.426H39.5372V31.316ZM55.4546 38.711C55.4546 39.591 55.1046 40.321 54.4046 40.901C53.7146 41.471 52.7846 41.756 51.6146 41.756C50.4546 41.756 49.5246 41.471 48.8246 40.901C48.1346 40.321 47.7896 39.591 47.7896 38.711C47.7896 38.071 47.9596 37.516 48.2996 37.046C48.6396 36.566 49.1196 36.211 49.7396 35.981C48.7896 35.521 48.3146 34.781 48.3146 33.761C48.3146 32.961 48.6196 32.316 49.2296 31.826C49.8396 31.326 50.6346 31.076 51.6146 31.076C52.6046 31.076 53.4046 31.326 54.0146 31.826C54.6246 32.316 54.9296 32.961 54.9296 33.761C54.9296 34.781 54.4496 35.521 53.4896 35.981C54.1196 36.221 54.6046 36.581 54.9446 37.061C55.2846 37.531 55.4546 38.081 55.4546 38.711ZM49.5896 33.791C49.5896 34.291 49.7746 34.701 50.1446 35.021C50.5246 35.341 51.0146 35.501 51.6146 35.501C52.2246 35.501 52.7146 35.341 53.0846 35.021C53.4646 34.701 53.6546 34.291 53.6546 33.791C53.6546 33.301 53.4696 32.906 53.0996 32.606C52.7296 32.296 52.2346 32.141 51.6146 32.141C51.0046 32.141 50.5146 32.296 50.1446 32.606C49.7746 32.906 49.5896 33.301 49.5896 33.791ZM54.1046 38.636C54.1046 38.006 53.8796 37.501 53.4296 37.121C52.9896 36.741 52.3846 36.551 51.6146 36.551C50.8646 36.551 50.2646 36.741 49.8146 37.121C49.3646 37.501 49.1396 38.006 49.1396 38.636C49.1396 39.226 49.3646 39.711 49.8146 40.091C50.2646 40.461 50.8646 40.646 51.6146 40.646C52.3746 40.646 52.9796 40.461 53.4296 40.091C53.8796 39.711 54.1046 39.226 54.1046 38.636ZM63.1573 38.036H64.6873V39.131H63.1573V41.516H61.8673V39.131H56.6923V37.931L60.9223 31.316H62.3923L58.1023 38.036H61.8673V35.711H63.1573V38.036ZM70.2664 36.626V37.781H65.9014V36.626H70.2664ZM78.4155 35.831C79.0455 36.491 79.3605 37.301 79.3605 38.261C79.3605 39.221 79.0205 40.041 78.3405 40.721C77.6705 41.401 76.7805 41.741 75.6705 41.741C74.5105 41.741 73.5905 41.371 72.9105 40.631C72.2405 39.891 71.9055 38.936 71.9055 37.766C71.9055 36.726 72.1655 35.751 72.6855 34.841C73.2055 33.931 73.9905 32.986 75.0405 32.006L75.7755 31.316H77.5455V31.331L75.9255 32.816C74.8055 33.836 74.0205 34.816 73.5705 35.756C74.1505 35.146 74.9455 34.841 75.9555 34.841C76.9655 34.841 77.7855 35.171 78.4155 35.831ZM78.0255 38.276C78.0255 37.596 77.8155 37.041 77.3955 36.611C76.9855 36.171 76.4305 35.951 75.7305 35.951C74.9905 35.951 74.3955 36.171 73.9455 36.611C73.4955 37.041 73.2705 37.596 73.2705 38.276C73.2705 38.936 73.4905 39.496 73.9305 39.956C74.3705 40.396 74.9505 40.616 75.6705 40.616C76.3805 40.616 76.9505 40.401 77.3805 39.971C77.8105 39.531 78.0255 38.966 78.0255 38.276ZM87.9835 38.186C87.9835 39.156 87.6435 39.996 86.9635 40.706C86.2835 41.406 85.4135 41.756 84.3535 41.756C83.6335 41.756 82.9885 41.656 82.4185 41.456C81.9185 41.276 81.2785 40.926 80.4985 40.406L81.1585 39.431C81.8685 39.901 82.4185 40.211 82.8085 40.361C83.2585 40.531 83.7335 40.616 84.2335 40.616C84.9435 40.616 85.5235 40.391 85.9735 39.941C86.4235 39.481 86.6485 38.916 86.6485 38.246C86.6485 37.576 86.4435 37.041 86.0335 36.641C85.6335 36.241 85.0785 36.041 84.3685 36.041C83.5285 36.041 82.8335 36.311 82.2835 36.851L81.1285 36.731L81.5785 31.316H87.5035V32.441H82.7035L82.4485 35.606C83.0185 35.156 83.7385 34.931 84.6085 34.931C85.6085 34.931 86.4185 35.236 87.0385 35.846C87.6685 36.456 87.9835 37.236 87.9835 38.186ZM95.7647 38.036H97.2947V39.131H95.7647V41.516H94.4747V39.131H89.2997V37.931L93.5297 31.316H94.9997L90.7097 38.036H94.4747V35.711H95.7647V38.036ZM105.343 35.066C105.343 36.106 105.083 37.081 104.563 37.991C104.043 38.901 103.258 39.846 102.208 40.826L101.473 41.516H99.7176V41.501L101.338 40.016C102.458 38.996 103.243 38.016 103.693 37.076C103.113 37.686 102.313 37.991 101.293 37.991C100.293 37.991 99.4726 37.661 98.8326 37.001C98.2026 36.331 97.8876 35.521 97.8876 34.571C97.8876 33.621 98.2276 32.806 98.9076 32.126C99.5876 31.436 100.478 31.091 101.578 31.091C102.738 31.091 103.653 31.461 104.323 32.201C105.003 32.941 105.343 33.896 105.343 35.066ZM103.978 34.556C103.978 33.886 103.758 33.331 103.318 32.891C102.878 32.441 102.298 32.216 101.578 32.216C100.868 32.216 100.298 32.436 99.8676 32.876C99.4376 33.306 99.2226 33.866 99.2226 34.556C99.2226 35.236 99.4326 35.796 99.8526 36.236C100.273 36.666 100.833 36.881 101.533 36.881C102.273 36.881 102.863 36.661 103.303 36.221C103.753 35.791 103.978 35.236 103.978 34.556ZM111.341 36.626V37.781H106.976V36.626H111.341ZM119.932 38.186C119.932 39.156 119.592 39.996 118.912 40.706C118.232 41.406 117.362 41.756 116.302 41.756C115.582 41.756 114.937 41.656 114.367 41.456C113.867 41.276 113.227 40.926 112.447 40.406L113.107 39.431C113.817 39.901 114.367 40.211 114.757 40.361C115.207 40.531 115.682 40.616 116.182 40.616C116.892 40.616 117.472 40.391 117.922 39.941C118.372 39.481 118.597 38.916 118.597 38.246C118.597 37.576 118.392 37.041 117.982 36.641C117.582 36.241 117.027 36.041 116.317 36.041C115.477 36.041 114.782 36.311 114.232 36.851L113.077 36.731L113.527 31.316H119.452V32.441H114.652L114.397 35.606C114.967 35.156 115.687 34.931 116.557 34.931C117.557 34.931 118.367 35.236 118.987 35.846C119.617 36.456 119.932 37.236 119.932 38.186ZM129.02 30.866V32.021H123.32V35.456H128.63V36.611H123.32V40.361H129.155V41.516H121.94V30.866H129.02ZM138.506 32.336C139.346 33.306 139.766 34.591 139.766 36.191C139.766 37.791 139.346 39.081 138.506 40.061C137.676 41.031 136.526 41.516 135.056 41.516H131.081V30.866H135.056C136.526 30.866 137.676 31.356 138.506 32.336ZM134.831 32.021H132.461V40.361H134.831C135.951 40.361 136.816 39.996 137.426 39.266C138.046 38.526 138.356 37.501 138.356 36.191C138.356 34.891 138.046 33.871 137.426 33.131C136.806 32.391 135.941 32.021 134.831 32.021ZM148.648 38.711C148.648 39.591 148.298 40.321 147.598 40.901C146.908 41.471 145.978 41.756 144.808 41.756C143.648 41.756 142.718 41.471 142.018 40.901C141.328 40.321 140.983 39.591 140.983 38.711C140.983 38.071 141.153 37.516 141.493 37.046C141.833 36.566 142.313 36.211 142.933 35.981C141.983 35.521 141.508 34.781 141.508 33.761C141.508 32.961 141.813 32.316 142.423 31.826C143.033 31.326 143.828 31.076 144.808 31.076C145.798 31.076 146.598 31.326 147.208 31.826C147.818 32.316 148.123 32.961 148.123 33.761C148.123 34.781 147.643 35.521 146.683 35.981C147.313 36.221 147.798 36.581 148.138 37.061C148.478 37.531 148.648 38.081 148.648 38.711ZM142.783 33.791C142.783 34.291 142.968 34.701 143.338 35.021C143.718 35.341 144.208 35.501 144.808 35.501C145.418 35.501 145.908 35.341 146.278 35.021C146.658 34.701 146.848 34.291 146.848 33.791C146.848 33.301 146.663 32.906 146.293 32.606C145.923 32.296 145.428 32.141 144.808 32.141C144.198 32.141 143.708 32.296 143.338 32.606C142.968 32.906 142.783 33.301 142.783 33.791ZM147.298 38.636C147.298 38.006 147.073 37.501 146.623 37.121C146.183 36.741 145.578 36.551 144.808 36.551C144.058 36.551 143.458 36.741 143.008 37.121C142.558 37.501 142.333 38.006 142.333 38.636C142.333 39.226 142.558 39.711 143.008 40.091C143.458 40.461 144.058 40.646 144.808 40.646C145.568 40.646 146.173 40.461 146.623 40.091C147.073 39.711 147.298 39.226 147.298 38.636Z" fill="white"/>
<path fill-rule="evenodd" clip-rule="evenodd" d="M275.713 34.2819L274.021 35.9734L279.096 41.0479L287.553 32.5904L285.862 30.8989L279.096 37.6649L275.713 34.2819Z" fill="#5039F7"/>
</svg>
