<svg width="330" height="163" viewBox="0 0 330 163" fill="none" xmlns="http://www.w3.org/2000/svg">
<path d="M17.424 41.06H18.698L16.304 51H14.722L13.504 46.436C13.0933 44.8867 12.7853 43.65 12.58 42.726C12.3933 43.6313 12.09 44.8727 11.67 46.45L10.438 51H8.842L6.434 41.06H7.75L8.884 45.848C9.12667 46.912 9.39733 48.186 9.696 49.67C10.088 48.0553 10.41 46.7813 10.662 45.848L11.964 41.06H13.266L14.54 45.848C14.932 47.3787 15.2447 48.6527 15.478 49.67C15.73 48.382 16.0053 47.108 16.304 45.848L17.424 41.06ZM25.2388 46.212V51H24.1468V50.146C23.6615 50.8647 22.8822 51.224 21.8088 51.224C21.0528 51.224 20.4508 51.0607 20.0028 50.734C19.5642 50.4073 19.3448 49.9267 19.3448 49.292C19.3448 48.5547 19.6202 48.018 20.1708 47.682C20.7402 47.3367 21.5335 47.0753 22.5508 46.898L24.0908 46.618V46.268C24.0908 45.848 23.9415 45.5167 23.6428 45.274C23.3535 45.0313 22.9662 44.91 22.4808 44.91C22.0608 44.91 21.6828 44.9987 21.3468 45.176C21.0202 45.344 20.6422 45.6427 20.2128 46.072L19.4428 45.386C20.2735 44.406 21.2722 43.916 22.4388 43.916C23.3162 43.916 24.0022 44.126 24.4968 44.546C24.9915 44.9567 25.2388 45.512 25.2388 46.212ZM24.0908 48.424V47.514L22.8308 47.766C21.9722 47.9433 21.3795 48.1253 21.0528 48.312C20.7355 48.4987 20.5582 48.8113 20.5208 49.25C20.5208 49.5673 20.6422 49.81 20.8848 49.978C21.1368 50.146 21.4868 50.23 21.9348 50.23C22.5602 50.23 23.0735 50.0667 23.4748 49.74C23.8855 49.404 24.0908 48.9653 24.0908 48.424ZM28.35 41.06V51H27.146V41.06H28.35ZM31.5082 41.06V51H30.3042V41.06H31.5082ZM38.6984 49.04L39.4124 49.768C38.9178 50.2907 38.4418 50.6593 37.9844 50.874C37.5271 51.0887 37.0044 51.196 36.4164 51.196C35.3804 51.196 34.5498 50.8693 33.9244 50.216C33.3084 49.5533 33.0004 48.6807 33.0004 47.598C33.0004 46.5153 33.2991 45.6333 33.8964 44.952C34.5031 44.2613 35.3011 43.916 36.2904 43.916C37.2704 43.916 38.0311 44.21 38.5724 44.798C39.1231 45.386 39.3984 46.198 39.3984 47.234C39.3984 47.3647 39.3891 47.542 39.3704 47.766H34.2044C34.2418 48.494 34.4518 49.082 34.8344 49.53C35.2171 49.9687 35.7491 50.188 36.4304 50.188C36.8598 50.188 37.2284 50.104 37.5364 49.936C37.8444 49.7773 38.2318 49.4787 38.6984 49.04ZM34.2324 46.87H38.2084C38.1804 46.254 37.9938 45.7687 37.6484 45.414C37.3124 45.0593 36.8551 44.882 36.2764 44.882C35.7164 44.882 35.2591 45.0547 34.9044 45.4C34.5498 45.7453 34.3258 46.2353 34.2324 46.87ZM44.4289 49.936L44.6109 50.888C44.1629 51.0467 43.6916 51.126 43.1969 51.126C42.5716 51.126 42.1189 50.986 41.8389 50.706C41.5589 50.4167 41.4189 49.9827 41.4189 49.404V45.022H40.1309V44.112H41.4189V41.802H42.6229V44.112H44.4849V45.022H42.6229V49.264C42.6229 49.572 42.6836 49.7913 42.8049 49.922C42.9356 50.0433 43.1456 50.104 43.4349 50.104C43.6962 50.104 44.0276 50.048 44.4289 49.936Z" fill="#7764FF"/>
<path d="M148.078 42.432C148.862 43.3373 149.254 44.5367 149.254 46.03C149.254 47.5233 148.862 48.7273 148.078 49.642C147.303 50.5473 146.23 51 144.858 51H141.148V41.06H144.858C146.23 41.06 147.303 41.5173 148.078 42.432ZM144.648 42.138H142.436V49.922H144.648C145.693 49.922 146.501 49.5813 147.07 48.9C147.649 48.2093 147.938 47.2527 147.938 46.03C147.938 44.8167 147.649 43.8647 147.07 43.174C146.491 42.4833 145.684 42.138 144.648 42.138ZM151.986 44.112V51H150.782V44.112H151.986ZM151.986 41.312V42.754H150.782V41.312H151.986ZM159.038 44.924L158.38 45.736C157.96 45.4093 157.591 45.19 157.274 45.078C156.966 44.9567 156.611 44.896 156.21 44.896C155.753 44.896 155.384 44.994 155.104 45.19C154.833 45.3767 154.698 45.6193 154.698 45.918C154.735 46.2073 154.857 46.408 155.062 46.52C155.267 46.6227 155.762 46.7627 156.546 46.94C157.498 47.164 158.17 47.43 158.562 47.738C158.954 48.0367 159.15 48.4753 159.15 49.054C159.15 49.698 158.898 50.216 158.394 50.608C157.89 51 157.223 51.196 156.392 51.196C155.767 51.196 155.211 51.1027 154.726 50.916C154.25 50.72 153.746 50.384 153.214 49.908L153.928 49.124C154.432 49.544 154.861 49.8287 155.216 49.978C155.571 50.1273 155.967 50.202 156.406 50.202C156.863 50.202 157.237 50.104 157.526 49.908C157.825 49.712 157.974 49.446 157.974 49.11C157.974 48.7833 157.834 48.5407 157.554 48.382C157.274 48.2233 156.77 48.0647 156.042 47.906C155.062 47.682 154.404 47.4487 154.068 47.206C153.732 46.954 153.555 46.5387 153.536 45.96C153.536 45.3533 153.783 44.8633 154.278 44.49C154.773 44.1073 155.417 43.916 156.21 43.916C156.779 43.916 157.279 43.9953 157.708 44.154C158.137 44.3033 158.581 44.56 159.038 44.924ZM163.496 44.924C162.843 44.924 162.33 45.1807 161.956 45.694C161.583 46.198 161.396 46.8187 161.396 47.556C161.396 48.284 161.578 48.9047 161.942 49.418C162.316 49.922 162.838 50.174 163.51 50.174C163.884 50.174 164.22 50.0947 164.518 49.936C164.826 49.768 165.176 49.4647 165.568 49.026L166.366 49.698C165.928 50.2487 165.489 50.636 165.05 50.86C164.612 51.084 164.098 51.196 163.51 51.196C162.502 51.196 161.69 50.8647 161.074 50.202C160.468 49.5393 160.164 48.6573 160.164 47.556C160.164 46.464 160.472 45.5867 161.088 44.924C161.714 44.252 162.521 43.916 163.51 43.916C164.08 43.916 164.574 44.014 164.994 44.21C165.424 44.406 165.848 44.742 166.268 45.218L165.484 45.96C165.13 45.5773 164.798 45.3113 164.49 45.162C164.192 45.0033 163.86 44.924 163.496 44.924ZM172.894 44.938C173.528 45.61 173.846 46.4827 173.846 47.556C173.846 48.6293 173.528 49.5067 172.894 50.188C172.259 50.86 171.442 51.196 170.444 51.196C169.445 51.196 168.624 50.86 167.98 50.188C167.345 49.5067 167.028 48.6293 167.028 47.556C167.028 46.4827 167.345 45.61 167.98 44.938C168.624 44.2567 169.445 43.916 170.444 43.916C171.442 43.916 172.259 44.2567 172.894 44.938ZM168.848 45.652C168.456 46.1373 168.26 46.772 168.26 47.556C168.26 48.34 168.456 48.9747 168.848 49.46C169.249 49.9453 169.781 50.188 170.444 50.188C171.106 50.188 171.634 49.95 172.026 49.474C172.418 48.9887 172.614 48.3493 172.614 47.556C172.614 46.7627 172.418 46.128 172.026 45.652C171.634 45.1667 171.106 44.924 170.444 44.924C169.781 44.924 169.249 45.1667 168.848 45.652ZM179.229 44.238L179.005 45.246C178.688 45.1527 178.389 45.106 178.109 45.106C177.624 45.106 177.232 45.3067 176.933 45.708C176.644 46.1 176.499 46.632 176.499 47.304V51H175.295V44.112H176.429V45.148C176.793 44.4013 177.363 44.028 178.137 44.028C178.492 44.028 178.856 44.098 179.229 44.238ZM184.858 41.06H186.062V51H184.928V49.936C184.415 50.7667 183.631 51.182 182.576 51.182C181.69 51.182 180.962 50.846 180.392 50.174C179.823 49.502 179.538 48.6293 179.538 47.556C179.538 46.4827 179.828 45.61 180.406 44.938C180.985 44.266 181.718 43.93 182.604 43.93C183.603 43.93 184.354 44.2987 184.858 45.036V41.06ZM184.312 49.46C184.704 48.984 184.9 48.3493 184.9 47.556C184.9 46.7627 184.704 46.1327 184.312 45.666C183.92 45.1993 183.402 44.966 182.758 44.966C182.161 44.966 181.68 45.204 181.316 45.68C180.952 46.156 180.77 46.7813 180.77 47.556C180.77 48.34 180.948 48.97 181.302 49.446C181.666 49.922 182.152 50.16 182.758 50.16C183.402 50.16 183.92 49.9267 184.312 49.46Z" fill="#7764FF"/>
<path d="M294.648 50.939L293.752 48.405H289.272L288.376 50.939H287.074L290.672 40.999H292.366L295.978 50.939H294.648ZM289.664 47.313H293.36L292.898 46.011C292.273 44.3403 291.806 42.9916 291.498 41.965C291.265 42.7583 290.859 43.9623 290.28 45.577L290.126 46.025L289.664 47.313ZM303.663 47.481C303.663 48.5636 303.379 49.441 302.809 50.113C302.24 50.785 301.512 51.121 300.625 51.121C299.589 51.121 298.829 50.7523 298.343 50.015V53.459H297.139V44.051H298.273V45.115C298.787 44.2843 299.571 43.869 300.625 43.869C301.512 43.869 302.24 44.205 302.809 44.877C303.379 45.549 303.663 46.417 303.663 47.481ZM301.885 49.371C302.249 48.895 302.431 48.265 302.431 47.481C302.431 46.697 302.249 46.0716 301.885 45.605C301.531 45.129 301.05 44.891 300.443 44.891C299.799 44.891 299.281 45.1243 298.889 45.591C298.497 46.0576 298.301 46.6876 298.301 47.481C298.301 48.2836 298.497 48.9183 298.889 49.385C299.281 49.8516 299.799 50.085 300.443 50.085C301.041 50.085 301.521 49.847 301.885 49.371ZM311.675 47.481C311.675 48.5636 311.39 49.441 310.821 50.113C310.252 50.785 309.524 51.121 308.637 51.121C307.601 51.121 306.84 50.7523 306.355 50.015V53.459H305.151V44.051H306.285V45.115C306.798 44.2843 307.582 43.869 308.637 43.869C309.524 43.869 310.252 44.205 310.821 44.877C311.39 45.549 311.675 46.417 311.675 47.481ZM309.897 49.371C310.261 48.895 310.443 48.265 310.443 47.481C310.443 46.697 310.261 46.0716 309.897 45.605C309.542 45.129 309.062 44.891 308.455 44.891C307.811 44.891 307.293 45.1243 306.901 45.591C306.509 46.0576 306.313 46.6876 306.313 47.481C306.313 48.2836 306.509 48.9183 306.901 49.385C307.293 49.8516 307.811 50.085 308.455 50.085C309.052 50.085 309.533 49.847 309.897 49.371ZM314.409 40.999V50.939H313.205V40.999H314.409ZM320.689 44.051H321.907L319.149 51.891C318.915 52.5443 318.654 52.997 318.365 53.249C318.075 53.5103 317.646 53.641 317.077 53.641C316.675 53.641 316.321 53.5943 316.013 53.501L316.223 52.577C316.475 52.633 316.722 52.661 316.965 52.661C317.254 52.661 317.483 52.5816 317.651 52.423C317.828 52.2643 317.987 51.9796 318.127 51.569L318.211 51.303L315.621 44.051H316.895L317.665 46.333C317.87 46.9303 318.211 47.9476 318.687 49.385L318.799 49.735L319.219 48.461L319.919 46.305L320.689 44.051Z" fill="#454545"/>
<circle cx="25.2801" cy="12.5684" r="12.5074" fill="url(#paint0_linear_186_10)"/>
<circle cx="163.507" cy="12.5684" r="12.5074" fill="url(#paint1_linear_186_10)"/>
<path d="M25.159 8.03155H26.03V16.8716H24.886V9.48755L23.014 10.8136L22.442 10.0206L25.159 8.03155Z" fill="#080520"/>
<path d="M161.362 15.8966H166.51V16.8716H160.192V16.4426C160.192 15.8446 160.305 15.3289 160.53 14.8956C160.764 14.4622 161.05 14.1112 161.388 13.8426C161.804 13.5219 162.289 13.1926 162.844 12.8546L163.494 12.4776C163.945 12.2176 164.278 12.0139 164.495 11.8666C165.05 11.4592 165.327 10.9566 165.327 10.3586C165.327 9.87322 165.167 9.49622 164.846 9.22755C164.525 8.95022 164.114 8.81155 163.611 8.81155C163.108 8.81155 162.671 8.93288 162.298 9.17555C161.917 9.42688 161.501 9.83422 161.05 10.3976L160.205 9.79955C161.115 8.48222 162.242 7.82355 163.585 7.82355C164.452 7.82355 165.149 8.06188 165.678 8.53855C166.215 9.00655 166.484 9.60022 166.484 10.3196C166.484 10.8222 166.38 11.2512 166.172 11.6066C165.973 11.9532 165.713 12.2436 165.392 12.4776C165.115 12.6942 164.694 12.9672 164.131 13.2966L163.52 13.6606L163.273 13.8036C162.857 14.0549 162.523 14.2716 162.272 14.4536C161.743 14.8436 161.44 15.3246 161.362 15.8966Z" fill="#080520"/>
<circle cx="304.507" cy="12.5074" r="11.5074" fill="#101010" stroke="#2E2E2E" stroke-width="2"/>
<path d="M307.611 14.1325C307.611 14.8952 307.33 15.5668 306.766 16.1475C306.203 16.7282 305.445 17.0185 304.491 17.0185C303.391 17.0185 302.299 16.6545 301.215 15.9265L301.8 15.0815C302.355 15.4282 302.827 15.6752 303.217 15.8225C303.607 15.9612 304.019 16.0305 304.452 16.0305C305.05 16.0305 305.531 15.8572 305.895 15.5105C306.268 15.1552 306.454 14.7002 306.454 14.1455C306.454 13.5995 306.268 13.1748 305.895 12.8715C305.523 12.5595 305.003 12.4035 304.335 12.4035C303.893 12.4035 303.542 12.4598 303.282 12.5725L302.749 11.8445L305.921 8.94552H301.657V7.97052H307.351V8.91952L304.491 11.5195H304.66C305.518 11.5195 306.225 11.7535 306.779 12.2215C307.334 12.6895 307.611 13.3265 307.611 14.1325Z" fill="#454545"/>
<rect x="29" y="12" width="122" height="2" fill="#7764FE"/>
<rect x="176" y="12" width="117" height="2" fill="#2E2E2E"/>
<rect y="77" width="330" height="85.8" rx="16" fill="black"/>
<g clip-path="url(#clip0_186_10)">
<path d="M54.0669 93.9714H27.0187C20.4283 93.9714 15.0857 99.314 15.0857 105.904V132.953C15.0857 139.543 20.4283 144.886 27.0187 144.886H54.0669C60.6574 144.886 66 139.543 66 132.953V105.904C66 99.314 60.6574 93.9714 54.0669 93.9714Z" fill="#5865F2"/>
<path d="M54.3271 106.859C51.7483 105.675 49.0268 104.831 46.2307 104.347C46.2053 104.343 46.179 104.346 46.1557 104.357C46.1323 104.368 46.1131 104.386 46.1006 104.409C45.751 105.031 45.3636 105.842 45.0925 106.48C42.035 106.022 38.9935 106.022 35.9989 106.48C35.7276 105.828 35.3263 105.031 34.9751 104.409C34.9621 104.387 34.9427 104.369 34.9194 104.358C34.8962 104.347 34.8702 104.343 34.8448 104.347C32.0485 104.83 29.3269 105.674 26.7484 106.859C26.7264 106.868 26.7077 106.884 26.6951 106.904C21.5385 114.608 20.126 122.123 20.8189 129.544C20.8208 129.563 20.8264 129.58 20.8353 129.596C20.8442 129.612 20.8562 129.626 20.8706 129.637C24.2727 132.136 27.5684 133.653 30.8029 134.658C30.828 134.666 30.8549 134.665 30.8798 134.657C30.9048 134.649 30.9266 134.634 30.9425 134.613C31.7076 133.568 32.3896 132.466 32.9745 131.308C32.9825 131.292 32.9871 131.274 32.988 131.256C32.9888 131.239 32.9859 131.221 32.9794 131.204C32.9728 131.188 32.9629 131.173 32.9501 131.16C32.9374 131.148 32.9222 131.138 32.9055 131.132C31.8235 130.722 30.7935 130.222 29.8027 129.653C29.7846 129.643 29.7695 129.628 29.7586 129.61C29.7476 129.592 29.7413 129.572 29.74 129.551C29.7388 129.53 29.7427 129.509 29.7515 129.49C29.7602 129.471 29.7735 129.454 29.7902 129.442C29.9992 129.286 30.2046 129.125 30.4063 128.959C30.424 128.944 30.4453 128.935 30.468 128.932C30.4907 128.929 30.5139 128.932 30.5348 128.941C37.0446 131.914 44.0921 131.914 50.525 128.941C50.546 128.931 50.5694 128.928 50.5924 128.93C50.6155 128.933 50.6373 128.943 50.6553 128.957C50.8571 129.124 51.0631 129.285 51.273 129.442C51.2897 129.454 51.3031 129.471 51.312 129.49C51.3209 129.509 51.325 129.53 51.3239 129.551C51.3228 129.571 51.3166 129.592 51.3058 129.61C51.295 129.628 51.28 129.643 51.2621 129.653C50.2707 130.232 49.2322 130.726 48.1577 131.131C48.141 131.137 48.1258 131.147 48.1132 131.16C48.1006 131.172 48.0908 131.187 48.0844 131.204C48.078 131.221 48.0753 131.239 48.0763 131.256C48.0773 131.274 48.0821 131.292 48.0903 131.308C48.6853 132.457 49.3639 133.561 50.1205 134.611C50.1359 134.632 50.1576 134.649 50.1827 134.657C50.2077 134.666 50.2348 134.666 50.2601 134.658C53.5102 133.653 56.806 132.136 60.2083 129.637C60.2228 129.627 60.235 129.613 60.2439 129.597C60.2528 129.582 60.2583 129.564 60.26 129.546C61.0893 120.966 58.8708 113.513 54.3788 106.906C54.3678 106.884 54.3494 106.868 54.3271 106.859ZM33.9466 125.026C31.9866 125.026 30.3717 123.226 30.3717 121.016C30.3717 118.807 31.9554 117.007 33.9466 117.007C35.9534 117.007 37.5526 118.823 37.5212 121.016C37.5212 123.226 35.9377 125.026 33.9466 125.026ZM47.1637 125.026C45.2037 125.026 43.5889 123.226 43.5889 121.016C43.5889 118.807 45.1724 117.007 47.1637 117.007C49.1704 117.007 50.7696 118.823 50.7384 121.016C50.7384 123.226 49.1704 125.026 47.1637 125.026Z" fill="white"/>
</g>
<mask id="path-15-outside-1_186_10" maskUnits="userSpaceOnUse" x="89.5142" y="112.943" width="153" height="18" fill="black">
<rect fill="white" x="89.5142" y="112.943" width="153" height="18"/>
<path d="M100.69 115.943L99.8262 116.967C98.7595 116.071 97.7035 115.623 96.6582 115.623C95.4528 115.623 94.4875 116.055 93.7622 116.919C93.0368 117.772 92.6742 118.887 92.6742 120.263C92.6742 121.618 93.0315 122.732 93.7462 123.607C94.4715 124.471 95.4102 124.903 96.5622 124.903C97.1808 124.903 97.7408 124.78 98.2422 124.535C98.7542 124.279 99.3355 123.847 99.9862 123.239L100.898 124.231C100.151 124.935 99.4475 125.442 98.7862 125.751C98.1355 126.05 97.3995 126.199 96.5782 126.199C94.9462 126.199 93.6395 125.644 92.6582 124.535C91.6768 123.426 91.1862 121.996 91.1862 120.247C91.1862 118.498 91.6768 117.074 92.6582 115.975C93.6395 114.876 94.9728 114.327 96.6582 114.327C97.4155 114.327 98.1088 114.455 98.7382 114.711C99.3675 114.956 100.018 115.367 100.69 115.943ZM108.591 119.015C109.317 119.783 109.679 120.78 109.679 122.007C109.679 123.234 109.317 124.236 108.591 125.015C107.866 125.783 106.933 126.167 105.791 126.167C104.65 126.167 103.711 125.783 102.975 125.015C102.25 124.236 101.887 123.234 101.887 122.007C101.887 120.78 102.25 119.783 102.975 119.015C103.711 118.236 104.65 117.847 105.791 117.847C106.933 117.847 107.866 118.236 108.591 119.015ZM103.967 119.831C103.519 120.386 103.295 121.111 103.295 122.007C103.295 122.903 103.519 123.628 103.967 124.183C104.426 124.738 105.034 125.015 105.791 125.015C106.549 125.015 107.151 124.743 107.599 124.199C108.047 123.644 108.271 122.914 108.271 122.007C108.271 121.1 108.047 120.375 107.599 119.831C107.151 119.276 106.549 118.999 105.791 118.999C105.034 118.999 104.426 119.276 103.967 119.831ZM117.928 120.551V125.943H116.552V120.983C116.552 120.343 116.397 119.858 116.088 119.527C115.779 119.186 115.331 119.015 114.744 119.015C114.179 119.015 113.699 119.212 113.304 119.607C112.909 119.991 112.712 120.476 112.712 121.063V125.943H111.336V118.071H112.632V119.079C113.144 118.258 113.971 117.847 115.112 117.847C116.008 117.847 116.701 118.098 117.192 118.599C117.683 119.1 117.928 119.751 117.928 120.551ZM126.647 120.551V125.943H125.271V120.983C125.271 120.343 125.116 119.858 124.807 119.527C124.498 119.186 124.05 119.015 123.463 119.015C122.898 119.015 122.418 119.212 122.023 119.607C121.628 119.991 121.431 120.476 121.431 121.063V125.943H120.055V118.071H121.351V119.079C121.863 118.258 122.69 117.847 123.831 117.847C124.727 117.847 125.42 118.098 125.911 118.599C126.402 119.1 126.647 119.751 126.647 120.551ZM134.806 123.703L135.622 124.535C135.056 125.132 134.512 125.554 133.99 125.799C133.467 126.044 132.87 126.167 132.198 126.167C131.014 126.167 130.064 125.794 129.35 125.047C128.646 124.29 128.294 123.292 128.294 122.055C128.294 120.818 128.635 119.81 129.318 119.031C130.011 118.242 130.923 117.847 132.054 117.847C133.174 117.847 134.043 118.183 134.662 118.855C135.291 119.527 135.606 120.455 135.606 121.639C135.606 121.788 135.595 121.991 135.574 122.247H129.67C129.712 123.079 129.952 123.751 130.39 124.263C130.827 124.764 131.435 125.015 132.214 125.015C132.704 125.015 133.126 124.919 133.478 124.727C133.83 124.546 134.272 124.204 134.806 123.703ZM129.702 121.223H134.246C134.214 120.519 134 119.964 133.606 119.559C133.222 119.154 132.699 118.951 132.038 118.951C131.398 118.951 130.875 119.148 130.47 119.543C130.064 119.938 129.808 120.498 129.702 121.223ZM140.649 118.999C139.902 118.999 139.315 119.292 138.889 119.879C138.462 120.455 138.249 121.164 138.249 122.007C138.249 122.839 138.457 123.548 138.873 124.135C139.299 124.711 139.897 124.999 140.665 124.999C141.091 124.999 141.475 124.908 141.817 124.727C142.169 124.535 142.569 124.188 143.017 123.687L143.929 124.455C143.427 125.084 142.926 125.527 142.425 125.783C141.923 126.039 141.337 126.167 140.665 126.167C139.513 126.167 138.585 125.788 137.881 125.031C137.187 124.274 136.841 123.266 136.841 122.007C136.841 120.759 137.193 119.756 137.897 118.999C138.611 118.231 139.534 117.847 140.665 117.847C141.315 117.847 141.881 117.959 142.361 118.183C142.851 118.407 143.337 118.791 143.817 119.335L142.921 120.183C142.515 119.746 142.137 119.442 141.785 119.271C141.443 119.09 141.065 118.999 140.649 118.999ZM149.495 124.727L149.703 125.815C149.191 125.996 148.653 126.087 148.087 126.087C147.373 126.087 146.855 125.927 146.535 125.607C146.215 125.276 146.055 124.78 146.055 124.119V119.111H144.583V118.071H146.055V115.431H147.431V118.071H149.559V119.111H147.431V123.959C147.431 124.311 147.501 124.562 147.639 124.711C147.789 124.85 148.029 124.919 148.359 124.919C148.658 124.919 149.037 124.855 149.495 124.727ZM159.531 118.071H160.923L157.771 127.031C157.505 127.778 157.206 128.295 156.875 128.583C156.545 128.882 156.054 129.031 155.403 129.031C154.945 129.031 154.539 128.978 154.187 128.871L154.427 127.815C154.715 127.879 154.998 127.911 155.275 127.911C155.606 127.911 155.867 127.82 156.059 127.639C156.262 127.458 156.443 127.132 156.603 126.663L156.699 126.359L153.739 118.071H155.195L156.075 120.679C156.31 121.362 156.699 122.524 157.243 124.167L157.371 124.567L157.851 123.111L158.651 120.647L159.531 118.071ZM168.388 119.015C169.114 119.783 169.476 120.78 169.476 122.007C169.476 123.234 169.114 124.236 168.388 125.015C167.663 125.783 166.73 126.167 165.588 126.167C164.447 126.167 163.508 125.783 162.772 125.015C162.047 124.236 161.684 123.234 161.684 122.007C161.684 120.78 162.047 119.783 162.772 119.015C163.508 118.236 164.447 117.847 165.588 117.847C166.73 117.847 167.663 118.236 168.388 119.015ZM163.764 119.831C163.316 120.386 163.092 121.111 163.092 122.007C163.092 122.903 163.316 123.628 163.764 124.183C164.223 124.738 164.831 125.015 165.588 125.015C166.346 125.015 166.948 124.743 167.396 124.199C167.844 123.644 168.068 122.914 168.068 122.007C168.068 121.1 167.844 120.375 167.396 119.831C166.948 119.276 166.346 118.999 165.588 118.999C164.831 118.999 164.223 119.276 163.764 119.831ZM176.205 118.071H177.581V125.943H176.301V124.967C175.821 125.767 175.026 126.167 173.917 126.167C172.989 126.167 172.29 125.938 171.821 125.479C171.352 125.02 171.117 124.391 171.117 123.591V118.071H172.493V123.255C172.493 124.407 173.042 124.983 174.141 124.983C174.76 124.983 175.256 124.796 175.629 124.423C176.013 124.05 176.205 123.532 176.205 122.871V118.071ZM184.223 118.215L183.967 119.367C183.604 119.26 183.263 119.207 182.943 119.207C182.388 119.207 181.94 119.436 181.599 119.895C181.268 120.343 181.103 120.951 181.103 121.719V125.943H179.727V118.071H181.023V119.255C181.439 118.402 182.089 117.975 182.975 117.975C183.38 117.975 183.796 118.055 184.223 118.215ZM197.246 116.151C198.142 117.186 198.59 118.556 198.59 120.263C198.59 121.97 198.142 123.346 197.246 124.391C196.361 125.426 195.134 125.943 193.566 125.943H189.326V114.583H193.566C195.134 114.583 196.361 115.106 197.246 116.151ZM193.326 115.815H190.798V124.711H193.326C194.521 124.711 195.443 124.322 196.094 123.543C196.755 122.754 197.086 121.66 197.086 120.263C197.086 118.876 196.755 117.788 196.094 116.999C195.433 116.21 194.51 115.815 193.326 115.815ZM201.712 118.071V125.943H200.336V118.071H201.712ZM201.712 114.871V116.519H200.336V114.871H201.712ZM209.772 118.999L209.02 119.927C208.54 119.554 208.118 119.303 207.756 119.175C207.404 119.036 206.998 118.967 206.54 118.967C206.017 118.967 205.596 119.079 205.276 119.303C204.966 119.516 204.812 119.794 204.812 120.135C204.854 120.466 204.993 120.695 205.228 120.823C205.462 120.94 206.028 121.1 206.924 121.303C208.012 121.559 208.78 121.863 209.228 122.215C209.676 122.556 209.9 123.058 209.9 123.719C209.9 124.455 209.612 125.047 209.036 125.495C208.46 125.943 207.697 126.167 206.748 126.167C206.033 126.167 205.398 126.06 204.844 125.847C204.3 125.623 203.724 125.239 203.116 124.695L203.932 123.799C204.508 124.279 204.998 124.604 205.404 124.775C205.809 124.946 206.262 125.031 206.764 125.031C207.286 125.031 207.713 124.919 208.044 124.695C208.385 124.471 208.556 124.167 208.556 123.783C208.556 123.41 208.396 123.132 208.076 122.951C207.756 122.77 207.18 122.588 206.348 122.407C205.228 122.151 204.476 121.884 204.092 121.607C203.708 121.319 203.505 120.844 203.484 120.183C203.484 119.49 203.766 118.93 204.332 118.503C204.897 118.066 205.633 117.847 206.54 117.847C207.19 117.847 207.761 117.938 208.252 118.119C208.742 118.29 209.249 118.583 209.772 118.999ZM214.867 118.999C214.121 118.999 213.534 119.292 213.107 119.879C212.681 120.455 212.467 121.164 212.467 122.007C212.467 122.839 212.675 123.548 213.091 124.135C213.518 124.711 214.115 124.999 214.883 124.999C215.31 124.999 215.694 124.908 216.035 124.727C216.387 124.535 216.787 124.188 217.235 123.687L218.147 124.455C217.646 125.084 217.145 125.527 216.643 125.783C216.142 126.039 215.555 126.167 214.883 126.167C213.731 126.167 212.803 125.788 212.099 125.031C211.406 124.274 211.059 123.266 211.059 122.007C211.059 120.759 211.411 119.756 212.115 118.999C212.83 118.231 213.753 117.847 214.883 117.847C215.534 117.847 216.099 117.959 216.579 118.183C217.07 118.407 217.555 118.791 218.035 119.335L217.139 120.183C216.734 119.746 216.355 119.442 216.003 119.271C215.662 119.09 215.283 118.999 214.867 118.999ZM225.607 119.015C226.332 119.783 226.695 120.78 226.695 122.007C226.695 123.234 226.332 124.236 225.607 125.015C224.882 125.783 223.948 126.167 222.807 126.167C221.666 126.167 220.727 125.783 219.991 125.015C219.266 124.236 218.903 123.234 218.903 122.007C218.903 120.78 219.266 119.783 219.991 119.015C220.727 118.236 221.666 117.847 222.807 117.847C223.948 117.847 224.882 118.236 225.607 119.015ZM220.983 119.831C220.535 120.386 220.311 121.111 220.311 122.007C220.311 122.903 220.535 123.628 220.983 124.183C221.442 124.738 222.05 125.015 222.807 125.015C223.564 125.015 224.167 124.743 224.615 124.199C225.063 123.644 225.287 122.914 225.287 122.007C225.287 121.1 225.063 120.375 224.615 119.831C224.167 119.276 223.564 118.999 222.807 118.999C222.05 118.999 221.442 119.276 220.983 119.831ZM232.848 118.215L232.592 119.367C232.229 119.26 231.888 119.207 231.568 119.207C231.013 119.207 230.565 119.436 230.224 119.895C229.893 120.343 229.728 120.951 229.728 121.719V125.943H228.352V118.071H229.648V119.255C230.064 118.402 230.714 117.975 231.6 117.975C232.005 117.975 232.421 118.055 232.848 118.215ZM239.281 114.583H240.657V125.943H239.361V124.727C238.774 125.676 237.878 126.151 236.673 126.151C235.659 126.151 234.827 125.767 234.177 124.999C233.526 124.231 233.201 123.234 233.201 122.007C233.201 120.78 233.531 119.783 234.193 119.015C234.854 118.247 235.691 117.863 236.705 117.863C237.846 117.863 238.705 118.284 239.281 119.127V114.583ZM238.657 124.183C239.105 123.639 239.329 122.914 239.329 122.007C239.329 121.1 239.105 120.38 238.657 119.847C238.209 119.314 237.617 119.047 236.881 119.047C236.198 119.047 235.649 119.319 235.233 119.863C234.817 120.407 234.609 121.122 234.609 122.007C234.609 122.903 234.811 123.623 235.217 124.167C235.633 124.711 236.187 124.983 236.881 124.983C237.617 124.983 238.209 124.716 238.657 124.183Z"/>
</mask>
<path d="M100.69 115.943L99.8262 116.967C98.7595 116.071 97.7035 115.623 96.6582 115.623C95.4528 115.623 94.4875 116.055 93.7622 116.919C93.0368 117.772 92.6742 118.887 92.6742 120.263C92.6742 121.618 93.0315 122.732 93.7462 123.607C94.4715 124.471 95.4102 124.903 96.5622 124.903C97.1808 124.903 97.7408 124.78 98.2422 124.535C98.7542 124.279 99.3355 123.847 99.9862 123.239L100.898 124.231C100.151 124.935 99.4475 125.442 98.7862 125.751C98.1355 126.05 97.3995 126.199 96.5782 126.199C94.9462 126.199 93.6395 125.644 92.6582 124.535C91.6768 123.426 91.1862 121.996 91.1862 120.247C91.1862 118.498 91.6768 117.074 92.6582 115.975C93.6395 114.876 94.9728 114.327 96.6582 114.327C97.4155 114.327 98.1088 114.455 98.7382 114.711C99.3675 114.956 100.018 115.367 100.69 115.943ZM108.591 119.015C109.317 119.783 109.679 120.78 109.679 122.007C109.679 123.234 109.317 124.236 108.591 125.015C107.866 125.783 106.933 126.167 105.791 126.167C104.65 126.167 103.711 125.783 102.975 125.015C102.25 124.236 101.887 123.234 101.887 122.007C101.887 120.78 102.25 119.783 102.975 119.015C103.711 118.236 104.65 117.847 105.791 117.847C106.933 117.847 107.866 118.236 108.591 119.015ZM103.967 119.831C103.519 120.386 103.295 121.111 103.295 122.007C103.295 122.903 103.519 123.628 103.967 124.183C104.426 124.738 105.034 125.015 105.791 125.015C106.549 125.015 107.151 124.743 107.599 124.199C108.047 123.644 108.271 122.914 108.271 122.007C108.271 121.1 108.047 120.375 107.599 119.831C107.151 119.276 106.549 118.999 105.791 118.999C105.034 118.999 104.426 119.276 103.967 119.831ZM117.928 120.551V125.943H116.552V120.983C116.552 120.343 116.397 119.858 116.088 119.527C115.779 119.186 115.331 119.015 114.744 119.015C114.179 119.015 113.699 119.212 113.304 119.607C112.909 119.991 112.712 120.476 112.712 121.063V125.943H111.336V118.071H112.632V119.079C113.144 118.258 113.971 117.847 115.112 117.847C116.008 117.847 116.701 118.098 117.192 118.599C117.683 119.1 117.928 119.751 117.928 120.551ZM126.647 120.551V125.943H125.271V120.983C125.271 120.343 125.116 119.858 124.807 119.527C124.498 119.186 124.05 119.015 123.463 119.015C122.898 119.015 122.418 119.212 122.023 119.607C121.628 119.991 121.431 120.476 121.431 121.063V125.943H120.055V118.071H121.351V119.079C121.863 118.258 122.69 117.847 123.831 117.847C124.727 117.847 125.42 118.098 125.911 118.599C126.402 119.1 126.647 119.751 126.647 120.551ZM134.806 123.703L135.622 124.535C135.056 125.132 134.512 125.554 133.99 125.799C133.467 126.044 132.87 126.167 132.198 126.167C131.014 126.167 130.064 125.794 129.35 125.047C128.646 124.29 128.294 123.292 128.294 122.055C128.294 120.818 128.635 119.81 129.318 119.031C130.011 118.242 130.923 117.847 132.054 117.847C133.174 117.847 134.043 118.183 134.662 118.855C135.291 119.527 135.606 120.455 135.606 121.639C135.606 121.788 135.595 121.991 135.574 122.247H129.67C129.712 123.079 129.952 123.751 130.39 124.263C130.827 124.764 131.435 125.015 132.214 125.015C132.704 125.015 133.126 124.919 133.478 124.727C133.83 124.546 134.272 124.204 134.806 123.703ZM129.702 121.223H134.246C134.214 120.519 134 119.964 133.606 119.559C133.222 119.154 132.699 118.951 132.038 118.951C131.398 118.951 130.875 119.148 130.47 119.543C130.064 119.938 129.808 120.498 129.702 121.223ZM140.649 118.999C139.902 118.999 139.315 119.292 138.889 119.879C138.462 120.455 138.249 121.164 138.249 122.007C138.249 122.839 138.457 123.548 138.873 124.135C139.299 124.711 139.897 124.999 140.665 124.999C141.091 124.999 141.475 124.908 141.817 124.727C142.169 124.535 142.569 124.188 143.017 123.687L143.929 124.455C143.427 125.084 142.926 125.527 142.425 125.783C141.923 126.039 141.337 126.167 140.665 126.167C139.513 126.167 138.585 125.788 137.881 125.031C137.187 124.274 136.841 123.266 136.841 122.007C136.841 120.759 137.193 119.756 137.897 118.999C138.611 118.231 139.534 117.847 140.665 117.847C141.315 117.847 141.881 117.959 142.361 118.183C142.851 118.407 143.337 118.791 143.817 119.335L142.921 120.183C142.515 119.746 142.137 119.442 141.785 119.271C141.443 119.09 141.065 118.999 140.649 118.999ZM149.495 124.727L149.703 125.815C149.191 125.996 148.653 126.087 148.087 126.087C147.373 126.087 146.855 125.927 146.535 125.607C146.215 125.276 146.055 124.78 146.055 124.119V119.111H144.583V118.071H146.055V115.431H147.431V118.071H149.559V119.111H147.431V123.959C147.431 124.311 147.501 124.562 147.639 124.711C147.789 124.85 148.029 124.919 148.359 124.919C148.658 124.919 149.037 124.855 149.495 124.727ZM159.531 118.071H160.923L157.771 127.031C157.505 127.778 157.206 128.295 156.875 128.583C156.545 128.882 156.054 129.031 155.403 129.031C154.945 129.031 154.539 128.978 154.187 128.871L154.427 127.815C154.715 127.879 154.998 127.911 155.275 127.911C155.606 127.911 155.867 127.82 156.059 127.639C156.262 127.458 156.443 127.132 156.603 126.663L156.699 126.359L153.739 118.071H155.195L156.075 120.679C156.31 121.362 156.699 122.524 157.243 124.167L157.371 124.567L157.851 123.111L158.651 120.647L159.531 118.071ZM168.388 119.015C169.114 119.783 169.476 120.78 169.476 122.007C169.476 123.234 169.114 124.236 168.388 125.015C167.663 125.783 166.73 126.167 165.588 126.167C164.447 126.167 163.508 125.783 162.772 125.015C162.047 124.236 161.684 123.234 161.684 122.007C161.684 120.78 162.047 119.783 162.772 119.015C163.508 118.236 164.447 117.847 165.588 117.847C166.73 117.847 167.663 118.236 168.388 119.015ZM163.764 119.831C163.316 120.386 163.092 121.111 163.092 122.007C163.092 122.903 163.316 123.628 163.764 124.183C164.223 124.738 164.831 125.015 165.588 125.015C166.346 125.015 166.948 124.743 167.396 124.199C167.844 123.644 168.068 122.914 168.068 122.007C168.068 121.1 167.844 120.375 167.396 119.831C166.948 119.276 166.346 118.999 165.588 118.999C164.831 118.999 164.223 119.276 163.764 119.831ZM176.205 118.071H177.581V125.943H176.301V124.967C175.821 125.767 175.026 126.167 173.917 126.167C172.989 126.167 172.29 125.938 171.821 125.479C171.352 125.02 171.117 124.391 171.117 123.591V118.071H172.493V123.255C172.493 124.407 173.042 124.983 174.141 124.983C174.76 124.983 175.256 124.796 175.629 124.423C176.013 124.05 176.205 123.532 176.205 122.871V118.071ZM184.223 118.215L183.967 119.367C183.604 119.26 183.263 119.207 182.943 119.207C182.388 119.207 181.94 119.436 181.599 119.895C181.268 120.343 181.103 120.951 181.103 121.719V125.943H179.727V118.071H181.023V119.255C181.439 118.402 182.089 117.975 182.975 117.975C183.38 117.975 183.796 118.055 184.223 118.215ZM197.246 116.151C198.142 117.186 198.59 118.556 198.59 120.263C198.59 121.97 198.142 123.346 197.246 124.391C196.361 125.426 195.134 125.943 193.566 125.943H189.326V114.583H193.566C195.134 114.583 196.361 115.106 197.246 116.151ZM193.326 115.815H190.798V124.711H193.326C194.521 124.711 195.443 124.322 196.094 123.543C196.755 122.754 197.086 121.66 197.086 120.263C197.086 118.876 196.755 117.788 196.094 116.999C195.433 116.21 194.51 115.815 193.326 115.815ZM201.712 118.071V125.943H200.336V118.071H201.712ZM201.712 114.871V116.519H200.336V114.871H201.712ZM209.772 118.999L209.02 119.927C208.54 119.554 208.118 119.303 207.756 119.175C207.404 119.036 206.998 118.967 206.54 118.967C206.017 118.967 205.596 119.079 205.276 119.303C204.966 119.516 204.812 119.794 204.812 120.135C204.854 120.466 204.993 120.695 205.228 120.823C205.462 120.94 206.028 121.1 206.924 121.303C208.012 121.559 208.78 121.863 209.228 122.215C209.676 122.556 209.9 123.058 209.9 123.719C209.9 124.455 209.612 125.047 209.036 125.495C208.46 125.943 207.697 126.167 206.748 126.167C206.033 126.167 205.398 126.06 204.844 125.847C204.3 125.623 203.724 125.239 203.116 124.695L203.932 123.799C204.508 124.279 204.998 124.604 205.404 124.775C205.809 124.946 206.262 125.031 206.764 125.031C207.286 125.031 207.713 124.919 208.044 124.695C208.385 124.471 208.556 124.167 208.556 123.783C208.556 123.41 208.396 123.132 208.076 122.951C207.756 122.77 207.18 122.588 206.348 122.407C205.228 122.151 204.476 121.884 204.092 121.607C203.708 121.319 203.505 120.844 203.484 120.183C203.484 119.49 203.766 118.93 204.332 118.503C204.897 118.066 205.633 117.847 206.54 117.847C207.19 117.847 207.761 117.938 208.252 118.119C208.742 118.29 209.249 118.583 209.772 118.999ZM214.867 118.999C214.121 118.999 213.534 119.292 213.107 119.879C212.681 120.455 212.467 121.164 212.467 122.007C212.467 122.839 212.675 123.548 213.091 124.135C213.518 124.711 214.115 124.999 214.883 124.999C215.31 124.999 215.694 124.908 216.035 124.727C216.387 124.535 216.787 124.188 217.235 123.687L218.147 124.455C217.646 125.084 217.145 125.527 216.643 125.783C216.142 126.039 215.555 126.167 214.883 126.167C213.731 126.167 212.803 125.788 212.099 125.031C211.406 124.274 211.059 123.266 211.059 122.007C211.059 120.759 211.411 119.756 212.115 118.999C212.83 118.231 213.753 117.847 214.883 117.847C215.534 117.847 216.099 117.959 216.579 118.183C217.07 118.407 217.555 118.791 218.035 119.335L217.139 120.183C216.734 119.746 216.355 119.442 216.003 119.271C215.662 119.09 215.283 118.999 214.867 118.999ZM225.607 119.015C226.332 119.783 226.695 120.78 226.695 122.007C226.695 123.234 226.332 124.236 225.607 125.015C224.882 125.783 223.948 126.167 222.807 126.167C221.666 126.167 220.727 125.783 219.991 125.015C219.266 124.236 218.903 123.234 218.903 122.007C218.903 120.78 219.266 119.783 219.991 119.015C220.727 118.236 221.666 117.847 222.807 117.847C223.948 117.847 224.882 118.236 225.607 119.015ZM220.983 119.831C220.535 120.386 220.311 121.111 220.311 122.007C220.311 122.903 220.535 123.628 220.983 124.183C221.442 124.738 222.05 125.015 222.807 125.015C223.564 125.015 224.167 124.743 224.615 124.199C225.063 123.644 225.287 122.914 225.287 122.007C225.287 121.1 225.063 120.375 224.615 119.831C224.167 119.276 223.564 118.999 222.807 118.999C222.05 118.999 221.442 119.276 220.983 119.831ZM232.848 118.215L232.592 119.367C232.229 119.26 231.888 119.207 231.568 119.207C231.013 119.207 230.565 119.436 230.224 119.895C229.893 120.343 229.728 120.951 229.728 121.719V125.943H228.352V118.071H229.648V119.255C230.064 118.402 230.714 117.975 231.6 117.975C232.005 117.975 232.421 118.055 232.848 118.215ZM239.281 114.583H240.657V125.943H239.361V124.727C238.774 125.676 237.878 126.151 236.673 126.151C235.659 126.151 234.827 125.767 234.177 124.999C233.526 124.231 233.201 123.234 233.201 122.007C233.201 120.78 233.531 119.783 234.193 119.015C234.854 118.247 235.691 117.863 236.705 117.863C237.846 117.863 238.705 118.284 239.281 119.127V114.583ZM238.657 124.183C239.105 123.639 239.329 122.914 239.329 122.007C239.329 121.1 239.105 120.38 238.657 119.847C238.209 119.314 237.617 119.047 236.881 119.047C236.198 119.047 235.649 119.319 235.233 119.863C234.817 120.407 234.609 121.122 234.609 122.007C234.609 122.903 234.811 123.623 235.217 124.167C235.633 124.711 236.187 124.983 236.881 124.983C237.617 124.983 238.209 124.716 238.657 124.183Z" fill="#FEFFFC"/>
<path d="M100.69 115.943L101.454 116.588L102.094 115.829L101.341 115.184L100.69 115.943ZM99.8262 116.967L99.183 117.733L99.947 118.374L100.59 117.612L99.8262 116.967ZM93.7622 116.919L94.5241 117.567L94.5281 117.562L93.7622 116.919ZM93.7462 123.607L92.9717 124.24L92.9803 124.25L93.7462 123.607ZM98.2422 124.535L98.6817 125.433L98.6894 125.429L98.2422 124.535ZM99.9862 123.239L100.722 122.562L100.04 121.82L99.3034 122.508L99.9862 123.239ZM100.898 124.231L101.584 124.958L102.303 124.281L101.634 123.554L100.898 124.231ZM98.7862 125.751L99.2033 126.66L99.2098 126.657L98.7862 125.751ZM92.6582 124.535L93.4072 123.872L92.6582 124.535ZM92.6582 115.975L91.9124 115.309L92.6582 115.975ZM98.7382 114.711L98.3614 115.637L98.3681 115.64L98.375 115.643L98.7382 114.711ZM99.9259 115.298L99.0619 116.322L100.59 117.612L101.454 116.588L99.9259 115.298ZM100.469 116.201C99.2829 115.205 98.0071 114.623 96.6582 114.623V116.623C97.3998 116.623 98.2361 116.937 99.183 117.733L100.469 116.201ZM96.6582 114.623C95.1804 114.623 93.926 115.168 92.9963 116.276L94.5281 117.562C95.049 116.941 95.7253 116.623 96.6582 116.623V114.623ZM93.0002 116.271C92.0883 117.344 91.6742 118.706 91.6742 120.263H93.6742C93.6742 119.068 93.9853 118.2 94.5241 117.567L93.0002 116.271ZM91.6742 120.263C91.6742 121.8 92.0836 123.153 92.9718 124.24L94.5205 122.974C93.9794 122.312 93.6742 121.435 93.6742 120.263H91.6742ZM92.9803 124.25C93.9002 125.346 95.1219 125.903 96.5622 125.903V123.903C95.6984 123.903 95.0428 123.596 94.5121 122.964L92.9803 124.25ZM96.5622 125.903C97.3165 125.903 98.0293 125.752 98.6817 125.433L97.8026 123.637C97.4524 123.808 97.0452 123.903 96.5622 123.903V125.903ZM98.6894 125.429C99.3212 125.113 99.9824 124.611 100.669 123.97L99.3034 122.508C98.6886 123.083 98.1871 123.444 97.7949 123.64L98.6894 125.429ZM99.25 123.916L100.162 124.908L101.634 123.554L100.722 122.562L99.25 123.916ZM100.212 123.503C99.5141 124.161 98.8971 124.595 98.3625 124.845L99.2098 126.657C99.9979 126.288 100.789 125.708 101.584 124.958L100.212 123.503ZM98.369 124.842C97.8671 125.072 97.2766 125.199 96.5782 125.199V127.199C97.5223 127.199 98.4038 127.027 99.2033 126.66L98.369 124.842ZM96.5782 125.199C95.1999 125.199 94.178 124.744 93.4072 123.872L91.9092 125.197C93.1009 126.545 94.6924 127.199 96.5782 127.199V125.199ZM93.4072 123.872C92.616 122.978 92.1862 121.799 92.1862 120.247H90.1862C90.1862 122.194 90.7376 123.873 91.9092 125.197L93.4072 123.872ZM92.1862 120.247C92.1862 118.695 92.6161 117.523 93.404 116.641L91.9124 115.309C90.7376 116.624 90.1862 118.3 90.1862 120.247H92.1862ZM93.404 116.641C94.1673 115.786 95.2122 115.327 96.6582 115.327V113.327C94.7334 113.327 93.1117 113.966 91.9124 115.309L93.404 116.641ZM96.6582 115.327C97.3011 115.327 97.8647 115.435 98.3614 115.637L99.115 113.785C98.353 113.475 97.5299 113.327 96.6582 113.327V115.327ZM98.375 115.643C98.8726 115.837 99.4278 116.178 100.039 116.702L101.341 115.184C100.609 114.556 99.8624 114.076 99.1014 113.779L98.375 115.643ZM108.591 119.015L107.86 119.696L107.864 119.701L108.591 119.015ZM108.591 125.015L109.318 125.702L109.323 125.696L108.591 125.015ZM102.975 125.015L102.244 125.696L102.249 125.702L102.253 125.707L102.975 125.015ZM102.975 119.015L102.249 118.328L102.248 118.328L102.975 119.015ZM103.967 119.831L103.197 119.194L103.189 119.203L103.967 119.831ZM103.967 124.183L103.189 124.811L103.197 124.82L103.967 124.183ZM107.599 124.199L108.371 124.835L108.377 124.827L107.599 124.199ZM107.599 119.831L106.821 120.459L106.827 120.467L107.599 119.831ZM107.864 119.701C108.386 120.254 108.679 120.991 108.679 122.007H110.679C110.679 120.569 110.247 119.312 109.318 118.328L107.864 119.701ZM108.679 122.007C108.679 123.022 108.386 123.768 107.86 124.333L109.323 125.696C110.247 124.704 110.679 123.445 110.679 122.007H108.679ZM107.864 124.328C107.344 124.879 106.682 125.167 105.791 125.167V127.167C107.183 127.167 108.388 126.687 109.318 125.701L107.864 124.328ZM105.791 125.167C104.901 125.167 104.23 124.879 103.697 124.323L102.253 125.707C103.193 126.687 104.4 127.167 105.791 127.167V125.167ZM103.707 124.333C103.181 123.768 102.887 123.022 102.887 122.007H100.887C100.887 123.445 101.32 124.704 102.244 125.696L103.707 124.333ZM102.887 122.007C102.887 120.991 103.181 120.254 103.702 119.701L102.248 118.328C101.32 119.312 100.887 120.569 100.887 122.007H102.887ZM103.702 119.702C104.236 119.137 104.905 118.847 105.791 118.847V116.847C104.395 116.847 103.187 117.335 102.249 118.328L103.702 119.702ZM105.791 118.847C106.678 118.847 107.338 119.137 107.86 119.696L109.323 118.333C108.394 117.336 107.188 116.847 105.791 116.847V118.847ZM103.189 119.203C102.564 119.977 102.295 120.942 102.295 122.007H104.295C104.295 121.28 104.475 120.794 104.745 120.459L103.189 119.203ZM102.295 122.007C102.295 123.072 102.564 124.037 103.189 124.811L104.745 123.555C104.475 123.219 104.295 122.734 104.295 122.007H102.295ZM103.197 124.82C103.857 125.618 104.754 126.015 105.791 126.015V124.015C105.314 124.015 104.996 123.857 104.738 123.546L103.197 124.82ZM105.791 126.015C106.822 126.015 107.718 125.628 108.371 124.835L106.827 123.563C106.585 123.858 106.275 124.015 105.791 124.015V126.015ZM108.377 124.827C109.004 124.051 109.271 123.079 109.271 122.007H107.271C107.271 122.748 107.091 123.237 106.821 123.571L108.377 124.827ZM109.271 122.007C109.271 120.936 109.005 119.964 108.371 119.195L106.827 120.467C107.09 120.785 107.271 121.265 107.271 122.007H109.271ZM108.377 119.203C107.726 118.397 106.829 117.999 105.791 117.999V119.999C106.268 119.999 106.576 120.156 106.821 120.459L108.377 119.203ZM105.791 117.999C104.754 117.999 103.857 118.396 103.197 119.194L104.738 120.468C104.996 120.157 105.314 119.999 105.791 119.999V117.999ZM117.928 125.943V126.943H118.928V125.943H117.928ZM116.552 125.943H115.552V126.943H116.552V125.943ZM116.088 119.527L115.347 120.198L115.352 120.204L115.358 120.21L116.088 119.527ZM113.304 119.607L114.002 120.324L114.011 120.314L113.304 119.607ZM112.712 125.943V126.943H113.712V125.943H112.712ZM111.336 125.943H110.336V126.943H111.336V125.943ZM111.336 118.071V117.071H110.336V118.071H111.336ZM112.632 118.071H113.632V117.071H112.632V118.071ZM112.632 119.079H111.632V122.573L113.481 119.608L112.632 119.079ZM117.192 118.599L116.477 119.298L117.192 118.599ZM116.928 120.551V125.943H118.928V120.551H116.928ZM117.928 124.943H116.552V126.943H117.928V124.943ZM117.552 125.943V120.983H115.552V125.943H117.552ZM117.552 120.983C117.552 120.194 117.362 119.424 116.818 118.844L115.358 120.21C115.433 120.291 115.552 120.492 115.552 120.983H117.552ZM116.829 118.855C116.281 118.251 115.531 118.015 114.744 118.015V120.015C115.131 120.015 115.276 120.12 115.347 120.198L116.829 118.855ZM114.744 118.015C113.917 118.015 113.182 118.315 112.597 118.9L114.011 120.314C114.216 120.11 114.44 120.015 114.744 120.015V118.015ZM112.607 118.89C112.005 119.476 111.712 120.226 111.712 121.063H113.712C113.712 120.727 113.814 120.506 114.002 120.324L112.607 118.89ZM111.712 121.063V125.943H113.712V121.063H111.712ZM112.712 124.943H111.336V126.943H112.712V124.943ZM112.336 125.943V118.071H110.336V125.943H112.336ZM111.336 119.071H112.632V117.071H111.336V119.071ZM111.632 118.071V119.079H113.632V118.071H111.632ZM113.481 119.608C113.775 119.136 114.244 118.847 115.112 118.847V116.847C113.698 116.847 112.513 117.379 111.784 118.55L113.481 119.608ZM115.112 118.847C115.818 118.847 116.224 119.039 116.477 119.298L117.907 117.899C117.179 117.156 116.199 116.847 115.112 116.847V118.847ZM116.477 119.298C116.759 119.586 116.928 119.973 116.928 120.551H118.928C118.928 119.529 118.606 118.614 117.907 117.899L116.477 119.298ZM126.647 125.943V126.943H127.647V125.943H126.647ZM125.271 125.943H124.271V126.943H125.271V125.943ZM124.807 119.527L124.066 120.198L124.071 120.204L124.077 120.21L124.807 119.527ZM122.023 119.607L122.72 120.324L122.73 120.314L122.023 119.607ZM121.431 125.943V126.943H122.431V125.943H121.431ZM120.055 125.943H119.055V126.943H120.055V125.943ZM120.055 118.071V117.071H119.055V118.071H120.055ZM121.351 118.071H122.351V117.071H121.351V118.071ZM121.351 119.079H120.351V122.573L122.2 119.608L121.351 119.079ZM125.911 118.599L125.196 119.298L125.911 118.599ZM125.647 120.551V125.943H127.647V120.551H125.647ZM126.647 124.943H125.271V126.943H126.647V124.943ZM126.271 125.943V120.983H124.271V125.943H126.271ZM126.271 120.983C126.271 120.194 126.08 119.424 125.537 118.844L124.077 120.21C124.152 120.291 124.271 120.492 124.271 120.983H126.271ZM125.548 118.855C125 118.251 124.25 118.015 123.463 118.015V120.015C123.85 120.015 123.995 120.12 124.066 120.198L125.548 118.855ZM123.463 118.015C122.636 118.015 121.901 118.315 121.316 118.9L122.73 120.314C122.934 120.11 123.159 120.015 123.463 120.015V118.015ZM121.326 118.89C120.724 119.476 120.431 120.226 120.431 121.063H122.431C122.431 120.727 122.533 120.506 122.72 120.324L121.326 118.89ZM120.431 121.063V125.943H122.431V121.063H120.431ZM121.431 124.943H120.055V126.943H121.431V124.943ZM121.055 125.943V118.071H119.055V125.943H121.055ZM120.055 119.071H121.351V117.071H120.055V119.071ZM120.351 118.071V119.079H122.351V118.071H120.351ZM122.2 119.608C122.494 119.136 122.962 118.847 123.831 118.847V116.847C122.417 116.847 121.232 117.379 120.502 118.55L122.2 119.608ZM123.831 118.847C124.536 118.847 124.942 119.039 125.196 119.298L126.626 117.899C125.898 117.156 124.917 116.847 123.831 116.847V118.847ZM125.196 119.298C125.478 119.586 125.647 119.973 125.647 120.551H127.647C127.647 119.529 127.325 118.614 126.626 117.899L125.196 119.298ZM134.806 123.703L135.52 123.003L134.834 122.304L134.121 122.974L134.806 123.703ZM135.622 124.535L136.348 125.222L137.01 124.523L136.336 123.835L135.622 124.535ZM133.99 125.799L133.565 124.894L133.99 125.799ZM129.35 125.047L128.617 125.728L128.622 125.733L128.627 125.738L129.35 125.047ZM129.318 119.031L128.566 118.371L128.566 118.372L129.318 119.031ZM134.662 118.855L133.926 119.532L133.932 119.538L134.662 118.855ZM135.574 122.247V123.247H136.494L136.57 122.33L135.574 122.247ZM129.67 122.247V121.247H128.617L128.671 122.298L129.67 122.247ZM130.39 124.263L129.629 124.912L129.636 124.92L130.39 124.263ZM133.478 124.727L133.02 123.838L133.009 123.843L132.999 123.849L133.478 124.727ZM129.702 121.223L128.712 121.077L128.544 122.223H129.702V121.223ZM134.246 121.223V122.223H135.292L135.245 121.177L134.246 121.223ZM133.606 119.559L132.88 120.247L132.889 120.256L133.606 119.559ZM134.092 124.403L134.908 125.235L136.336 123.835L135.52 123.003L134.092 124.403ZM134.895 123.847C134.382 124.389 133.937 124.719 133.565 124.894L134.415 126.704C135.088 126.388 135.73 125.875 136.348 125.222L134.895 123.847ZM133.565 124.894C133.195 125.067 132.747 125.167 132.198 125.167V127.167C132.993 127.167 133.739 127.021 134.415 126.704L133.565 124.894ZM132.198 125.167C131.243 125.167 130.57 124.876 130.072 124.355L128.627 125.738C129.559 126.711 130.784 127.167 132.198 127.167V125.167ZM130.082 124.366C129.583 123.829 129.294 123.092 129.294 122.055H127.294C127.294 123.492 127.708 124.75 128.617 125.728L130.082 124.366ZM129.294 122.055C129.294 121.01 129.577 120.252 130.07 119.69L128.566 118.372C127.693 119.367 127.294 120.625 127.294 122.055H129.294ZM130.069 119.691C130.557 119.136 131.186 118.847 132.054 118.847V116.847C130.66 116.847 129.465 117.348 128.566 118.371L130.069 119.691ZM132.054 118.847C132.962 118.847 133.538 119.111 133.926 119.532L135.397 118.178C134.548 117.255 133.385 116.847 132.054 116.847V118.847ZM133.932 119.538C134.342 119.977 134.606 120.634 134.606 121.639H136.606C136.606 120.276 136.24 119.077 135.392 118.171L133.932 119.538ZM134.606 121.639C134.606 121.748 134.598 121.919 134.577 122.164L136.57 122.33C136.592 122.063 136.606 121.829 136.606 121.639H134.606ZM135.574 121.247H129.67V123.247H135.574V121.247ZM128.671 122.298C128.722 123.297 129.017 124.196 129.629 124.912L131.15 123.613C130.887 123.306 130.702 122.861 130.668 122.196L128.671 122.298ZM129.636 124.92C130.296 125.677 131.2 126.015 132.214 126.015V124.015C131.67 124.015 131.358 123.851 131.143 123.606L129.636 124.92ZM132.214 126.015C132.835 126.015 133.428 125.893 133.957 125.605L132.999 123.849C132.823 123.945 132.574 124.015 132.214 124.015V126.015ZM133.936 125.616C134.413 125.37 134.936 124.952 135.491 124.431L134.121 122.974C133.608 123.456 133.246 123.721 133.02 123.838L133.936 125.616ZM129.702 122.223H134.246V120.223H129.702V122.223ZM135.245 121.177C135.204 120.291 134.927 119.482 134.322 118.861L132.889 120.256C133.074 120.446 133.223 120.746 133.247 121.268L135.245 121.177ZM134.332 118.871C133.724 118.23 132.919 117.951 132.038 117.951V119.951C132.479 119.951 132.719 120.077 132.88 120.247L134.332 118.871ZM132.038 117.951C131.174 117.951 130.389 118.226 129.772 118.826L131.167 120.259C131.361 120.071 131.621 119.951 132.038 119.951V117.951ZM129.772 118.826C129.168 119.414 128.841 120.199 128.712 121.077L130.691 121.368C130.775 120.796 130.96 120.461 131.167 120.259L129.772 118.826ZM138.889 119.879L139.692 120.474L139.697 120.467L138.889 119.879ZM138.873 124.135L138.057 124.713L138.063 124.722L138.069 124.73L138.873 124.135ZM141.817 124.727L142.286 125.61L142.295 125.605L141.817 124.727ZM143.017 123.687L143.661 122.922L142.918 122.296L142.271 123.021L143.017 123.687ZM143.929 124.455L144.711 125.078L145.317 124.317L144.573 123.69L143.929 124.455ZM142.425 125.783L141.97 124.892V124.892L142.425 125.783ZM137.881 125.031L137.143 125.706L137.148 125.712L137.881 125.031ZM137.897 118.999L137.164 118.318L137.164 118.318L137.897 118.999ZM142.361 118.183L141.938 119.089L141.945 119.093L142.361 118.183ZM143.817 119.335L144.504 120.061L145.205 119.397L144.566 118.673L143.817 119.335ZM142.921 120.183L142.187 120.863L142.874 121.604L143.608 120.909L142.921 120.183ZM141.785 119.271L141.315 120.154L141.332 120.163L141.348 120.171L141.785 119.271ZM140.649 117.999C139.593 117.999 138.701 118.436 138.08 119.291L139.697 120.467C139.929 120.148 140.211 119.999 140.649 119.999V117.999ZM138.085 119.284C137.509 120.061 137.249 120.989 137.249 122.007H139.249C139.249 121.34 139.414 120.849 139.692 120.474L138.085 119.284ZM137.249 122.007C137.249 123.013 137.503 123.932 138.057 124.713L139.688 123.556C139.41 123.164 139.249 122.665 139.249 122.007H137.249ZM138.069 124.73C138.699 125.581 139.606 125.999 140.665 125.999V123.999C140.187 123.999 139.899 123.841 139.676 123.54L138.069 124.73ZM140.665 125.999C141.237 125.999 141.785 125.876 142.286 125.61L141.347 123.844C141.165 123.941 140.945 123.999 140.665 123.999V125.999ZM142.295 125.605C142.793 125.333 143.282 124.89 143.762 124.353L142.271 123.021C141.855 123.486 141.544 123.736 141.338 123.849L142.295 125.605ZM142.372 124.452L143.284 125.22L144.573 123.69L143.661 122.922L142.372 124.452ZM143.146 123.832C142.699 124.394 142.302 124.723 141.97 124.892L142.879 126.673C143.55 126.331 144.156 125.774 144.711 125.078L143.146 123.832ZM141.97 124.892C141.634 125.064 141.209 125.167 140.665 125.167V127.167C141.464 127.167 142.212 127.014 142.879 126.673L141.97 124.892ZM140.665 125.167C139.755 125.167 139.105 124.879 138.613 124.35L137.148 125.712C138.064 126.697 139.27 127.167 140.665 127.167V125.167ZM138.618 124.356C138.13 123.822 137.841 123.075 137.841 122.007H135.841C135.841 123.456 136.245 124.725 137.143 125.706L138.618 124.356ZM137.841 122.007C137.841 120.956 138.131 120.215 138.629 119.68L137.164 118.318C136.254 119.297 135.841 120.562 135.841 122.007H137.841ZM138.629 119.68C139.138 119.132 139.787 118.847 140.665 118.847V116.847C139.28 116.847 138.084 117.329 137.164 118.318L138.629 119.68ZM140.665 118.847C141.202 118.847 141.617 118.939 141.938 119.089L142.783 117.277C142.144 116.978 141.429 116.847 140.665 116.847V118.847ZM141.945 119.093C142.272 119.242 142.649 119.523 143.067 119.996L144.566 118.673C144.024 118.058 143.43 117.572 142.776 117.273L141.945 119.093ZM143.129 118.609L142.233 119.457L143.608 120.909L144.504 120.061L143.129 118.609ZM143.654 119.503C143.204 119.017 142.727 118.617 142.221 118.371L141.348 120.171C141.546 120.266 141.827 120.474 142.187 120.863L143.654 119.503ZM142.254 118.388C141.757 118.124 141.215 117.999 140.649 117.999V119.999C140.914 119.999 141.129 120.055 141.315 120.154L142.254 118.388ZM149.495 124.727L150.478 124.539L150.274 123.472L149.227 123.764L149.495 124.727ZM149.703 125.815L150.037 126.757L150.847 126.471L150.686 125.627L149.703 125.815ZM146.535 125.607L145.817 126.302L145.823 126.308L145.828 126.314L146.535 125.607ZM146.055 119.111H147.055V118.111H146.055V119.111ZM144.583 119.111H143.583V120.111H144.583V119.111ZM144.583 118.071V117.071H143.583V118.071H144.583ZM146.055 118.071V119.071H147.055V118.071H146.055ZM146.055 115.431V114.431H145.055V115.431H146.055ZM147.431 115.431H148.431V114.431H147.431V115.431ZM147.431 118.071H146.431V119.071H147.431V118.071ZM149.559 118.071H150.559V117.071H149.559V118.071ZM149.559 119.111V120.111H150.559V119.111H149.559ZM147.431 119.111V118.111H146.431V119.111H147.431ZM147.639 124.711L146.907 125.391L146.932 125.418L146.959 125.444L147.639 124.711ZM148.513 124.915L148.721 126.003L150.686 125.627L150.478 124.539L148.513 124.915ZM149.37 124.872C148.969 125.014 148.544 125.087 148.087 125.087V127.087C148.762 127.087 149.414 126.978 150.037 126.757L149.37 124.872ZM148.087 125.087C147.489 125.087 147.291 124.948 147.243 124.9L145.828 126.314C146.42 126.905 147.256 127.087 148.087 127.087V125.087ZM147.254 124.911C147.18 124.835 147.055 124.634 147.055 124.119H145.055C145.055 124.926 145.25 125.717 145.817 126.302L147.254 124.911ZM147.055 124.119V119.111H145.055V124.119H147.055ZM146.055 118.111H144.583V120.111H146.055V118.111ZM145.583 119.111V118.071H143.583V119.111H145.583ZM144.583 119.071H146.055V117.071H144.583V119.071ZM147.055 118.071V115.431H145.055V118.071H147.055ZM146.055 116.431H147.431V114.431H146.055V116.431ZM146.431 115.431V118.071H148.431V115.431H146.431ZM147.431 119.071H149.559V117.071H147.431V119.071ZM148.559 118.071V119.111H150.559V118.071H148.559ZM149.559 118.111H147.431V120.111H149.559V118.111ZM146.431 119.111V123.959H148.431V119.111H146.431ZM146.431 123.959C146.431 124.394 146.508 124.962 146.907 125.391L148.372 124.03C148.438 124.101 148.451 124.157 148.447 124.144C148.446 124.139 148.442 124.122 148.438 124.09C148.434 124.058 148.431 124.015 148.431 123.959H146.431ZM146.959 125.444C147.379 125.834 147.925 125.919 148.359 125.919V123.919C148.311 123.919 148.275 123.916 148.249 123.913C148.223 123.91 148.211 123.907 148.209 123.906C148.206 123.905 148.257 123.92 148.32 123.978L146.959 125.444ZM148.359 125.919C148.786 125.919 149.263 125.83 149.764 125.69L149.227 123.764C148.81 123.88 148.53 123.919 148.359 123.919V125.919ZM159.531 118.071V117.071H158.816L158.585 117.748L159.531 118.071ZM160.923 118.071L161.867 118.403L162.335 117.071H160.923V118.071ZM157.771 127.031L158.713 127.367L158.715 127.363L157.771 127.031ZM156.875 128.583L156.219 127.829L156.212 127.835L156.205 127.841L156.875 128.583ZM154.187 128.871L153.212 128.649L153.006 129.558L153.897 129.828L154.187 128.871ZM154.427 127.815L154.644 126.839L153.673 126.623L153.452 127.593L154.427 127.815ZM156.059 127.639L155.392 126.894L155.382 126.903L155.373 126.912L156.059 127.639ZM156.603 126.663L157.55 126.986L157.553 126.975L157.557 126.964L156.603 126.663ZM156.699 126.359L157.653 126.66L157.754 126.339L157.641 126.023L156.699 126.359ZM153.739 118.071V117.071H152.32L152.798 118.407L153.739 118.071ZM155.195 118.071L156.143 117.751L155.913 117.071H155.195V118.071ZM156.075 120.679L155.128 120.999L155.13 121.004L156.075 120.679ZM157.243 124.167L158.196 123.862L158.193 123.852L157.243 124.167ZM157.371 124.567L156.419 124.872L157.357 127.804L158.321 124.88L157.371 124.567ZM157.851 123.111L158.801 123.424L158.802 123.42L157.851 123.111ZM158.651 120.647L157.705 120.324L157.703 120.331L157.7 120.338L158.651 120.647ZM159.531 119.071H160.923V117.071H159.531V119.071ZM159.98 117.739L156.828 126.699L158.715 127.363L161.867 118.403L159.98 117.739ZM156.83 126.695C156.581 127.391 156.353 127.711 156.219 127.829L157.532 129.337C158.059 128.878 158.428 128.164 158.713 127.367L156.83 126.695ZM156.205 127.841C156.127 127.911 155.918 128.031 155.403 128.031V130.031C156.189 130.031 156.962 129.852 157.546 129.325L156.205 127.841ZM155.403 128.031C155.02 128.031 154.715 127.986 154.477 127.914L153.897 129.828C154.363 129.969 154.87 130.031 155.403 130.031V128.031ZM155.162 129.092L155.402 128.036L153.452 127.593L153.212 128.649L155.162 129.092ZM154.21 128.791C154.565 128.87 154.921 128.911 155.275 128.911V126.911C155.075 126.911 154.866 126.888 154.644 126.839L154.21 128.791ZM155.275 128.911C155.794 128.911 156.324 128.764 156.746 128.366L155.373 126.912C155.377 126.908 155.383 126.903 155.388 126.9C155.393 126.897 155.395 126.897 155.392 126.898C155.385 126.901 155.35 126.911 155.275 126.911V128.911ZM156.726 128.384C157.124 128.028 157.373 127.504 157.55 126.986L155.657 126.34C155.59 126.535 155.527 126.676 155.474 126.772C155.419 126.871 155.387 126.899 155.392 126.894L156.726 128.384ZM157.557 126.964L157.653 126.66L155.746 126.058L155.65 126.362L157.557 126.964ZM157.641 126.023L154.681 117.735L152.798 118.407L155.758 126.695L157.641 126.023ZM153.739 119.071H155.195V117.071H153.739V119.071ZM154.248 118.391L155.128 120.999L157.023 120.359L156.143 117.751L154.248 118.391ZM155.13 121.004C155.362 121.681 155.75 122.839 156.294 124.481L158.193 123.852C157.649 122.21 157.258 121.042 157.021 120.354L155.13 121.004ZM156.291 124.472L156.419 124.872L158.324 124.262L158.196 123.862L156.291 124.472ZM158.321 124.88L158.801 123.424L156.902 122.798L156.422 124.254L158.321 124.88ZM158.802 123.42L159.602 120.956L157.7 120.338L156.9 122.802L158.802 123.42ZM159.598 120.97L160.478 118.394L158.585 117.748L157.705 120.324L159.598 120.97ZM168.388 119.015L167.657 119.696L167.661 119.701L168.388 119.015ZM168.388 125.015L169.115 125.702L169.12 125.696L168.388 125.015ZM162.772 125.015L162.041 125.696L162.045 125.702L162.05 125.707L162.772 125.015ZM162.772 119.015L162.046 118.328L162.045 118.328L162.772 119.015ZM163.764 119.831L162.994 119.194L162.986 119.203L163.764 119.831ZM163.764 124.183L162.986 124.811L162.994 124.82L163.764 124.183ZM167.396 124.199L168.168 124.835L168.174 124.827L167.396 124.199ZM167.396 119.831L166.618 120.459L166.624 120.467L167.396 119.831ZM167.661 119.701C168.183 120.254 168.476 120.991 168.476 122.007H170.476C170.476 120.569 170.044 119.312 169.115 118.328L167.661 119.701ZM168.476 122.007C168.476 123.022 168.183 123.768 167.657 124.333L169.12 125.696C170.044 124.704 170.476 123.445 170.476 122.007H168.476ZM167.661 124.328C167.141 124.879 166.479 125.167 165.588 125.167V127.167C166.98 127.167 168.185 126.687 169.115 125.701L167.661 124.328ZM165.588 125.167C164.697 125.167 164.027 124.879 163.494 124.323L162.05 125.707C162.99 126.687 164.197 127.167 165.588 127.167V125.167ZM163.504 124.333C162.977 123.768 162.684 123.022 162.684 122.007H160.684C160.684 123.445 161.117 124.704 162.041 125.696L163.504 124.333ZM162.684 122.007C162.684 120.991 162.977 120.254 163.499 119.701L162.045 118.328C161.117 119.312 160.684 120.569 160.684 122.007H162.684ZM163.499 119.702C164.033 119.137 164.702 118.847 165.588 118.847V116.847C164.192 116.847 162.984 117.335 162.046 118.328L163.499 119.702ZM165.588 118.847C166.475 118.847 167.135 119.137 167.657 119.696L169.12 118.333C168.191 117.336 166.985 116.847 165.588 116.847V118.847ZM162.986 119.203C162.361 119.977 162.092 120.942 162.092 122.007H164.092C164.092 121.28 164.272 120.794 164.542 120.459L162.986 119.203ZM162.092 122.007C162.092 123.072 162.361 124.037 162.986 124.811L164.542 123.555C164.272 123.219 164.092 122.734 164.092 122.007H162.092ZM162.994 124.82C163.653 125.618 164.551 126.015 165.588 126.015V124.015C165.111 124.015 164.793 123.857 164.535 123.546L162.994 124.82ZM165.588 126.015C166.619 126.015 167.515 125.628 168.168 124.835L166.624 123.563C166.382 123.858 166.072 124.015 165.588 124.015V126.015ZM168.174 124.827C168.801 124.051 169.068 123.079 169.068 122.007H167.068C167.068 122.748 166.887 123.237 166.618 123.571L168.174 124.827ZM169.068 122.007C169.068 120.936 168.802 119.964 168.168 119.195L166.624 120.467C166.887 120.785 167.068 121.265 167.068 122.007H169.068ZM168.174 119.203C167.523 118.397 166.626 117.999 165.588 117.999V119.999C166.065 119.999 166.373 120.156 166.618 120.459L168.174 119.203ZM165.588 117.999C164.551 117.999 163.653 118.396 162.994 119.194L164.535 120.468C164.793 120.157 165.111 119.999 165.588 119.999V117.999ZM176.205 118.071V117.071H175.205V118.071H176.205ZM177.581 118.071H178.581V117.071H177.581V118.071ZM177.581 125.943V126.943H178.581V125.943H177.581ZM176.301 125.943H175.301V126.943H176.301V125.943ZM176.301 124.967H177.301V121.357L175.444 124.452L176.301 124.967ZM171.821 125.479L171.122 126.194L171.821 125.479ZM171.117 118.071V117.071H170.117V118.071H171.117ZM172.493 118.071H173.493V117.071H172.493V118.071ZM175.629 124.423L174.932 123.706L174.922 123.716L175.629 124.423ZM176.205 119.071H177.581V117.071H176.205V119.071ZM176.581 118.071V125.943H178.581V118.071H176.581ZM177.581 124.943H176.301V126.943H177.581V124.943ZM177.301 125.943V124.967H175.301V125.943H177.301ZM175.444 124.452C175.181 124.89 174.753 125.167 173.917 125.167V127.167C175.3 127.167 176.461 126.644 177.159 125.481L175.444 124.452ZM173.917 125.167C173.141 125.167 172.737 124.976 172.52 124.764L171.122 126.194C171.844 126.899 172.837 127.167 173.917 127.167V125.167ZM172.52 124.764C172.284 124.533 172.117 124.185 172.117 123.591H170.117C170.117 124.597 170.419 125.507 171.122 126.194L172.52 124.764ZM172.117 123.591V118.071H170.117V123.591H172.117ZM171.117 119.071H172.493V117.071H171.117V119.071ZM171.493 118.071V123.255H173.493V118.071H171.493ZM171.493 123.255C171.493 123.973 171.664 124.698 172.181 125.241C172.708 125.793 173.425 125.983 174.141 125.983V123.983C173.758 123.983 173.652 123.885 173.629 123.861C173.597 123.828 173.493 123.688 173.493 123.255H171.493ZM174.141 125.983C174.976 125.983 175.743 125.723 176.336 125.13L174.922 123.716C174.768 123.869 174.544 123.983 174.141 123.983V125.983ZM176.326 125.14C176.947 124.536 177.205 123.735 177.205 122.871H175.205C175.205 123.33 175.079 123.563 174.932 123.706L176.326 125.14ZM177.205 122.871V118.071H175.205V122.871H177.205ZM184.223 118.215L185.199 118.432L185.387 117.584L184.574 117.279L184.223 118.215ZM183.967 119.367L183.685 120.326L184.711 120.628L184.943 119.584L183.967 119.367ZM181.599 119.895L180.797 119.298L180.794 119.301L181.599 119.895ZM181.103 125.943V126.943H182.103V125.943H181.103ZM179.727 125.943H178.727V126.943H179.727V125.943ZM179.727 118.071V117.071H178.727V118.071H179.727ZM181.023 118.071H182.023V117.071H181.023V118.071ZM181.023 119.255H180.023L181.922 119.693L181.023 119.255ZM183.247 117.998L182.991 119.15L184.943 119.584L185.199 118.432L183.247 117.998ZM184.249 118.408C183.811 118.279 183.374 118.207 182.943 118.207V120.207C183.152 120.207 183.397 120.242 183.685 120.326L184.249 118.408ZM182.943 118.207C182.061 118.207 181.32 118.595 180.797 119.298L182.401 120.492C182.56 120.278 182.715 120.207 182.943 120.207V118.207ZM180.794 119.301C180.296 119.975 180.103 120.817 180.103 121.719H182.103C182.103 121.085 182.24 120.71 182.403 120.489L180.794 119.301ZM180.103 121.719V125.943H182.103V121.719H180.103ZM181.103 124.943H179.727V126.943H181.103V124.943ZM180.727 125.943V118.071H178.727V125.943H180.727ZM179.727 119.071H181.023V117.071H179.727V119.071ZM180.023 118.071V119.255H182.023V118.071H180.023ZM181.922 119.693C182.068 119.393 182.226 119.226 182.371 119.131C182.512 119.039 182.699 118.975 182.975 118.975V116.975C182.365 116.975 181.784 117.124 181.274 117.459C180.769 117.79 180.393 118.264 180.124 118.817L181.922 119.693ZM182.975 118.975C183.246 118.975 183.543 119.028 183.872 119.151L184.574 117.279C184.049 117.082 183.514 116.975 182.975 116.975V118.975ZM197.246 116.151L196.483 116.797L196.49 116.806L197.246 116.151ZM197.246 124.391L196.487 123.74L196.486 123.741L197.246 124.391ZM189.326 125.943H188.326V126.943H189.326V125.943ZM189.326 114.583V113.583H188.326V114.583H189.326ZM190.798 115.815V114.815H189.798V115.815H190.798ZM190.798 124.711H189.798V125.711H190.798V124.711ZM196.094 123.543L195.328 122.901L195.327 122.902L196.094 123.543ZM196.094 116.999L195.328 117.641V117.641L196.094 116.999ZM196.49 116.806C197.193 117.617 197.59 118.735 197.59 120.263H199.59C199.59 118.377 199.092 116.754 198.002 115.496L196.49 116.806ZM197.59 120.263C197.59 121.79 197.193 122.916 196.487 123.74L198.005 125.042C199.091 123.775 199.59 122.149 199.59 120.263H197.59ZM196.486 123.741C195.821 124.518 194.891 124.943 193.566 124.943V126.943C195.377 126.943 196.901 126.333 198.006 125.041L196.486 123.741ZM193.566 124.943H189.326V126.943H193.566V124.943ZM190.326 125.943V114.583H188.326V125.943H190.326ZM189.326 115.583H193.566V113.583H189.326V115.583ZM193.566 115.583C194.888 115.583 195.816 116.01 196.483 116.797L198.009 115.505C196.905 114.201 195.381 113.583 193.566 113.583V115.583ZM193.326 114.815H190.798V116.815H193.326V114.815ZM189.798 115.815V124.711H191.798V115.815H189.798ZM190.798 125.711H193.326V123.711H190.798V125.711ZM193.326 125.711C194.759 125.711 195.986 125.231 196.862 124.184L195.327 122.902C194.901 123.412 194.283 123.711 193.326 123.711V125.711ZM196.861 124.185C197.719 123.16 198.086 121.811 198.086 120.263H196.086C196.086 121.509 195.792 122.347 195.328 122.901L196.861 124.185ZM198.086 120.263C198.086 118.723 197.718 117.38 196.861 116.357L195.328 117.641C195.793 118.196 196.086 119.029 196.086 120.263H198.086ZM196.861 116.357C195.98 115.305 194.757 114.815 193.326 114.815V116.815C194.264 116.815 194.886 117.114 195.328 117.641L196.861 116.357ZM201.712 118.071H202.712V117.071H201.712V118.071ZM201.712 125.943V126.943H202.712V125.943H201.712ZM200.336 125.943H199.336V126.943H200.336V125.943ZM200.336 118.071V117.071H199.336V118.071H200.336ZM201.712 114.871H202.712V113.871H201.712V114.871ZM201.712 116.519V117.519H202.712V116.519H201.712ZM200.336 116.519H199.336V117.519H200.336V116.519ZM200.336 114.871V113.871H199.336V114.871H200.336ZM200.712 118.071V125.943H202.712V118.071H200.712ZM201.712 124.943H200.336V126.943H201.712V124.943ZM201.336 125.943V118.071H199.336V125.943H201.336ZM200.336 119.071H201.712V117.071H200.336V119.071ZM200.712 114.871V116.519H202.712V114.871H200.712ZM201.712 115.519H200.336V117.519H201.712V115.519ZM201.336 116.519V114.871H199.336V116.519H201.336ZM200.336 115.871H201.712V113.871H200.336V115.871ZM209.772 118.999L210.549 119.628L211.184 118.845L210.395 118.216L209.772 118.999ZM209.02 119.927L208.406 120.716L209.18 121.318L209.797 120.556L209.02 119.927ZM207.756 119.175L207.389 120.105L207.406 120.112L207.423 120.118L207.756 119.175ZM205.276 119.303L205.844 120.126L205.849 120.122L205.276 119.303ZM204.812 120.135H203.812V120.199L203.82 120.263L204.812 120.135ZM205.228 120.823L204.749 121.701L204.765 121.709L204.781 121.717L205.228 120.823ZM206.924 121.303L207.153 120.329L207.144 120.328L206.924 121.303ZM209.228 122.215L208.61 123.001L208.616 123.006L208.622 123.01L209.228 122.215ZM209.036 125.495L209.65 126.284L209.036 125.495ZM204.844 125.847L204.463 126.772L204.474 126.776L204.485 126.78L204.844 125.847ZM203.116 124.695L202.376 124.022L201.697 124.767L202.449 125.44L203.116 124.695ZM203.932 123.799L204.572 123.031L203.837 122.418L203.192 123.126L203.932 123.799ZM205.404 124.775L205.792 123.853L205.404 124.775ZM208.044 124.695L207.495 123.859L207.489 123.863L207.483 123.867L208.044 124.695ZM206.348 122.407L206.125 123.382L206.135 123.384L206.348 122.407ZM204.092 121.607L203.492 122.407L203.499 122.412L203.506 122.418L204.092 121.607ZM203.484 120.183H202.484V120.199L202.484 120.215L203.484 120.183ZM204.332 118.503L204.934 119.301L204.944 119.294L204.332 118.503ZM208.252 118.119L207.905 119.057L207.914 119.06L207.923 119.063L208.252 118.119ZM208.995 118.369L208.243 119.297L209.797 120.556L210.549 119.628L208.995 118.369ZM209.634 119.138C209.112 118.732 208.594 118.41 208.089 118.232L207.423 120.118C207.643 120.196 207.967 120.375 208.406 120.716L209.634 119.138ZM208.122 118.244C207.632 118.051 207.098 117.967 206.54 117.967V119.967C206.899 119.967 207.176 120.021 207.389 120.105L208.122 118.244ZM206.54 117.967C205.88 117.967 205.239 118.108 204.702 118.484L205.849 120.122C205.953 120.05 206.154 119.967 206.54 119.967V117.967ZM204.708 118.48C204.16 118.858 203.812 119.428 203.812 120.135H205.812C205.812 120.126 205.813 120.126 205.811 120.133C205.809 120.141 205.806 120.15 205.801 120.158C205.797 120.166 205.795 120.167 205.799 120.162C205.804 120.157 205.817 120.144 205.844 120.126L204.708 118.48ZM203.82 120.263C203.892 120.823 204.163 121.381 204.749 121.701L205.707 119.945C205.723 119.954 205.742 119.967 205.761 119.985C205.78 120.004 205.794 120.022 205.804 120.037C205.821 120.067 205.811 120.067 205.804 120.007L203.82 120.263ZM204.781 121.717C204.989 121.821 205.268 121.912 205.555 121.993C205.862 122.08 206.246 122.175 206.703 122.278L207.144 120.328C206.705 120.228 206.359 120.142 206.1 120.069C205.971 120.032 205.87 120 205.793 119.974C205.755 119.961 205.727 119.95 205.705 119.941C205.684 119.933 205.674 119.928 205.675 119.928L204.781 121.717ZM206.695 122.276C207.752 122.525 208.341 122.79 208.61 123.001L209.846 121.429C209.219 120.936 208.272 120.593 207.153 120.329L206.695 122.276ZM208.622 123.01C208.776 123.128 208.9 123.308 208.9 123.719H210.9C210.9 122.807 210.575 121.984 209.834 121.419L208.622 123.01ZM208.9 123.719C208.9 124.149 208.752 124.449 208.422 124.706L209.65 126.284C210.472 125.645 210.9 124.76 210.9 123.719H208.9ZM208.422 124.706C208.068 124.981 207.542 125.167 206.748 125.167V127.167C207.852 127.167 208.852 126.905 209.65 126.284L208.422 124.706ZM206.748 125.167C206.132 125.167 205.622 125.075 205.203 124.914L204.485 126.78C205.175 127.046 205.935 127.167 206.748 127.167V125.167ZM205.225 124.922C204.817 124.754 204.336 124.445 203.783 123.95L202.449 125.44C203.111 126.033 203.782 126.491 204.463 126.772L205.225 124.922ZM203.855 125.368L204.671 124.472L203.192 123.126L202.376 124.022L203.855 125.368ZM203.292 124.567C203.898 125.073 204.477 125.47 205.016 125.697L205.792 123.853C205.52 123.739 205.117 123.485 204.572 123.031L203.292 124.567ZM205.016 125.697C205.56 125.926 206.148 126.031 206.764 126.031V124.031C206.377 124.031 206.058 123.965 205.792 123.853L205.016 125.697ZM206.764 126.031C207.425 126.031 208.064 125.889 208.605 125.523L207.483 123.867C207.362 123.949 207.147 124.031 206.764 124.031V126.031ZM208.592 125.531C209.194 125.136 209.556 124.528 209.556 123.783H207.556C207.556 123.804 207.553 123.814 207.553 123.815C207.553 123.816 207.554 123.813 207.556 123.809C207.558 123.806 207.557 123.808 207.55 123.816C207.542 123.824 207.526 123.839 207.495 123.859L208.592 125.531ZM209.556 123.783C209.556 123.056 209.208 122.443 208.569 122.081L207.583 123.821C207.599 123.83 207.601 123.833 207.595 123.828C207.589 123.822 207.579 123.811 207.57 123.795C207.56 123.779 207.556 123.766 207.555 123.76C207.553 123.755 207.556 123.761 207.556 123.783H209.556ZM208.569 122.081C208.105 121.818 207.396 121.612 206.561 121.43L206.135 123.384C206.963 123.565 207.407 123.721 207.583 123.821L208.569 122.081ZM206.571 121.432C205.446 121.175 204.879 120.942 204.677 120.796L203.506 122.418C204.073 122.827 205.009 123.127 206.125 123.382L206.571 121.432ZM204.692 120.807C204.633 120.763 204.499 120.63 204.483 120.151L202.484 120.215C202.511 121.058 202.782 121.875 203.492 122.407L204.692 120.807ZM204.484 120.183C204.484 119.811 204.613 119.544 204.934 119.301L203.729 117.705C202.92 118.316 202.484 119.168 202.484 120.183H204.484ZM204.944 119.294C205.291 119.025 205.794 118.847 206.54 118.847V116.847C205.472 116.847 204.503 117.106 203.72 117.712L204.944 119.294ZM206.54 118.847C207.1 118.847 207.549 118.925 207.905 119.057L208.598 117.181C207.973 116.95 207.281 116.847 206.54 116.847V118.847ZM207.923 119.063C208.282 119.188 208.691 119.416 209.149 119.781L210.395 118.216C209.808 117.749 209.203 117.391 208.58 117.174L207.923 119.063ZM213.107 119.879L213.911 120.474L213.916 120.467L213.107 119.879ZM213.091 124.135L212.276 124.713L212.282 124.722L212.288 124.73L213.091 124.135ZM216.035 124.727L216.504 125.61L216.514 125.605L216.035 124.727ZM217.235 123.687L217.879 122.922L217.137 122.296L216.49 123.021L217.235 123.687ZM218.147 124.455L218.929 125.078L219.536 124.317L218.791 123.69L218.147 124.455ZM216.643 125.783L216.189 124.892V124.892L216.643 125.783ZM212.099 125.031L211.362 125.706L211.367 125.712L212.099 125.031ZM212.115 118.999L211.383 118.318L211.383 118.318L212.115 118.999ZM216.579 118.183L216.156 119.089L216.164 119.093L216.579 118.183ZM218.035 119.335L218.723 120.061L219.424 119.397L218.785 118.673L218.035 119.335ZM217.139 120.183L216.406 120.863L217.093 121.604L217.827 120.909L217.139 120.183ZM216.003 119.271L215.534 120.154L215.55 120.163L215.567 120.171L216.003 119.271ZM214.867 117.999C213.812 117.999 212.92 118.436 212.299 119.291L213.916 120.467C214.148 120.148 214.429 119.999 214.867 119.999V117.999ZM212.304 119.284C211.728 120.061 211.467 120.989 211.467 122.007H213.467C213.467 121.34 213.633 120.849 213.911 120.474L212.304 119.284ZM211.467 122.007C211.467 123.013 211.722 123.932 212.276 124.713L213.907 123.556C213.629 123.164 213.467 122.665 213.467 122.007H211.467ZM212.288 124.73C212.918 125.581 213.825 125.999 214.883 125.999V123.999C214.406 123.999 214.118 123.841 213.895 123.54L212.288 124.73ZM214.883 125.999C215.456 125.999 216.004 125.876 216.504 125.61L215.566 123.844C215.384 123.941 215.164 123.999 214.883 123.999V125.999ZM216.514 125.605C217.012 125.333 217.501 124.89 217.981 124.353L216.49 123.021C216.073 123.486 215.763 123.736 215.556 123.849L216.514 125.605ZM216.591 124.452L217.503 125.22L218.791 123.69L217.879 122.922L216.591 124.452ZM217.365 123.832C216.917 124.394 216.521 124.723 216.189 124.892L217.098 126.673C217.769 126.331 218.375 125.774 218.929 125.078L217.365 123.832ZM216.189 124.892C215.853 125.064 215.428 125.167 214.883 125.167V127.167C215.683 127.167 216.431 127.014 217.098 126.673L216.189 124.892ZM214.883 125.167C213.974 125.167 213.324 124.879 212.832 124.35L211.367 125.712C212.283 126.697 213.489 127.167 214.883 127.167V125.167ZM212.837 124.356C212.348 123.822 212.059 123.075 212.059 122.007H210.059C210.059 123.456 210.463 124.725 211.362 125.706L212.837 124.356ZM212.059 122.007C212.059 120.956 212.35 120.215 212.848 119.68L211.383 118.318C210.473 119.297 210.059 120.562 210.059 122.007H212.059ZM212.847 119.68C213.357 119.132 214.006 118.847 214.883 118.847V116.847C213.499 116.847 212.303 117.329 211.383 118.318L212.847 119.68ZM214.883 118.847C215.42 118.847 215.836 118.939 216.156 119.089L217.002 117.277C216.363 116.978 215.647 116.847 214.883 116.847V118.847ZM216.164 119.093C216.491 119.242 216.868 119.523 217.285 119.996L218.785 118.673C218.243 118.058 217.649 117.572 216.995 117.273L216.164 119.093ZM217.348 118.609L216.452 119.457L217.827 120.909L218.723 120.061L217.348 118.609ZM217.873 119.503C217.423 119.017 216.946 118.617 216.44 118.371L215.567 120.171C215.764 120.266 216.045 120.474 216.406 120.863L217.873 119.503ZM216.472 118.388C215.976 118.124 215.434 117.999 214.867 117.999V119.999C215.133 119.999 215.348 120.055 215.534 120.154L216.472 118.388ZM225.607 119.015L224.875 119.696L224.88 119.701L225.607 119.015ZM225.607 125.015L226.334 125.702L226.339 125.696L225.607 125.015ZM219.991 125.015L219.259 125.696L219.264 125.702L219.269 125.707L219.991 125.015ZM219.991 119.015L219.264 118.328L219.264 118.328L219.991 119.015ZM220.983 119.831L220.212 119.194L220.205 119.203L220.983 119.831ZM220.983 124.183L220.205 124.811L220.212 124.82L220.983 124.183ZM224.615 124.199L225.387 124.835L225.393 124.827L224.615 124.199ZM224.615 119.831L223.837 120.459L223.843 120.467L224.615 119.831ZM224.88 119.701C225.402 120.254 225.695 120.991 225.695 122.007H227.695C227.695 120.569 227.263 119.312 226.334 118.328L224.88 119.701ZM225.695 122.007C225.695 123.022 225.402 123.768 224.875 124.333L226.339 125.696C227.263 124.704 227.695 123.445 227.695 122.007H225.695ZM224.88 124.328C224.36 124.879 223.698 125.167 222.807 125.167V127.167C224.199 127.167 225.404 126.687 226.334 125.701L224.88 124.328ZM222.807 125.167C221.916 125.167 221.246 124.879 220.713 124.323L219.269 125.707C220.208 126.687 221.415 127.167 222.807 127.167V125.167ZM220.723 124.333C220.196 123.768 219.903 123.022 219.903 122.007H217.903C217.903 123.445 218.335 124.704 219.259 125.696L220.723 124.333ZM219.903 122.007C219.903 120.991 220.196 120.254 220.718 119.701L219.264 118.328C218.335 119.312 217.903 120.569 217.903 122.007H219.903ZM220.718 119.702C221.252 119.137 221.921 118.847 222.807 118.847V116.847C221.411 116.847 220.203 117.335 219.264 118.328L220.718 119.702ZM222.807 118.847C223.693 118.847 224.354 119.137 224.875 119.696L226.339 118.333C225.409 117.336 224.203 116.847 222.807 116.847V118.847ZM220.205 119.203C219.58 119.977 219.311 120.942 219.311 122.007H221.311C221.311 121.28 221.49 120.794 221.761 120.459L220.205 119.203ZM219.311 122.007C219.311 123.072 219.58 124.037 220.205 124.811L221.761 123.555C221.49 123.219 221.311 122.734 221.311 122.007H219.311ZM220.212 124.82C220.872 125.618 221.769 126.015 222.807 126.015V124.015C222.33 124.015 222.011 123.857 221.754 123.546L220.212 124.82ZM222.807 126.015C223.838 126.015 224.733 125.628 225.387 124.835L223.843 123.563C223.601 123.858 223.291 124.015 222.807 124.015V126.015ZM225.393 124.827C226.02 124.051 226.287 123.079 226.287 122.007H224.287C224.287 122.748 224.106 123.237 223.837 123.571L225.393 124.827ZM226.287 122.007C226.287 120.936 226.02 119.964 225.387 119.195L223.843 120.467C224.106 120.785 224.287 121.265 224.287 122.007H226.287ZM225.393 119.203C224.742 118.397 223.845 117.999 222.807 117.999V119.999C223.284 119.999 223.592 120.156 223.837 120.459L225.393 119.203ZM222.807 117.999C221.769 117.999 220.872 118.396 220.212 119.194L221.754 120.468C222.011 120.157 222.33 119.999 222.807 119.999V117.999ZM232.848 118.215L233.824 118.432L234.012 117.584L233.199 117.279L232.848 118.215ZM232.592 119.367L232.31 120.326L233.336 120.628L233.568 119.584L232.592 119.367ZM230.224 119.895L229.422 119.298L229.419 119.301L230.224 119.895ZM229.728 125.943V126.943H230.728V125.943H229.728ZM228.352 125.943H227.352V126.943H228.352V125.943ZM228.352 118.071V117.071H227.352V118.071H228.352ZM229.648 118.071H230.648V117.071H229.648V118.071ZM229.648 119.255H228.648L230.547 119.693L229.648 119.255ZM231.872 117.998L231.616 119.15L233.568 119.584L233.824 118.432L231.872 117.998ZM232.874 118.408C232.436 118.279 231.999 118.207 231.568 118.207V120.207C231.777 120.207 232.022 120.242 232.31 120.326L232.874 118.408ZM231.568 118.207C230.686 118.207 229.945 118.595 229.422 119.298L231.026 120.492C231.185 120.278 231.34 120.207 231.568 120.207V118.207ZM229.419 119.301C228.921 119.975 228.728 120.817 228.728 121.719H230.728C230.728 121.085 230.865 120.71 231.028 120.489L229.419 119.301ZM228.728 121.719V125.943H230.728V121.719H228.728ZM229.728 124.943H228.352V126.943H229.728V124.943ZM229.352 125.943V118.071H227.352V125.943H229.352ZM228.352 119.071H229.648V117.071H228.352V119.071ZM228.648 118.071V119.255H230.648V118.071H228.648ZM230.547 119.693C230.693 119.393 230.851 119.226 230.996 119.131C231.137 119.039 231.324 118.975 231.6 118.975V116.975C230.99 116.975 230.409 117.124 229.899 117.459C229.394 117.79 229.018 118.264 228.749 118.817L230.547 119.693ZM231.6 118.975C231.871 118.975 232.168 119.028 232.497 119.151L233.199 117.279C232.674 117.082 232.139 116.975 231.6 116.975V118.975ZM239.281 114.583V113.583H238.281V114.583H239.281ZM240.657 114.583H241.657V113.583H240.657V114.583ZM240.657 125.943V126.943H241.657V125.943H240.657ZM239.361 125.943H238.361V126.943H239.361V125.943ZM239.361 124.727H240.361V121.206L238.51 124.201L239.361 124.727ZM234.177 124.999L233.414 125.645L234.177 124.999ZM234.193 119.015L233.435 118.362V118.362L234.193 119.015ZM239.281 119.127L238.455 119.691L240.281 122.362V119.127H239.281ZM238.657 124.183L239.422 124.826L239.429 124.819L238.657 124.183ZM238.657 119.847L237.891 120.49L238.657 119.847ZM235.217 124.167L234.415 124.764L234.422 124.774L235.217 124.167ZM239.281 115.583H240.657V113.583H239.281V115.583ZM239.657 114.583V125.943H241.657V114.583H239.657ZM240.657 124.943H239.361V126.943H240.657V124.943ZM240.361 125.943V124.727H238.361V125.943H240.361ZM238.51 124.201C238.122 124.828 237.565 125.151 236.673 125.151V127.151C238.191 127.151 239.426 126.524 240.211 125.253L238.51 124.201ZM236.673 125.151C235.951 125.151 235.399 124.894 234.94 124.352L233.414 125.645C234.256 126.639 235.368 127.151 236.673 127.151V125.151ZM234.94 124.352C234.474 123.802 234.201 123.051 234.201 122.007H232.201C232.201 123.416 232.578 124.659 233.414 125.645L234.94 124.352ZM234.201 122.007C234.201 120.967 234.477 120.218 234.95 119.667L233.435 118.362C232.586 119.348 232.201 120.593 232.201 122.007H234.201ZM234.95 119.667C235.422 119.12 235.983 118.863 236.705 118.863V116.863C235.4 116.863 234.286 117.374 233.435 118.362L234.95 119.667ZM236.705 118.863C237.561 118.863 238.09 119.157 238.455 119.691L240.106 118.563C239.32 117.412 238.131 116.863 236.705 116.863V118.863ZM240.281 119.127V114.583H238.281V119.127H240.281ZM239.429 124.819C240.062 124.049 240.329 123.078 240.329 122.007H238.329C238.329 122.749 238.147 123.228 237.885 123.547L239.429 124.819ZM240.329 122.007C240.329 120.937 240.062 119.966 239.422 119.204L237.891 120.49C238.147 120.795 238.329 121.263 238.329 122.007H240.329ZM239.422 119.204C238.772 118.43 237.893 118.047 236.881 118.047V120.047C237.34 120.047 237.645 120.197 237.891 120.49L239.422 119.204ZM236.881 118.047C235.885 118.047 235.043 118.465 234.438 119.255L236.027 120.47C236.255 120.173 236.511 120.047 236.881 120.047V118.047ZM234.438 119.255C233.854 120.019 233.609 120.967 233.609 122.007H235.609C235.609 121.276 235.779 120.795 236.027 120.47L234.438 119.255ZM233.609 122.007C233.609 123.049 233.845 124 234.415 124.764L236.019 123.569C235.778 123.246 235.609 122.756 235.609 122.007H233.609ZM234.422 124.774C235.03 125.569 235.88 125.983 236.881 125.983V123.983C236.494 123.983 236.235 123.852 236.011 123.559L234.422 124.774ZM236.881 125.983C237.893 125.983 238.772 125.6 239.422 124.826L237.891 123.54C237.645 123.833 237.34 123.983 236.881 123.983V125.983Z" fill="url(#paint2_linear_186_10)" mask="url(#path-15-outside-1_186_10)"/>
<path d="M296.275 114.242L304.027 120.133L296.275 126.023C296.136 126.128 296.059 126.27 296.059 126.417C296.059 126.564 296.136 126.705 296.275 126.81C296.343 126.861 296.423 126.902 296.512 126.93C296.601 126.957 296.696 126.971 296.792 126.971C296.889 126.971 296.984 126.957 297.073 126.93C297.162 126.902 297.242 126.861 297.309 126.81L305.558 120.544C305.702 120.434 305.783 120.286 305.783 120.133C305.783 119.979 305.702 119.831 305.558 119.721L297.311 113.455C297.244 113.404 297.163 113.363 297.074 113.335C296.985 113.307 296.889 113.293 296.792 113.293C296.696 113.293 296.6 113.307 296.511 113.335C296.422 113.363 296.341 113.404 296.274 113.455C296.135 113.56 296.057 113.701 296.057 113.849C296.057 113.996 296.135 114.137 296.274 114.242L296.275 114.242Z" fill="white"/>
<defs>
<linearGradient id="paint0_linear_186_10" x1="25.2801" y1="0.0610352" x2="25.2801" y2="25.0758" gradientUnits="userSpaceOnUse">
<stop stop-color="#7764FF"/>
<stop offset="1" stop-color="#7764FD"/>
</linearGradient>
<linearGradient id="paint1_linear_186_10" x1="163.507" y1="0.0610352" x2="163.507" y2="25.0758" gradientUnits="userSpaceOnUse">
<stop stop-color="#7764FF"/>
<stop offset="1" stop-color="#7764FD"/>
</linearGradient>
<linearGradient id="paint2_linear_186_10" x1="103.354" y1="111.46" x2="104.35" y2="131.903" gradientUnits="userSpaceOnUse">
<stop stop-color="#212121"/>
<stop offset="1" stop-color="#292929" stop-opacity="0"/>
</linearGradient>
<clipPath id="clip0_186_10">
<rect width="50.9143" height="50.9143" fill="white" transform="translate(15.0857 93.9714)"/>
</clipPath>
</defs>
</svg>
