<svg width="55" height="49" viewBox="0 0 55 49" fill="none" xmlns="http://www.w3.org/2000/svg">
<rect y="0.0498047" width="55" height="48.4653" rx="11" fill="#5039F7"/>
<path d="M38.2436 14.5202C36.2778 13.6131 34.1493 12.9547 31.9321 12.5743C31.9126 12.5737 31.8933 12.5773 31.8754 12.5849C31.8576 12.5924 31.8416 12.6038 31.8286 12.6182C31.5626 13.101 31.2522 13.7301 31.0452 14.213C28.6935 13.8618 26.3019 13.8618 23.9503 14.213C23.7433 13.7155 23.4329 13.101 23.1521 12.6182C23.1373 12.5889 23.0929 12.5743 23.0486 12.5743C20.8314 12.9547 18.7177 13.6131 16.737 14.5202C16.7223 14.5202 16.7075 14.5348 16.6927 14.5495C12.6722 20.5043 11.5636 26.2982 12.1105 32.0336C12.1105 32.0629 12.1253 32.0921 12.1549 32.1068C14.8155 34.0381 17.3726 35.2086 19.9002 35.984C19.9446 35.9986 19.9889 35.984 20.0037 35.9547C20.5949 35.15 21.1271 34.3014 21.5853 33.4089C21.6148 33.3504 21.5853 33.2919 21.5261 33.2773C20.6836 32.9554 19.8854 32.575 19.102 32.136C19.0429 32.1068 19.0429 32.019 19.0873 31.9751C19.2498 31.858 19.4124 31.7264 19.575 31.6093C19.6046 31.58 19.6489 31.58 19.6785 31.5947C24.7632 33.8918 30.247 33.8918 35.2726 31.5947C35.3022 31.58 35.3465 31.58 35.3761 31.6093C35.5387 31.741 35.7013 31.858 35.8639 31.9897C35.923 32.0336 35.923 32.1214 35.8491 32.1507C35.0805 32.6042 34.2675 32.97 33.425 33.2919C33.3659 33.3065 33.3511 33.3797 33.3659 33.4236C33.8389 34.3161 34.371 35.1647 34.9474 35.9694C34.9918 35.984 35.0361 35.9986 35.0805 35.984C37.6228 35.2086 40.18 34.0381 42.8406 32.1068C42.8702 32.0921 42.8849 32.0629 42.8849 32.0336C43.5353 25.4057 41.8059 19.6557 38.3028 14.5495C38.288 14.5348 38.2732 14.5202 38.2436 14.5202ZM22.3539 28.5368C20.8314 28.5368 19.5603 27.1468 19.5603 25.435C19.5603 23.7232 20.8019 22.3332 22.3539 22.3332C23.9207 22.3332 25.1623 23.7378 25.1475 25.435C25.1475 27.1468 23.9059 28.5368 22.3539 28.5368ZM32.6564 28.5368C31.1339 28.5368 29.8627 27.1468 29.8627 25.435C29.8627 23.7232 31.1043 22.3332 32.6564 22.3332C34.2232 22.3332 35.4648 23.7378 35.45 25.435C35.45 27.1468 34.2232 28.5368 32.6564 28.5368Z" fill="white"/>
</svg>
