<svg width="361" height="302" viewBox="0 0 361 302" fill="none" xmlns="http://www.w3.org/2000/svg">
<g filter="url(#filter0_ddi_192_25)">
<path d="M92.824 152L91.032 146.88H81.016L79.256 152H75.416L83.608 129.28H88.568L96.76 152H92.824ZM82.104 143.744H89.944L88.984 140.96L88.248 138.816C87.1813 135.808 86.4453 133.589 86.04 132.16C85.5493 133.781 84.6427 136.48 83.32 140.256L83.064 140.992L82.104 143.744ZM113.156 140.992V152H109.636V142.08C109.636 140.907 109.348 140.011 108.772 139.392C108.196 138.752 107.374 138.432 106.308 138.432C105.262 138.432 104.398 138.784 103.716 139.488C103.033 140.192 102.692 141.088 102.692 142.176V152H99.1715V135.936H102.436V137.888C103.502 136.245 105.156 135.424 107.396 135.424C109.209 135.424 110.617 135.936 111.62 136.96C112.644 137.963 113.156 139.307 113.156 140.992ZM128.374 129.28H131.894V152H128.63V149.664C127.478 151.52 125.707 152.448 123.318 152.448C121.248 152.448 119.542 151.669 118.198 150.112C116.875 148.533 116.214 146.485 116.214 143.968C116.214 141.451 116.886 139.413 118.23 137.856C119.595 136.277 121.302 135.488 123.35 135.488C125.59 135.488 127.264 136.267 128.374 137.824V129.28ZM127.254 147.968C128.086 146.965 128.502 145.632 128.502 143.968C128.502 142.304 128.086 140.981 127.254 140C126.443 139.019 125.376 138.528 124.054 138.528C122.774 138.528 121.739 139.029 120.95 140.032C120.182 141.013 119.798 142.325 119.798 143.968C119.798 145.632 120.182 146.965 120.95 147.968C121.718 148.949 122.742 149.44 124.022 149.44C125.366 149.44 126.443 148.949 127.254 147.968ZM165.64 140.768V152H162.12V141.824C162.12 139.563 161.171 138.432 159.272 138.432C158.291 138.432 157.501 138.763 156.904 139.424C156.328 140.085 156.04 140.949 156.04 142.016V152H152.52V141.824C152.52 139.563 151.571 138.432 149.672 138.432C148.712 138.432 147.944 138.763 147.368 139.424C146.792 140.085 146.504 140.949 146.504 142.016V152H142.984V135.936H146.248V137.792C147.251 136.213 148.787 135.424 150.856 135.424C152.968 135.424 154.483 136.245 155.4 137.888C156.488 136.245 158.109 135.424 160.264 135.424C161.971 135.424 163.293 135.904 164.232 136.864C165.171 137.824 165.64 139.125 165.64 140.768ZM179.691 135.936H183.211V152H179.979V150.144C179.019 151.701 177.43 152.48 175.211 152.48C173.334 152.48 171.905 152.021 170.923 151.104C169.963 150.187 169.483 148.928 169.483 147.328V135.936H173.003V146.368C173.003 147.349 173.259 148.107 173.771 148.64C174.283 149.173 175.019 149.44 175.979 149.44C177.11 149.44 178.006 149.109 178.667 148.448C179.35 147.787 179.691 146.859 179.691 145.664V135.936ZM194.34 138.4C192.91 138.4 191.801 138.944 191.012 140.032C190.244 141.099 189.86 142.411 189.86 143.968C189.86 145.525 190.244 146.837 191.012 147.904C191.801 148.949 192.91 149.472 194.34 149.472C195.15 149.472 195.886 149.291 196.548 148.928C197.23 148.544 198.009 147.872 198.884 146.912L201.22 148.864C200.174 150.187 199.118 151.125 198.052 151.68C196.985 152.213 195.737 152.48 194.308 152.48C191.897 152.48 189.956 151.712 188.484 150.176C187.012 148.619 186.276 146.549 186.276 143.968C186.276 141.387 187.022 139.317 188.516 137.76C190.009 136.203 191.95 135.424 194.34 135.424C195.684 135.424 196.868 135.659 197.892 136.128C198.916 136.597 199.94 137.376 200.964 138.464L198.724 140.64C197.87 139.787 197.113 139.2 196.452 138.88C195.812 138.56 195.108 138.4 194.34 138.4ZM217.656 140.992V152H214.136V142.08C214.136 140.907 213.848 140.011 213.272 139.392C212.696 138.752 211.874 138.432 210.808 138.432C209.762 138.432 208.898 138.784 208.216 139.488C207.533 140.192 207.192 141.088 207.192 142.176V152H203.672V129.28H207.192V137.536C208.301 136.128 209.869 135.424 211.896 135.424C213.709 135.424 215.117 135.936 216.12 136.96C217.144 137.963 217.656 139.307 217.656 140.992ZM251.359 140.768V152H247.839V141.824C247.839 139.563 246.889 138.432 244.991 138.432C244.009 138.432 243.22 138.763 242.623 139.424C242.047 140.085 241.759 140.949 241.759 142.016V152H238.239V141.824C238.239 139.563 237.289 138.432 235.391 138.432C234.431 138.432 233.663 138.763 233.087 139.424C232.511 140.085 232.223 140.949 232.223 142.016V152H228.703V135.936H231.967V137.792C232.969 136.213 234.505 135.424 236.575 135.424C238.687 135.424 240.201 136.245 241.119 137.888C242.207 136.245 243.828 135.424 245.983 135.424C247.689 135.424 249.012 135.904 249.951 136.864C250.889 137.824 251.359 139.125 251.359 140.768ZM270.753 143.968C270.753 146.464 269.985 148.512 268.449 150.112C266.934 151.691 264.982 152.48 262.593 152.48C260.182 152.48 258.209 151.691 256.673 150.112C255.158 148.533 254.401 146.485 254.401 143.968C254.401 141.429 255.158 139.371 256.673 137.792C258.209 136.213 260.182 135.424 262.593 135.424C264.982 135.424 266.934 136.224 268.449 137.824C269.985 139.403 270.753 141.451 270.753 143.968ZM257.985 143.968C257.985 145.632 258.401 146.976 259.233 148C260.065 149.003 261.185 149.504 262.593 149.504C263.958 149.504 265.057 149.003 265.889 148C266.742 146.976 267.169 145.632 267.169 143.968C267.169 142.283 266.753 140.939 265.921 139.936C265.089 138.912 263.979 138.4 262.593 138.4C261.185 138.4 260.065 138.912 259.233 139.936C258.401 140.939 257.985 142.283 257.985 143.968ZM283.652 136.192L283.012 139.232C282.244 139.019 281.561 138.912 280.964 138.912C279.854 138.912 278.969 139.349 278.308 140.224C277.668 141.077 277.348 142.261 277.348 143.776V152H273.828V135.936H277.092V138.336C277.945 136.587 279.289 135.712 281.124 135.712C281.764 135.712 282.606 135.872 283.652 136.192ZM297.556 147.104L299.604 149.248C298.473 150.4 297.342 151.232 296.212 151.744C295.102 152.235 293.865 152.48 292.5 152.48C289.961 152.48 287.956 151.723 286.484 150.208C285.012 148.672 284.276 146.624 284.276 144.064C284.276 141.525 284.99 139.456 286.42 137.856C287.87 136.235 289.79 135.424 292.18 135.424C294.526 135.424 296.34 136.128 297.62 137.536C298.921 138.923 299.572 140.853 299.572 143.328C299.572 143.733 299.55 144.213 299.508 144.768H287.732C287.86 146.219 288.34 147.371 289.172 148.224C290.004 149.077 291.134 149.504 292.564 149.504C293.481 149.504 294.281 149.333 294.964 148.992C295.646 148.651 296.51 148.021 297.556 147.104ZM287.828 142.208H296.116C296.052 140.971 295.668 140 294.964 139.296C294.26 138.571 293.3 138.208 292.084 138.208C290.953 138.208 290.014 138.56 289.268 139.264C288.542 139.947 288.062 140.928 287.828 142.208Z" fill="white"/>
</g>
<g filter="url(#filter1_d_192_25)">
<circle cx="122.5" cy="120.797" r="1.5" fill="white" fill-opacity="0.66"/>
<circle cx="133.5" cy="120.797" r="1.5" fill="#B5ABFF" fill-opacity="0.65"/>
<circle cx="150.5" cy="106.797" r="1.5" fill="#B9AFFF" fill-opacity="0.58"/>
<circle cx="126" cy="115.297" r="1" fill="#9E91FF" fill-opacity="0.54"/>
<circle cx="131" cy="122.297" r="1" fill="#9E91FF" fill-opacity="0.54"/>
<circle cx="147" cy="102.297" r="1" fill="#B9AFFF" fill-opacity="0.58"/>
<circle cx="156" cy="110.297" r="1" fill="#B9AFFF" fill-opacity="0.58"/>
<circle cx="135" cy="108.297" r="1" fill="#9E91FF" fill-opacity="0.54"/>
<circle cx="102" cy="122.297" r="1" fill="white" fill-opacity="0.81"/>
<circle cx="146" cy="105.297" r="1" fill="white" fill-opacity="0.81"/>
<circle cx="184" cy="124.297" r="1" fill="#B9AFFF" fill-opacity="0.58"/>
<circle cx="114" cy="108.297" r="1" fill="#B9AFFF" fill-opacity="0.58"/>
<circle cx="76" cy="117.297" r="1" fill="#B9AFFF" fill-opacity="0.58"/>
</g>
<g filter="url(#filter2_d_192_25)">
<circle cx="223.612" cy="106.859" r="1.22727" transform="rotate(175.292 223.612 106.859)" fill="#B2A8FF" fill-opacity="0.56"/>
<circle cx="214.642" cy="107.598" r="1.22727" transform="rotate(175.292 214.642 107.598)" fill="#BEB5FF" fill-opacity="0.6"/>
<circle cx="201.72" cy="120.155" r="1.22727" transform="rotate(175.292 201.72 120.155)" fill="#B9AFFF" fill-opacity="0.58"/>
<circle cx="221.127" cy="111.579" r="0.818182" transform="rotate(175.292 221.127 111.579)" fill="#9E91FF" fill-opacity="0.54"/>
<circle cx="216.58" cy="106.207" r="0.818182" transform="rotate(175.292 216.58 106.207)" fill="#9E91FF" fill-opacity="0.54"/>
<circle cx="204.876" cy="123.59" r="0.818182" transform="rotate(175.292 204.876 123.59)" fill="#B9AFFF" fill-opacity="0.58"/>
<circle cx="197" cy="117.671" r="0.818182" transform="rotate(175.292 197 117.671)" fill="#B9AFFF" fill-opacity="0.58"/>
<circle cx="214.259" cy="117.891" r="0.818182" transform="rotate(175.292 214.259 117.891)" fill="#9E91FF" fill-opacity="0.54"/>
<circle cx="240.228" cy="104.259" r="0.818182" transform="rotate(175.292 240.228 104.259)" fill="white" fill-opacity="0.81"/>
<circle cx="205.49" cy="121.076" r="0.818182" transform="rotate(175.292 205.49 121.076)" fill="white" fill-opacity="0.81"/>
<circle cx="173.229" cy="108.135" r="0.818182" transform="rotate(175.292 173.229 108.135)" fill="#B9AFFF" fill-opacity="0.58"/>
<circle cx="231.383" cy="116.481" r="0.818182" transform="rotate(175.292 231.383 116.481)" fill="#B9AFFF" fill-opacity="0.58"/>
<circle cx="261.764" cy="106.591" r="0.818182" transform="rotate(175.292 261.764 106.591)" fill="#B9AFFF" fill-opacity="0.58"/>
</g>
<g filter="url(#filter3_d_192_25)">
<circle cx="126.266" cy="167.156" r="1.22727" transform="rotate(175.292 126.266 167.156)" fill="#B2A8FF" fill-opacity="0.56"/>
<circle cx="117.296" cy="167.894" r="1.22727" transform="rotate(175.292 117.296 167.894)" fill="#B5ABFF" fill-opacity="0.65"/>
<circle cx="104.374" cy="180.452" r="1.22727" transform="rotate(175.292 104.374 180.452)" fill="#B9AFFF" fill-opacity="0.58"/>
<circle cx="123.781" cy="171.876" r="0.818182" transform="rotate(175.292 123.781 171.876)" fill="#9E91FF" fill-opacity="0.54"/>
<circle cx="119.234" cy="166.503" r="0.818182" transform="rotate(175.292 119.234 166.503)" fill="#9E91FF" fill-opacity="0.54"/>
<circle cx="107.531" cy="183.887" r="0.818182" transform="rotate(175.292 107.531 183.887)" fill="#B9AFFF" fill-opacity="0.58"/>
<circle cx="99.6545" cy="177.968" r="0.818182" transform="rotate(175.292 99.6545 177.968)" fill="#B9AFFF" fill-opacity="0.58"/>
<circle cx="116.913" cy="178.188" r="0.818182" transform="rotate(175.292 116.913 178.188)" fill="#9E91FF" fill-opacity="0.54"/>
<circle cx="142.882" cy="164.556" r="0.818182" transform="rotate(175.292 142.882 164.556)" fill="white" fill-opacity="0.81"/>
<circle cx="108.145" cy="181.373" r="0.818182" transform="rotate(175.292 108.145 181.373)" fill="white" fill-opacity="0.81"/>
<circle cx="75.8826" cy="168.432" r="0.818182" transform="rotate(175.292 75.8826 168.432)" fill="#B9AFFF" fill-opacity="0.58"/>
<circle cx="134.037" cy="176.778" r="0.818182" transform="rotate(175.292 134.037 176.778)" fill="#B9AFFF" fill-opacity="0.58"/>
<circle cx="164.418" cy="166.887" r="0.818182" transform="rotate(175.292 164.418 166.887)" fill="#B9AFFF" fill-opacity="0.58"/>
</g>
<g filter="url(#filter4_d_192_25)">
<circle cx="254.498" cy="174.545" r="1.22727" transform="rotate(30 254.498 174.545)" fill="#B2A8FF" fill-opacity="0.56"/>
<circle cx="262.292" cy="179.045" r="1.22727" transform="rotate(30 262.292 179.045)" fill="#B5ABFF" fill-opacity="0.65"/>
<circle cx="280.065" cy="176.08" r="1.22727" transform="rotate(30 280.065 176.08)" fill="#B9AFFF" fill-opacity="0.58"/>
<circle cx="259.228" cy="172.08" r="0.818182" transform="rotate(30 259.228 172.08)" fill="#9E91FF" fill-opacity="0.54"/>
<circle cx="259.907" cy="179.086" r="0.818182" transform="rotate(30 259.907 179.086)" fill="#9E91FF" fill-opacity="0.54"/>
<circle cx="279.426" cy="171.46" r="0.818182" transform="rotate(30 279.426 171.46)" fill="#B9AFFF" fill-opacity="0.58"/>
<circle cx="282.53" cy="180.81" r="0.818182" transform="rotate(30 282.53 180.81)" fill="#B9AFFF" fill-opacity="0.58"/>
<circle cx="268.468" cy="170.802" r="0.818182" transform="rotate(30 268.468 170.802)" fill="#9E91FF" fill-opacity="0.54"/>
<circle cx="239.359" cy="167.222" r="0.818182" transform="rotate(30 239.359 167.222)" fill="white" fill-opacity="0.81"/>
<circle cx="277.49" cy="173.176" r="0.818182" transform="rotate(30 277.49 173.176)" fill="white" fill-opacity="0.81"/>
<circle cx="296.643" cy="202.185" r="0.818182" transform="rotate(30 296.643 202.185)" fill="#B9AFFF" fill-opacity="0.58"/>
<circle cx="253.589" cy="162.211" r="0.818182" transform="rotate(30 253.589 162.211)" fill="#B9AFFF" fill-opacity="0.58"/>
<circle cx="222.981" cy="153.043" r="0.818182" transform="rotate(30 222.981 153.043)" fill="#B9AFFF" fill-opacity="0.58"/>
</g>
<g filter="url(#filter5_d_192_25)">
<circle cx="84.4978" cy="154.545" r="1.22727" transform="rotate(30 84.4978 154.545)" fill="#B2A8FF" fill-opacity="0.56"/>
<circle cx="92.292" cy="159.045" r="1.22727" transform="rotate(30 92.292 159.045)" fill="#B5ABFF" fill-opacity="0.65"/>
<circle cx="110.065" cy="156.08" r="1.22727" transform="rotate(30 110.065 156.08)" fill="#B9AFFF" fill-opacity="0.58"/>
<circle cx="89.2277" cy="152.08" r="0.818182" transform="rotate(30 89.2277 152.08)" fill="#9E91FF" fill-opacity="0.54"/>
<circle cx="89.9069" cy="159.086" r="0.818182" transform="rotate(30 89.9069 159.086)" fill="#9E91FF" fill-opacity="0.54"/>
<circle cx="109.426" cy="151.46" r="0.818182" transform="rotate(30 109.426 151.46)" fill="#B9AFFF" fill-opacity="0.58"/>
<circle cx="112.53" cy="160.81" r="0.818182" transform="rotate(30 112.53 160.81)" fill="#B9AFFF" fill-opacity="0.58"/>
<circle cx="98.4684" cy="150.802" r="0.818182" transform="rotate(30 98.4684 150.802)" fill="#9E91FF" fill-opacity="0.54"/>
<circle cx="69.3586" cy="147.222" r="0.818182" transform="rotate(30 69.3586 147.222)" fill="white" fill-opacity="0.81"/>
<circle cx="107.49" cy="153.176" r="0.818182" transform="rotate(30 107.49 153.176)" fill="white" fill-opacity="0.81"/>
<circle cx="126.643" cy="182.185" r="0.818182" transform="rotate(30 126.643 182.185)" fill="#B9AFFF" fill-opacity="0.58"/>
<circle cx="83.5885" cy="142.211" r="0.818182" transform="rotate(30 83.5885 142.211)" fill="#B9AFFF" fill-opacity="0.58"/>
<circle cx="52.9811" cy="133.043" r="0.818182" transform="rotate(30 52.9811 133.043)" fill="#B9AFFF" fill-opacity="0.58"/>
</g>
<g filter="url(#filter6_d_192_25)">
<circle cx="275.762" cy="144.381" r="1.22727" transform="rotate(135 275.762 144.381)" fill="#B2A8FF" fill-opacity="0.56"/>
<circle cx="269.398" cy="150.745" r="1.22727" transform="rotate(135 269.398 150.745)" fill="#B5ABFF" fill-opacity="0.65"/>
<circle cx="267.663" cy="168.68" r="1.22727" transform="rotate(135 267.663 168.68)" fill="#B9AFFF" fill-opacity="0.58"/>
<circle cx="276.919" cy="149.588" r="0.818182" transform="rotate(135 276.919 149.588)" fill="#9E91FF" fill-opacity="0.54"/>
<circle cx="269.977" cy="148.431" r="0.818182" transform="rotate(135 269.977 148.431)" fill="#9E91FF" fill-opacity="0.54"/>
<circle cx="272.291" cy="169.258" r="0.818182" transform="rotate(135 272.291 169.258)" fill="#B9AFFF" fill-opacity="0.58"/>
<circle cx="262.456" cy="169.837" r="0.818182" transform="rotate(135 262.456 169.837)" fill="#B9AFFF" fill-opacity="0.58"/>
<circle cx="275.762" cy="158.844" r="0.818182" transform="rotate(135 275.762 158.844)" fill="#9E91FF" fill-opacity="0.54"/>
<circle cx="286.755" cy="131.653" r="0.818182" transform="rotate(135 286.755 131.653)" fill="white" fill-opacity="0.81"/>
<circle cx="271.134" cy="166.944" r="0.818182" transform="rotate(135 271.134 166.944)" fill="white" fill-opacity="0.81"/>
<circle cx="238.157" cy="177.936" r="0.818182" transform="rotate(135 238.157 177.936)" fill="#B9AFFF" fill-opacity="0.58"/>
<circle cx="287.912" cy="146.695" r="0.818182" transform="rotate(135 287.912 146.695)" fill="#B9AFFF" fill-opacity="0.58"/>
<circle cx="304.689" cy="119.503" r="0.818182" transform="rotate(135 304.689 119.503)" fill="#B9AFFF" fill-opacity="0.58"/>
</g>
<mask id="mask0_192_25" style="mask-type:alpha" maskUnits="userSpaceOnUse" x="0" y="0" width="361" height="302">
<path d="M16 0.5H345C353.56 0.5 360.5 7.43959 360.5 16V286C360.5 294.56 353.56 301.5 345 301.5H16C7.4396 301.5 0.5 294.56 0.5 286V16C0.5 7.43958 7.43959 0.5 16 0.5Z" fill="#0F0E16" stroke="url(#paint0_linear_192_25)"/>
</mask>
<g mask="url(#mask0_192_25)">
</g>
<defs>
<filter id="filter0_ddi_192_25" x="45.416" y="99.28" width="284.188" height="83.2" filterUnits="userSpaceOnUse" color-interpolation-filters="sRGB">
<feFlood flood-opacity="0" result="BackgroundImageFix"/>
<feColorMatrix in="SourceAlpha" type="matrix" values="0 0 0 0 0 0 0 0 0 0 0 0 0 0 0 0 0 0 127 0" result="hardAlpha"/>
<feOffset/>
<feGaussianBlur stdDeviation="1.9"/>
<feComposite in2="hardAlpha" operator="out"/>
<feColorMatrix type="matrix" values="0 0 0 0 1 0 0 0 0 1 0 0 0 0 1 0 0 0 0.5 0"/>
<feBlend mode="normal" in2="BackgroundImageFix" result="effect1_dropShadow_192_25"/>
<feColorMatrix in="SourceAlpha" type="matrix" values="0 0 0 0 0 0 0 0 0 0 0 0 0 0 0 0 0 0 127 0" result="hardAlpha"/>
<feOffset/>
<feGaussianBlur stdDeviation="15"/>
<feComposite in2="hardAlpha" operator="out"/>
<feColorMatrix type="matrix" values="0 0 0 0 0.794912 0 0 0 0 0.766667 0 0 0 0 1 0 0 0 0.17 0"/>
<feBlend mode="normal" in2="effect1_dropShadow_192_25" result="effect2_dropShadow_192_25"/>
<feBlend mode="normal" in="SourceGraphic" in2="effect2_dropShadow_192_25" result="shape"/>
<feColorMatrix in="SourceAlpha" type="matrix" values="0 0 0 0 0 0 0 0 0 0 0 0 0 0 0 0 0 0 127 0" result="hardAlpha"/>
<feOffset/>
<feGaussianBlur stdDeviation="1.3"/>
<feComposite in2="hardAlpha" operator="arithmetic" k2="-1" k3="1"/>
<feColorMatrix type="matrix" values="0 0 0 0 0.313726 0 0 0 0 0.223529 0 0 0 0 0.968627 0 0 0 1 0"/>
<feBlend mode="normal" in2="shape" result="effect3_innerShadow_192_25"/>
</filter>
<filter id="filter1_d_192_25" x="71" y="97.2966" width="118" height="32" filterUnits="userSpaceOnUse" color-interpolation-filters="sRGB">
<feFlood flood-opacity="0" result="BackgroundImageFix"/>
<feColorMatrix in="SourceAlpha" type="matrix" values="0 0 0 0 0 0 0 0 0 0 0 0 0 0 0 0 0 0 127 0" result="hardAlpha"/>
<feOffset/>
<feGaussianBlur stdDeviation="2"/>
<feComposite in2="hardAlpha" operator="out"/>
<feColorMatrix type="matrix" values="0 0 0 0 0.937734 0 0 0 0 1 0 0 0 0 0.829167 0 0 0 0.44 0"/>
<feBlend mode="normal" in2="BackgroundImageFix" result="effect1_dropShadow_192_25"/>
<feBlend mode="normal" in="SourceGraphic" in2="effect1_dropShadow_192_25" result="shape"/>
</filter>
<filter id="filter2_d_192_25" x="168.41" y="99.4412" width="98.1719" height="28.967" filterUnits="userSpaceOnUse" color-interpolation-filters="sRGB">
<feFlood flood-opacity="0" result="BackgroundImageFix"/>
<feColorMatrix in="SourceAlpha" type="matrix" values="0 0 0 0 0 0 0 0 0 0 0 0 0 0 0 0 0 0 127 0" result="hardAlpha"/>
<feOffset/>
<feGaussianBlur stdDeviation="2"/>
<feComposite in2="hardAlpha" operator="out"/>
<feColorMatrix type="matrix" values="0 0 0 0 0.937734 0 0 0 0 1 0 0 0 0 0.829167 0 0 0 0.44 0"/>
<feBlend mode="normal" in2="BackgroundImageFix" result="effect1_dropShadow_192_25"/>
<feBlend mode="normal" in="SourceGraphic" in2="effect1_dropShadow_192_25" result="shape"/>
</filter>
<filter id="filter3_d_192_25" x="71.0645" y="159.738" width="98.1719" height="28.967" filterUnits="userSpaceOnUse" color-interpolation-filters="sRGB">
<feFlood flood-opacity="0" result="BackgroundImageFix"/>
<feColorMatrix in="SourceAlpha" type="matrix" values="0 0 0 0 0 0 0 0 0 0 0 0 0 0 0 0 0 0 127 0" result="hardAlpha"/>
<feOffset/>
<feGaussianBlur stdDeviation="2"/>
<feComposite in2="hardAlpha" operator="out"/>
<feColorMatrix type="matrix" values="0 0 0 0 0.937734 0 0 0 0 1 0 0 0 0 0.829167 0 0 0 0.44 0"/>
<feBlend mode="normal" in2="BackgroundImageFix" result="effect1_dropShadow_192_25"/>
<feBlend mode="normal" in="SourceGraphic" in2="effect1_dropShadow_192_25" result="shape"/>
</filter>
<filter id="filter4_d_192_25" x="218.163" y="148.224" width="83.2981" height="58.7786" filterUnits="userSpaceOnUse" color-interpolation-filters="sRGB">
<feFlood flood-opacity="0" result="BackgroundImageFix"/>
<feColorMatrix in="SourceAlpha" type="matrix" values="0 0 0 0 0 0 0 0 0 0 0 0 0 0 0 0 0 0 127 0" result="hardAlpha"/>
<feOffset/>
<feGaussianBlur stdDeviation="2"/>
<feComposite in2="hardAlpha" operator="out"/>
<feColorMatrix type="matrix" values="0 0 0 0 0.937734 0 0 0 0 1 0 0 0 0 0.829167 0 0 0 0.44 0"/>
<feBlend mode="normal" in2="BackgroundImageFix" result="effect1_dropShadow_192_25"/>
<feBlend mode="normal" in="SourceGraphic" in2="effect1_dropShadow_192_25" result="shape"/>
</filter>
<filter id="filter5_d_192_25" x="48.1628" y="128.224" width="83.2981" height="58.7786" filterUnits="userSpaceOnUse" color-interpolation-filters="sRGB">
<feFlood flood-opacity="0" result="BackgroundImageFix"/>
<feColorMatrix in="SourceAlpha" type="matrix" values="0 0 0 0 0 0 0 0 0 0 0 0 0 0 0 0 0 0 127 0" result="hardAlpha"/>
<feOffset/>
<feGaussianBlur stdDeviation="2"/>
<feComposite in2="hardAlpha" operator="out"/>
<feColorMatrix type="matrix" values="0 0 0 0 0.937734 0 0 0 0 1 0 0 0 0 0.829167 0 0 0 0.44 0"/>
<feBlend mode="normal" in2="BackgroundImageFix" result="effect1_dropShadow_192_25"/>
<feBlend mode="normal" in="SourceGraphic" in2="effect1_dropShadow_192_25" result="shape"/>
</filter>
<filter id="filter6_d_192_25" x="233.339" y="114.685" width="76.1687" height="68.0691" filterUnits="userSpaceOnUse" color-interpolation-filters="sRGB">
<feFlood flood-opacity="0" result="BackgroundImageFix"/>
<feColorMatrix in="SourceAlpha" type="matrix" values="0 0 0 0 0 0 0 0 0 0 0 0 0 0 0 0 0 0 127 0" result="hardAlpha"/>
<feOffset/>
<feGaussianBlur stdDeviation="2"/>
<feComposite in2="hardAlpha" operator="out"/>
<feColorMatrix type="matrix" values="0 0 0 0 0.937734 0 0 0 0 1 0 0 0 0 0.829167 0 0 0 0.44 0"/>
<feBlend mode="normal" in2="BackgroundImageFix" result="effect1_dropShadow_192_25"/>
<feBlend mode="normal" in="SourceGraphic" in2="effect1_dropShadow_192_25" result="shape"/>
</filter>
<linearGradient id="paint0_linear_192_25" x1="21.5614" y1="8.71154" x2="157.936" y2="287.433" gradientUnits="userSpaceOnUse">
<stop stop-color="#212121"/>
<stop offset="1" stop-color="#292929" stop-opacity="0"/>
</linearGradient>
</defs>
</svg>
