<svg width="262" height="170" viewBox="0 0 262 170" fill="none" xmlns="http://www.w3.org/2000/svg">
<path d="M0 16C0 7.16344 7.16344 0 16 0H246C254.837 0 262 7.16344 262 16V170H0V16Z" fill="#070707"/>
<rect x="23.7048" y="151.838" width="214.59" height="29.9429" rx="8" fill="#1C1C1C"/>
<rect x="23.7048" y="109.419" width="214.59" height="29.9429" rx="8" fill="#1C1C1C"/>
<rect x="23.7048" y="67" width="214.59" height="29.9429" rx="8" fill="#1C1C1C"/>
<path d="M31.3248 37H30.0648L27.7848 33.58H25.7928V37H24.6888V28.48H28.2648C29.0808 28.48 29.7448 28.708 30.2568 29.164C30.7688 29.62 31.0248 30.24 31.0248 31.024C31.0248 31.688 30.8408 32.24 30.4728 32.68C30.1128 33.112 29.6168 33.388 28.9848 33.508L31.3248 37ZM25.7928 29.404V32.656H28.0848C28.6608 32.656 29.1128 32.516 29.4408 32.236C29.7688 31.948 29.9328 31.544 29.9328 31.024C29.9328 30.504 29.7688 30.104 29.4408 29.824C29.1128 29.544 28.6568 29.404 28.0728 29.404H25.7928ZM36.8258 35.32L37.4378 35.944C37.0138 36.392 36.6058 36.708 36.2138 36.892C35.8218 37.076 35.3738 37.168 34.8698 37.168C33.9818 37.168 33.2698 36.888 32.7338 36.328C32.2058 35.76 31.9418 35.012 31.9418 34.084C31.9418 33.156 32.1978 32.4 32.7098 31.816C33.2298 31.224 33.9138 30.928 34.7618 30.928C35.6018 30.928 36.2538 31.18 36.7178 31.684C37.1898 32.188 37.4258 32.884 37.4258 33.772C37.4258 33.884 37.4178 34.036 37.4018 34.228H32.9738C33.0058 34.852 33.1858 35.356 33.5138 35.74C33.8418 36.116 34.2978 36.304 34.8818 36.304C35.2498 36.304 35.5658 36.232 35.8298 36.088C36.0938 35.952 36.4258 35.696 36.8258 35.32ZM32.9978 33.46H36.4058C36.3818 32.932 36.2218 32.516 35.9258 32.212C35.6378 31.908 35.2458 31.756 34.7498 31.756C34.2698 31.756 33.8778 31.904 33.5738 32.2C33.2698 32.496 33.0778 32.916 32.9978 33.46ZM40.1776 30.232V31.096H41.6656V31.876H40.1776V37H39.1456V31.876H38.0536V31.096H39.1456V30.112C39.1456 29.528 39.2976 29.08 39.6016 28.768C39.9056 28.448 40.3456 28.288 40.9216 28.288C41.2896 28.288 41.6856 28.356 42.1096 28.492L41.9056 29.284C41.5376 29.196 41.2656 29.152 41.0896 29.152C40.7616 29.152 40.5256 29.236 40.3816 29.404C40.2456 29.564 40.1776 29.84 40.1776 30.232ZM46.9274 35.32L47.5394 35.944C47.1154 36.392 46.7074 36.708 46.3154 36.892C45.9234 37.076 45.4754 37.168 44.9714 37.168C44.0834 37.168 43.3714 36.888 42.8354 36.328C42.3074 35.76 42.0434 35.012 42.0434 34.084C42.0434 33.156 42.2994 32.4 42.8114 31.816C43.3314 31.224 44.0154 30.928 44.8634 30.928C45.7034 30.928 46.3554 31.18 46.8194 31.684C47.2914 32.188 47.5274 32.884 47.5274 33.772C47.5274 33.884 47.5194 34.036 47.5034 34.228H43.0754C43.1074 34.852 43.2874 35.356 43.6154 35.74C43.9434 36.116 44.3994 36.304 44.9834 36.304C45.3514 36.304 45.6674 36.232 45.9314 36.088C46.1954 35.952 46.5274 35.696 46.9274 35.32ZM43.0994 33.46H46.5074C46.4834 32.932 46.3234 32.516 46.0274 32.212C45.7394 31.908 45.3474 31.756 44.8514 31.756C44.3714 31.756 43.9794 31.904 43.6754 32.2C43.3714 32.496 43.1794 32.916 43.0994 33.46ZM52.1855 31.204L51.9935 32.068C51.7215 31.988 51.4655 31.948 51.2255 31.948C50.8095 31.948 50.4735 32.12 50.2175 32.464C49.9695 32.8 49.8455 33.256 49.8455 33.832V37H48.8135V31.096H49.7855V31.984C50.0975 31.344 50.5855 31.024 51.2495 31.024C51.5535 31.024 51.8655 31.084 52.1855 31.204ZM56.4863 31.204L56.2943 32.068C56.0223 31.988 55.7663 31.948 55.5263 31.948C55.1103 31.948 54.7743 32.12 54.5183 32.464C54.2703 32.8 54.1463 33.256 54.1463 33.832V37H53.1143V31.096H54.0863V31.984C54.3983 31.344 54.8863 31.024 55.5503 31.024C55.8543 31.024 56.1663 31.084 56.4863 31.204ZM62.0625 32.896V37H61.1265V36.268C60.7105 36.884 60.0425 37.192 59.1225 37.192C58.4745 37.192 57.9585 37.052 57.5745 36.772C57.1985 36.492 57.0105 36.08 57.0105 35.536C57.0105 34.904 57.2465 34.444 57.7185 34.156C58.2065 33.86 58.8865 33.636 59.7585 33.484L61.0785 33.244V32.944C61.0785 32.584 60.9505 32.3 60.6945 32.092C60.4465 31.884 60.1145 31.78 59.6985 31.78C59.3385 31.78 59.0145 31.856 58.7265 32.008C58.4465 32.152 58.1225 32.408 57.7545 32.776L57.0945 32.188C57.8065 31.348 58.6625 30.928 59.6625 30.928C60.4145 30.928 61.0025 31.108 61.4265 31.468C61.8505 31.82 62.0625 32.296 62.0625 32.896ZM61.0785 34.792V34.012L59.9985 34.228C59.2625 34.38 58.7545 34.536 58.4745 34.696C58.2025 34.856 58.0505 35.124 58.0185 35.5C58.0185 35.772 58.1225 35.98 58.3305 36.124C58.5465 36.268 58.8465 36.34 59.2305 36.34C59.7665 36.34 60.2065 36.2 60.5505 35.92C60.9025 35.632 61.0785 35.256 61.0785 34.792ZM64.7292 28.48V37H63.6972V28.48H64.7292ZM71.583 31.792C71.023 31.792 70.583 32.012 70.263 32.452C69.943 32.884 69.783 33.416 69.783 34.048C69.783 34.672 69.939 35.204 70.251 35.644C70.571 36.076 71.019 36.292 71.595 36.292C71.915 36.292 72.203 36.224 72.459 36.088C72.723 35.944 73.023 35.684 73.359 35.308L74.043 35.884C73.667 36.356 73.291 36.688 72.915 36.88C72.539 37.072 72.099 37.168 71.595 37.168C70.731 37.168 70.035 36.884 69.507 36.316C68.987 35.748 68.727 34.992 68.727 34.048C68.727 33.112 68.991 32.36 69.519 31.792C70.055 31.216 70.747 30.928 71.595 30.928C72.083 30.928 72.507 31.012 72.867 31.18C73.235 31.348 73.599 31.636 73.959 32.044L73.287 32.68C72.983 32.352 72.699 32.124 72.435 31.996C72.179 31.86 71.895 31.792 71.583 31.792ZM79.6378 31.804C80.1818 32.38 80.4538 33.128 80.4538 34.048C80.4538 34.968 80.1818 35.72 79.6378 36.304C79.0938 36.88 78.3938 37.168 77.5378 37.168C76.6818 37.168 75.9778 36.88 75.4258 36.304C74.8818 35.72 74.6098 34.968 74.6098 34.048C74.6098 33.128 74.8818 32.38 75.4258 31.804C75.9778 31.22 76.6818 30.928 77.5378 30.928C78.3938 30.928 79.0938 31.22 79.6378 31.804ZM76.1698 32.416C75.8338 32.832 75.6658 33.376 75.6658 34.048C75.6658 34.72 75.8338 35.264 76.1698 35.68C76.5138 36.096 76.9698 36.304 77.5378 36.304C78.1058 36.304 78.5578 36.1 78.8938 35.692C79.2298 35.276 79.3978 34.728 79.3978 34.048C79.3978 33.368 79.2298 32.824 78.8938 32.416C78.5578 32 78.1058 31.792 77.5378 31.792C76.9698 31.792 76.5138 32 76.1698 32.416ZM85.9906 28.48H87.0226V37H86.0506V36.088C85.6106 36.8 84.9386 37.156 84.0346 37.156C83.2746 37.156 82.6506 36.868 82.1626 36.292C81.6746 35.716 81.4306 34.968 81.4306 34.048C81.4306 33.128 81.6786 32.38 82.1746 31.804C82.6706 31.228 83.2986 30.94 84.0586 30.94C84.9146 30.94 85.5586 31.256 85.9906 31.888V28.48ZM85.5226 35.68C85.8586 35.272 86.0266 34.728 86.0266 34.048C86.0266 33.368 85.8586 32.828 85.5226 32.428C85.1866 32.028 84.7426 31.828 84.1906 31.828C83.6786 31.828 83.2666 32.032 82.9546 32.44C82.6426 32.848 82.4866 33.384 82.4866 34.048C82.4866 34.72 82.6386 35.26 82.9426 35.668C83.2546 36.076 83.6706 36.28 84.1906 36.28C84.7426 36.28 85.1866 36.08 85.5226 35.68ZM93.1578 35.32L93.7698 35.944C93.3458 36.392 92.9378 36.708 92.5458 36.892C92.1538 37.076 91.7058 37.168 91.2018 37.168C90.3138 37.168 89.6018 36.888 89.0658 36.328C88.5378 35.76 88.2738 35.012 88.2738 34.084C88.2738 33.156 88.5298 32.4 89.0418 31.816C89.5618 31.224 90.2458 30.928 91.0938 30.928C91.9338 30.928 92.5858 31.18 93.0498 31.684C93.5218 32.188 93.7578 32.884 93.7578 33.772C93.7578 33.884 93.7498 34.036 93.7338 34.228H89.3058C89.3378 34.852 89.5178 35.356 89.8458 35.74C90.1738 36.116 90.6298 36.304 91.2138 36.304C91.5818 36.304 91.8978 36.232 92.1618 36.088C92.4258 35.952 92.7578 35.696 93.1578 35.32ZM89.3298 33.46H92.7378C92.7138 32.932 92.5538 32.516 92.2578 32.212C91.9698 31.908 91.5778 31.756 91.0818 31.756C90.6018 31.756 90.2098 31.904 89.9058 32.2C89.6018 32.496 89.4098 32.916 89.3298 33.46ZM99.5191 31.792L98.9551 32.488C98.5951 32.208 98.2791 32.02 98.0071 31.924C97.7431 31.82 97.4391 31.768 97.0951 31.768C96.7031 31.768 96.3871 31.852 96.1471 32.02C95.9151 32.18 95.7991 32.388 95.7991 32.644C95.8311 32.892 95.9351 33.064 96.1111 33.16C96.2871 33.248 96.7111 33.368 97.3831 33.52C98.1991 33.712 98.7751 33.94 99.1111 34.204C99.4471 34.46 99.6151 34.836 99.6151 35.332C99.6151 35.884 99.3991 36.328 98.9671 36.664C98.5351 37 97.9631 37.168 97.2511 37.168C96.7151 37.168 96.2391 37.088 95.8231 36.928C95.4151 36.76 94.9831 36.472 94.5271 36.064L95.1391 35.392C95.5711 35.752 95.9391 35.996 96.2431 36.124C96.5471 36.252 96.8871 36.316 97.2631 36.316C97.6551 36.316 97.9751 36.232 98.2231 36.064C98.4791 35.896 98.6071 35.668 98.6071 35.38C98.6071 35.1 98.4871 34.892 98.2471 34.756C98.0071 34.62 97.5751 34.484 96.9511 34.348C96.1111 34.156 95.5471 33.956 95.2591 33.748C94.9711 33.532 94.8191 33.176 94.8031 32.68C94.8031 32.16 95.0151 31.74 95.4391 31.42C95.8631 31.092 96.4151 30.928 97.0951 30.928C97.5831 30.928 98.0111 30.996 98.3791 31.132C98.7471 31.26 99.1271 31.48 99.5191 31.792Z" fill="white"/>
<path d="M225.206 31.487H228.314L226.333 29.5048C225.696 28.867 224.901 28.4084 224.03 28.175C223.159 27.9416 222.241 27.9417 221.37 28.1752C220.499 28.4087 219.705 28.8675 219.067 29.5053C218.429 30.1432 217.971 30.9377 217.738 31.8089M217.086 37.8987V34.79M217.086 34.79H220.195M217.086 34.79L219.067 36.7721C219.704 37.4099 220.499 37.8685 221.37 38.1019C222.241 38.3353 223.158 38.3352 224.03 38.1017C224.901 37.8682 225.695 37.4094 226.333 36.7716C226.971 36.1337 227.429 35.3392 227.662 34.468M228.314 28.3783V31.4857" stroke="#BDBDBD" stroke-width="1.5" stroke-linecap="round" stroke-linejoin="round"/>
<path d="M218.553 77.2079L218.551 78.3996V84.2957C218.551 84.7795 218.744 85.2435 219.086 85.5856C219.428 85.9277 219.892 86.1199 220.376 86.1199H225.212C225.125 86.3662 224.964 86.5794 224.75 86.7302C224.537 86.8809 224.282 86.9619 224.021 86.9619H220.376C219.669 86.9619 218.99 86.681 218.49 86.181C217.99 85.681 217.709 85.0028 217.709 84.2957V78.3996C217.709 77.8495 218.061 77.3808 218.553 77.2079ZM225.428 75.7333C225.593 75.7333 225.758 75.766 225.911 75.8295C226.064 75.8929 226.203 75.986 226.321 76.1033C226.438 76.2205 226.531 76.3598 226.594 76.513C226.658 76.6662 226.691 76.8304 226.691 76.9963V84.2934C226.691 84.4593 226.658 84.6235 226.594 84.7767C226.531 84.93 226.438 85.0692 226.321 85.1865C226.203 85.3037 226.064 85.3968 225.911 85.4602C225.758 85.5237 225.593 85.5564 225.428 85.5564H220.376C220.041 85.5564 219.72 85.4233 219.483 85.1865C219.246 84.9496 219.113 84.6284 219.113 84.2934V76.9963C219.113 76.6613 219.246 76.3401 219.483 76.1033C219.72 75.8664 220.041 75.7333 220.376 75.7333H225.428ZM225.428 76.5753H220.376C220.264 76.5753 220.157 76.6197 220.078 76.6986C219.999 76.7776 219.955 76.8846 219.955 76.9963V84.2934C219.955 84.5258 220.143 84.7144 220.376 84.7144H225.428C225.539 84.7144 225.646 84.67 225.725 84.5911C225.804 84.5121 225.849 84.4051 225.849 84.2934V76.9963C225.849 76.8846 225.804 76.7776 225.725 76.6986C225.646 76.6197 225.539 76.5753 225.428 76.5753Z" fill="#BDBDBD"/>
<path d="M218.553 120.251L218.551 121.442V127.339C218.551 127.822 218.744 128.286 219.086 128.628C219.428 128.971 219.892 129.163 220.376 129.163H225.212C225.125 129.409 224.964 129.622 224.75 129.773C224.537 129.924 224.282 130.005 224.021 130.005H220.376C219.669 130.005 218.99 129.724 218.49 129.224C217.99 128.724 217.709 128.046 217.709 127.339V121.442C217.709 120.892 218.061 120.424 218.553 120.251ZM225.428 118.776C225.593 118.776 225.758 118.809 225.911 118.872C226.064 118.936 226.203 119.029 226.321 119.146C226.438 119.263 226.531 119.403 226.594 119.556C226.658 119.709 226.691 119.873 226.691 120.039V127.336C226.691 127.502 226.658 127.666 226.594 127.82C226.531 127.973 226.438 128.112 226.321 128.229C226.203 128.347 226.064 128.44 225.911 128.503C225.758 128.567 225.593 128.599 225.428 128.599H220.376C220.041 128.599 219.72 128.466 219.483 128.229C219.246 127.992 219.113 127.671 219.113 127.336V120.039C219.113 119.704 219.246 119.383 219.483 119.146C219.72 118.909 220.041 118.776 220.376 118.776H225.428ZM225.428 119.618H220.376C220.264 119.618 220.157 119.663 220.078 119.741C219.999 119.82 219.955 119.927 219.955 120.039V127.336C219.955 127.569 220.143 127.757 220.376 127.757H225.428C225.539 127.757 225.646 127.713 225.725 127.634C225.804 127.555 225.849 127.448 225.849 127.336V120.039C225.849 119.927 225.804 119.82 225.725 119.741C225.646 119.663 225.539 119.618 225.428 119.618Z" fill="#BDBDBD"/>
<path d="M218.553 163.294L218.551 164.485V170.381C218.551 170.865 218.744 171.329 219.086 171.671C219.428 172.013 219.892 172.206 220.376 172.206H225.212C225.125 172.452 224.964 172.665 224.75 172.816C224.537 172.967 224.282 173.048 224.021 173.048H220.376C219.669 173.048 218.99 172.767 218.49 172.267C217.99 171.767 217.709 171.088 217.709 170.381V164.485C217.709 163.935 218.061 163.466 218.553 163.294ZM225.428 161.819C225.593 161.819 225.758 161.852 225.911 161.915C226.064 161.979 226.203 162.072 226.321 162.189C226.438 162.306 226.531 162.445 226.594 162.599C226.658 162.752 226.691 162.916 226.691 163.082V170.379C226.691 170.545 226.658 170.709 226.594 170.862C226.531 171.016 226.438 171.155 226.321 171.272C226.203 171.389 226.064 171.482 225.911 171.546C225.758 171.609 225.593 171.642 225.428 171.642H220.376C220.041 171.642 219.72 171.509 219.483 171.272C219.246 171.035 219.113 170.714 219.113 170.379V163.082C219.113 162.747 219.246 162.426 219.483 162.189C219.72 161.952 220.041 161.819 220.376 161.819H225.428ZM225.428 162.661H220.376C220.264 162.661 220.157 162.705 220.078 162.784C219.999 162.863 219.955 162.97 219.955 163.082V170.379C219.955 170.611 220.143 170.8 220.376 170.8H225.428C225.539 170.8 225.646 170.756 225.725 170.677C225.804 170.598 225.849 170.491 225.849 170.379V163.082C225.849 162.97 225.804 162.863 225.725 162.784C225.646 162.705 225.539 162.661 225.428 162.661Z" fill="#BDBDBD"/>
<rect x="37" y="79.381" width="109.79" height="5" rx="2.5" fill="#7764FF"/>
<rect x="37" y="122.381" width="110" height="5" rx="2.5" fill="#7764FF"/>
<rect x="36.8047" y="164.381" width="109.79" height="5" rx="2.5" fill="#7764FF"/>
</svg>
